<svg version="1.2" xmlns="http://www.w3.org/2000/svg" viewBox="0 -1 500 501" width="500" height="500">
	<title>5534260</title>
	<style>
		tspan { white-space:pre } 
		.s0 { fill: #6b9986 } 
		.s1 { fill: #f8c995 } 
	</style>
	<g id="OBJECTS">
		<g id="&lt;Group&gt;">
			<g id="Folder 1">
				<g id="&lt;Group&gt;">
					<path id="&lt;Compound Path&gt;" fill-rule="evenodd" class="s0" d="m0 0v500h500v-500zm473 473h-446v-446h446z"/>
				</g>
				<g id="&lt;Group&gt;">
					<g id="&lt;Group&gt;">
						<g id="&lt;Group&gt;">
							<path id="&lt;Path&gt;" fill-rule="evenodd" class="s1" d="m387 10.1q0-0.2-0.1-0.2c-3.3-0.8-4.9 0.7-5.5 1.8 0-2.2-0.7-3.7-0.7-3.8q0-0.1-0.1-0.1-0.1 0-0.2 0c-1.2 0.7-1.8 2.3-2.1 3.3-0.7-3.8-2.6-5.3-3.1-5.7q0 0-0.1 0 0 0 0 0-0.1 0-0.1 0-0.1 0-0.1 0c-0.5 0.4-2.4 1.9-3.1 5.7-0.3-1-0.9-2.6-2.1-3.3q-0.1 0-0.2 0-0.1 0-0.1 0.1c0 0.1-0.7 1.6-0.6 3.8-0.7-1.1-2.3-2.6-5.6-1.8q-0.1 0-0.1 0.2 0 0.1 0.1 0.2c0 0 1.6 0.5 2.1 2.7 0.8 3.1 2.8 5 6.1 5.7q0.1 0.1 0.2 0.1 0.1 0 0.2 0 0.3 0 0.6 0.1 0 0 0 0 1.1 0.2 2.5 0.2 0 0 0 0h0.2c0.1 0.1 0.2 0.1 0.3 0q1.5 0 2.8-0.3 0.1 0 0.2 0 0.1 0 0.1-0.1c3.4-0.7 5.5-2.6 6.3-5.7 0.3-1.1 0.8-1.8 1.2-2.2 0.5-0.4 0.9-0.5 0.9-0.5q0.1-0.1 0.1-0.2z"/>
						</g>
						<g id="&lt;Group&gt;">
							<path id="&lt;Path&gt;" fill-rule="evenodd" class="s1" d="m355.4 8.6c-3.2-0.9-7.8-0.2-9.8 2.8-3.9 5.9 8.6 11.6 9.8 5 0.3-1.6-1.9-2.7-2.7-1.2-1.2 2.6-6.5-0.7-3.8-3.3 1.5-1.5 4.6-1.4 6.4-0.9 3.3 0.9 5.1 3.8 7.6 6 0.4 0.4 1-0.1 0.8-0.7-1.5-3.5-4.5-6.7-8.3-7.7z"/>
						</g>
						<g id="&lt;Group&gt;">
							<path id="&lt;Path&gt;" fill-rule="evenodd" class="s1" d="m394.7 8.6c-3.8 1-6.7 4.2-8.3 7.7-0.2 0.6 0.4 1.1 0.9 0.7 2.4-2.2 4.2-5.1 7.5-6 1.8-0.5 4.9-0.6 6.4 0.9 2.7 2.6-2.6 5.9-3.8 3.3-0.8-1.5-2.9-0.4-2.7 1.2 1.2 6.6 13.7 0.9 9.8-5-2-3-6.6-3.7-9.8-2.8z"/>
						</g>
						<g id="&lt;Group&gt;">
							<path id="&lt;Path&gt;" fill-rule="evenodd" class="s1" d="m411.7 11.3c-1.5-0.3-2.8 0.5-3.4 2-0.4 1.4 0.3 2.9 1.7 3.4q0.1 0 0.2 0 0.5 0.1 0.9 0.2c1.4-0.1 2.6-1 2.8-2.4 0.1-1.4-0.8-2.9-2.2-3.2z"/>
						</g>
						<g id="&lt;Group&gt;">
							<path id="&lt;Path&gt;" fill-rule="evenodd" class="s1" d="m341.1 11.3c-0.4-0.5-1-0.7-1.5-0.7-0.6-0.1-1.1 0-1.7 0.3-1.3 0.6-1.9 2.3-1.6 3.7 0.6 2 3.1 2.7 4.8 1.5 1-0.8 1.2-2 0.8-3.1-0.1-0.6-0.4-1.2-0.8-1.7z"/>
						</g>
						<g id="&lt;Group&gt;">
							<path id="&lt;Path&gt;" fill-rule="evenodd" class="s1" d="m467.6 10.1q0-0.2-0.2-0.2c-3.3-0.8-4.8 0.7-5.5 1.8 0.1-2.2-0.6-3.7-0.6-3.8q-0.1-0.1-0.2-0.1 0 0-0.1 0c-1.2 0.7-1.9 2.3-2.2 3.3-0.6-3.8-2.5-5.3-3-5.7q-0.1 0-0.1 0-0.1 0-0.1 0 0 0-0.1 0 0 0-0.1 0c-0.5 0.4-2.4 1.9-3 5.7-0.3-1-1-2.6-2.2-3.3q-0.1 0-0.1 0-0.1 0-0.2 0.1c0 0.1-0.7 1.6-0.6 3.8-0.7-1.1-2.2-2.6-5.5-1.8q-0.2 0-0.2 0.2 0 0.1 0.2 0.2c0 0 1.5 0.5 2.1 2.7 0.8 3.1 2.8 5 6 5.7q0.1 0.1 0.2 0.1 0.2 0 0.2 0 0.3 0 0.6 0.1 0 0 0 0 1.2 0.2 2.5 0.2 0 0 0 0h0.2q0.2 0.1 0.3 0 1.6 0 2.9-0.3 0.1 0 0.2 0 0 0 0.1-0.1c3.4-0.7 5.4-2.6 6.2-5.7 0.3-1.1 0.9-1.8 1.3-2.2 0.4-0.4 0.8-0.5 0.8-0.5q0.2-0.1 0.2-0.2z"/>
						</g>
						<g id="&lt;Group&gt;">
							<path id="&lt;Path&gt;" fill-rule="evenodd" class="s1" d="m436 8.6c-3.2-0.9-7.9-0.2-9.8 2.8-3.9 5.9 8.5 11.6 9.7 5 0.3-1.6-1.9-2.7-2.6-1.2-1.2 2.6-6.5-0.7-3.8-3.3 1.5-1.5 4.5-1.4 6.3-0.9 3.4 0.9 5.2 3.8 7.6 6 0.5 0.4 1.1-0.1 0.8-0.7-1.5-3.5-4.5-6.7-8.2-7.7z"/>
						</g>
						<g id="&lt;Group&gt;">
							<path id="&lt;Path&gt;" fill-rule="evenodd" class="s1" d="m475.2 8.6c-3.7 1-6.7 4.2-8.2 7.7-0.3 0.6 0.3 1.1 0.8 0.7 2.4-2.2 4.2-5.1 7.6-6 1.8-0.5 4.8-0.6 6.3 0.9 2.7 2.6-2.6 5.9-3.8 3.3-0.7-1.5-2.9-0.4-2.6 1.2 1.2 6.6 13.6 0.9 9.7-5-1.9-3-6.6-3.7-9.8-2.8z"/>
						</g>
						<g id="&lt;Group&gt;">
							<path id="&lt;Path&gt;" fill-rule="evenodd" class="s1" d="m421.6 11.3c-0.3-0.5-1-0.7-1.5-0.7-0.6-0.1-1.1 0-1.6 0.3-1.4 0.6-2 2.3-1.6 3.7 0.5 2 3.1 2.7 4.7 1.5 1-0.8 1.2-2 0.9-3.1-0.1-0.6-0.4-1.2-0.9-1.7z"/>
						</g>
						<g id="&lt;Group&gt;">
							<path id="&lt;Path&gt;" fill-rule="evenodd" class="s1" d="m226.5 10.1q0-0.2-0.2-0.2c-3.2-0.8-4.8 0.7-5.5 1.8 0.1-2.2-0.6-3.7-0.6-3.8q-0.1-0.1-0.1-0.1-0.1 0-0.2 0c-1.2 0.7-1.8 2.3-2.1 3.3-0.7-3.8-2.6-5.3-3.1-5.7q0 0-0.1 0 0 0-0.1 0 0 0-0.1 0 0 0 0 0c-0.5 0.4-2.4 1.9-3.1 5.7-0.3-1-1-2.6-2.2-3.3q0 0-0.1 0-0.1 0-0.1 0.1c-0.1 0.1-0.8 1.6-0.7 3.8-0.7-1.1-2.2-2.6-5.5-1.8q-0.1 0-0.1 0.2 0 0.1 0.1 0.2c0 0 1.5 0.5 2.1 2.7 0.8 3.1 2.8 5 6.1 5.7q0.1 0.1 0.2 0.1 0.1 0 0.2 0 0.2 0 0.5 0.1 0 0 0 0 1.2 0.2 2.5 0.2 0 0 0.1 0h0.1c0.1 0.1 0.3 0.1 0.4 0q1.5 0 2.8-0.3 0.1 0 0.2 0 0.1 0 0.1-0.1c3.4-0.7 5.5-2.6 6.2-5.7 0.3-1.1 0.9-1.8 1.3-2.2 0.5-0.4 0.9-0.5 0.9-0.5q0.1-0.1 0.1-0.2z"/>
						</g>
						<g id="&lt;Group&gt;">
							<path id="&lt;Path&gt;" fill-rule="evenodd" class="s1" d="m194.9 8.6c-3.2-0.9-7.8-0.2-9.8 2.8-3.9 5.9 8.6 11.6 9.8 5 0.2-1.6-1.9-2.7-2.7-1.2-1.2 2.6-6.5-0.7-3.8-3.3 1.5-1.5 4.5-1.4 6.4-0.9 3.3 0.9 5.1 3.8 7.5 6 0.5 0.4 1.1-0.1 0.9-0.7-1.6-3.5-4.5-6.7-8.3-7.7z"/>
						</g>
						<g id="&lt;Group&gt;">
							<path id="&lt;Path&gt;" fill-rule="evenodd" class="s1" d="m234.2 8.6c-3.8 1-6.8 4.2-8.3 7.7-0.2 0.6 0.4 1.1 0.8 0.7 2.4-2.2 4.3-5.1 7.6-6 1.8-0.5 4.9-0.6 6.3 0.9 2.8 2.6-2.5 5.9-3.8 3.3-0.7-1.5-2.9-0.4-2.6 1.2 1.2 6.6 13.7 0.9 9.8-5-2-3-6.7-3.7-9.8-2.8z"/>
						</g>
						<g id="&lt;Group&gt;">
							<path id="&lt;Path&gt;" fill-rule="evenodd" class="s1" d="m251.2 11.3c-1.5-0.3-2.9 0.5-3.4 2-0.5 1.4 0.2 2.9 1.7 3.4q0.1 0 0.2 0 0.4 0.1 0.9 0.2c1.4-0.1 2.5-1 2.7-2.4 0.2-1.4-0.7-2.9-2.1-3.2z"/>
						</g>
						<g id="&lt;Group&gt;">
							<path id="&lt;Path&gt;" fill-rule="evenodd" class="s1" d="m180.6 11.3c-0.4-0.5-1-0.7-1.5-0.7-0.7-0.1-1.1 0-1.7 0.3-1.3 0.6-2 2.3-1.6 3.7 0.6 2 3.1 2.7 4.7 1.5 1-0.8 1.3-2 0.9-3.1-0.1-0.6-0.4-1.2-0.8-1.7z"/>
						</g>
						<g id="&lt;Group&gt;">
							<path id="&lt;Path&gt;" fill-rule="evenodd" class="s1" d="m307 10.1q0-0.2-0.1-0.2c-3.3-0.8-4.8 0.7-5.5 1.8 0.1-2.2-0.6-3.7-0.7-3.8q0-0.1-0.1-0.1-0.1 0-0.1 0c-1.2 0.7-1.9 2.3-2.2 3.3-0.7-3.8-2.6-5.3-3.1-5.7q0 0 0 0-0.1 0-0.1 0-0.1 0-0.1 0-0.1 0-0.1 0c-0.5 0.4-2.4 1.9-3.1 5.7-0.3-1-0.9-2.6-2.1-3.3q-0.1 0-0.2 0 0 0-0.1 0.1c0 0.1-0.7 1.6-0.6 3.8-0.7-1.1-2.3-2.6-5.5-1.8q-0.2 0-0.2 0.2 0 0.1 0.1 0.2c0.1 0 1.6 0.5 2.2 2.7 0.7 3.1 2.7 5 6 5.7q0.1 0.1 0.2 0.1 0.1 0 0.2 0 0.3 0 0.6 0.1 0 0 0 0 1.1 0.2 2.5 0.2 0 0 0 0h0.2q0.2 0.1 0.3 0 1.6 0 2.9-0.3 0 0 0.1 0 0.1 0 0.2-0.1c3.3-0.7 5.4-2.6 6.2-5.7 0.3-1.1 0.9-1.8 1.3-2.2 0.4-0.4 0.8-0.5 0.8-0.5q0.1-0.1 0.1-0.2z"/>
						</g>
						<g id="&lt;Group&gt;">
							<path id="&lt;Path&gt;" fill-rule="evenodd" class="s1" d="m275.4 8.6c-3.1-0.9-7.8-0.2-9.8 2.8-3.8 5.9 8.6 11.6 9.8 5 0.3-1.6-1.9-2.7-2.6-1.2-1.3 2.6-6.6-0.7-3.8-3.3 1.5-1.5 4.5-1.4 6.3-0.9 3.3 0.9 5.2 3.8 7.6 6 0.4 0.4 1-0.1 0.8-0.7-1.5-3.5-4.5-6.7-8.3-7.7z"/>
						</g>
						<g id="&lt;Group&gt;">
							<path id="&lt;Path&gt;" fill-rule="evenodd" class="s1" d="m314.7 8.6c-3.8 1-6.7 4.2-8.3 7.7-0.2 0.6 0.4 1.1 0.9 0.7 2.4-2.2 4.2-5.1 7.5-6 1.9-0.5 4.9-0.6 6.4 0.9 2.7 2.6-2.6 5.9-3.8 3.3-0.8-1.5-2.9-0.4-2.7 1.2 1.2 6.6 13.7 0.9 9.8-5-2-3-6.6-3.7-9.8-2.8z"/>
						</g>
						<g id="&lt;Group&gt;">
							<path id="&lt;Path&gt;" fill-rule="evenodd" class="s1" d="m331.7 11.3c-1.5-0.3-2.8 0.5-3.3 2-0.5 1.4 0.2 2.9 1.6 3.4q0.1 0 0.2 0 0.5 0.1 0.9 0.2c1.4-0.1 2.6-1 2.8-2.4 0.2-1.4-0.8-2.9-2.2-3.2z"/>
						</g>
						<g id="&lt;Group&gt;">
							<path id="&lt;Path&gt;" fill-rule="evenodd" class="s1" d="m261.1 11.3c-0.3-0.5-1-0.7-1.5-0.7-0.6-0.1-1.1 0-1.7 0.3-1.3 0.6-1.9 2.3-1.5 3.7 0.5 2 3.1 2.7 4.7 1.5 1-0.8 1.2-2 0.8-3.1 0-0.6-0.4-1.2-0.8-1.7z"/>
						</g>
						<g id="&lt;Group&gt;">
							<path id="&lt;Path&gt;" fill-rule="evenodd" class="s1" d="m65 10.1q0-0.2-0.1-0.2c-3.3-0.8-4.9 0.7-5.6 1.8 0.1-2.2-0.6-3.7-0.6-3.8q0-0.1-0.1-0.1-0.1 0-0.2 0c-1.2 0.7-1.8 2.3-2.1 3.3-0.7-3.8-2.6-5.3-3.1-5.7q0 0-0.1 0 0 0-0.1 0 0 0 0 0-0.1 0-0.1 0c-0.5 0.4-2.4 1.9-3.1 5.7-0.3-1-0.9-2.6-2.1-3.3q-0.1 0-0.2 0-0.1 0-0.1 0.1c0 0.1-0.7 1.6-0.7 3.8-0.6-1.1-2.2-2.6-5.5-1.8q-0.1 0-0.1 0.2 0 0.1 0.1 0.2c0 0 1.6 0.5 2.1 2.7 0.8 3.1 2.8 5 6.1 5.7q0.1 0.1 0.2 0.1 0.1 0 0.2 0 0.3 0 0.5 0.1 0.1 0 0.1 0 1.1 0.2 2.4 0.2 0.1 0 0.1 0h0.1 0.1c0.1 0.1 0.2 0.1 0.3 0q1.5 0 2.8-0.3 0.1 0 0.2 0 0.1 0 0.1-0.1c3.4-0.7 5.5-2.6 6.3-5.7 0.3-1.1 0.8-1.8 1.2-2.2 0.5-0.4 0.9-0.5 0.9-0.5q0.1-0.1 0.1-0.2z"/>
						</g>
						<g id="&lt;Group&gt;">
							<path id="&lt;Path&gt;" fill-rule="evenodd" class="s1" d="m33.4 8.6c-3.2-0.9-7.8-0.2-9.8 2.8-3.9 5.9 8.6 11.6 9.8 5 0.2-1.6-1.9-2.7-2.7-1.2-1.2 2.6-6.5-0.7-3.8-3.3 1.5-1.5 4.6-1.4 6.4-0.9 3.3 0.9 5.1 3.8 7.5 6 0.5 0.4 1.1-0.1 0.9-0.7-1.5-3.5-4.5-6.7-8.3-7.7z"/>
						</g>
						<g id="&lt;Group&gt;">
							<path id="&lt;Path&gt;" fill-rule="evenodd" class="s1" d="m72.7 8.6c-3.8 1-6.8 4.2-8.3 7.7-0.2 0.6 0.4 1.1 0.8 0.7 2.5-2.2 4.3-5.1 7.6-6 1.8-0.5 4.9-0.6 6.4 0.9 2.7 2.6-2.6 5.9-3.8 3.3-0.8-1.5-3-0.4-2.7 1.2 1.2 6.6 13.7 0.9 9.8-5-2-3-6.6-3.7-9.8-2.8z"/>
						</g>
						<g id="&lt;Group&gt;">
							<path id="&lt;Path&gt;" fill-rule="evenodd" class="s1" d="m89.7 11.3c-1.5-0.3-2.9 0.5-3.4 2-0.5 1.4 0.3 2.9 1.7 3.4q0.1 0 0.2 0 0.5 0.1 0.9 0.2c1.4-0.1 2.6-1 2.8-2.4 0.1-1.4-0.8-2.9-2.2-3.2z"/>
						</g>
						<g id="&lt;Group&gt;">
							<path id="&lt;Path&gt;" fill-rule="evenodd" class="s1" d="m19.1 11.3c-0.4-0.5-1-0.7-1.5-0.7-0.6-0.1-1.1 0-1.7 0.3-1.3 0.6-1.9 2.3-1.6 3.7 0.6 2 3.1 2.7 4.8 1.5 1-0.8 1.2-2 0.8-3.1-0.1-0.6-0.4-1.2-0.8-1.7z"/>
						</g>
						<g id="&lt;Group&gt;">
							<path id="&lt;Path&gt;" fill-rule="evenodd" class="s1" d="m145.6 10.1q-0.1-0.2-0.2-0.2c-3.3-0.8-4.8 0.7-5.5 1.8 0.1-2.2-0.6-3.7-0.6-3.8q-0.1-0.1-0.2-0.1 0 0-0.1 0c-1.2 0.7-1.9 2.3-2.2 3.3-0.6-3.8-2.5-5.3-3-5.7q-0.1 0-0.1 0-0.1 0-0.1 0 0 0-0.1 0-0.1 0-0.1 0c-0.5 0.4-2.4 1.9-3 5.7-0.3-1-1-2.6-2.2-3.3q-0.1 0-0.1 0-0.1 0-0.2 0.1c0 0.1-0.7 1.6-0.6 3.8-0.7-1.1-2.3-2.6-5.5-1.8q-0.2 0-0.2 0.2 0 0.1 0.2 0.2c0 0 1.5 0.5 2.1 2.7 0.8 3.1 2.8 5 6 5.7q0.1 0.1 0.2 0.1 0.2 0 0.2 0 0.3 0 0.6 0.1 0 0 0 0 1.2 0.2 2.5 0.2 0 0 0 0h0.2q0.2 0.1 0.3 0 1.6 0 2.9-0.3 0.1 0 0.2 0 0 0 0.1-0.1c3.4-0.7 5.4-2.6 6.2-5.7 0.3-1.1 0.9-1.8 1.3-2.2 0.4-0.4 0.8-0.5 0.8-0.5q0.2-0.1 0.2-0.2z"/>
						</g>
						<g id="&lt;Group&gt;">
							<path id="&lt;Path&gt;" fill-rule="evenodd" class="s1" d="m114 8.6c-3.2-0.9-7.9-0.2-9.8 2.8-3.9 5.9 8.5 11.6 9.7 5 0.3-1.6-1.9-2.7-2.6-1.2-1.3 2.6-6.6-0.7-3.8-3.3 1.5-1.5 4.5-1.4 6.3-0.9 3.4 0.9 5.2 3.8 7.6 6 0.5 0.4 1.1-0.1 0.8-0.7-1.5-3.5-4.5-6.7-8.2-7.7z"/>
						</g>
						<g id="&lt;Group&gt;">
							<path id="&lt;Path&gt;" fill-rule="evenodd" class="s1" d="m153.2 8.6c-3.7 1-6.7 4.2-8.2 7.7-0.3 0.6 0.3 1.1 0.8 0.7 2.4-2.2 4.2-5.1 7.5-6 1.9-0.5 4.9-0.6 6.4 0.9 2.7 2.6-2.6 5.9-3.8 3.3-0.8-1.5-2.9-0.4-2.6 1.2 1.2 6.6 13.6 0.9 9.7-5-1.9-3-6.6-3.7-9.8-2.8z"/>
						</g>
						<g id="&lt;Group&gt;">
							<path id="&lt;Path&gt;" fill-rule="evenodd" class="s1" d="m170.3 11.3c-1.5-0.3-2.9 0.5-3.4 2-0.5 1.4 0.2 2.9 1.6 3.4q0.2 0 0.3 0 0.4 0.1 0.8 0.2c1.5-0.1 2.6-1 2.8-2.4 0.2-1.4-0.8-2.9-2.1-3.2z"/>
						</g>
						<g id="&lt;Group&gt;">
							<path id="&lt;Path&gt;" fill-rule="evenodd" class="s1" d="m99.6 11.3c-0.3-0.5-1-0.7-1.5-0.7-0.6-0.1-1.1 0-1.6 0.3-1.4 0.6-2 2.3-1.6 3.7 0.5 2 3.1 2.7 4.7 1.5 1-0.8 1.2-2 0.9-3.1-0.1-0.6-0.4-1.2-0.9-1.7z"/>
						</g>
					</g>
					<g id="&lt;Group&gt;">
						<g id="&lt;Group&gt;">
							<path id="&lt;Path&gt;" fill-rule="evenodd" class="s1" d="m113 489.9q0 0.2 0.1 0.2c3.3 0.8 4.9-0.7 5.5-1.8 0 2.2 0.7 3.7 0.7 3.8q0 0.1 0.1 0.1 0.1 0 0.2 0c1.2-0.7 1.8-2.3 2.1-3.3 0.7 3.8 2.6 5.3 3.1 5.7q0 0 0.1 0 0 0 0 0 0.1 0 0.1 0 0.1 0 0.1 0c0.5-0.4 2.4-1.9 3.1-5.7 0.3 1 0.9 2.6 2.1 3.3q0.1 0 0.2 0 0.1 0 0.1-0.1c0-0.1 0.7-1.6 0.6-3.8 0.7 1.1 2.3 2.6 5.6 1.8q0.1 0 0.1-0.2 0-0.1-0.1-0.2c0 0-1.6-0.5-2.1-2.7-0.8-3.1-2.8-5-6.1-5.7q-0.1-0.1-0.2-0.1-0.1 0-0.2 0-0.3 0-0.6-0.1 0 0 0 0-1.1-0.2-2.5-0.2 0 0 0 0h-0.2c-0.1-0.1-0.2-0.1-0.3 0q-1.5 0-2.8 0.3-0.1 0-0.2 0-0.1 0-0.1 0.1c-3.4 0.7-5.5 2.6-6.3 5.7-0.3 1.1-0.8 1.8-1.2 2.2-0.5 0.4-0.9 0.5-0.9 0.5q-0.1 0.1-0.1 0.2z"/>
						</g>
						<g id="&lt;Group&gt;">
							<path id="&lt;Path&gt;" fill-rule="evenodd" class="s1" d="m144.6 491.4c3.2 0.9 7.8 0.2 9.8-2.8 3.9-5.9-8.6-11.6-9.8-5-0.3 1.6 1.9 2.7 2.7 1.2 1.2-2.6 6.5 0.7 3.8 3.3-1.5 1.5-4.6 1.4-6.4 0.9-3.3-0.9-5.1-3.8-7.6-6-0.4-0.4-1 0.1-0.8 0.7 1.5 3.5 4.5 6.7 8.3 7.7z"/>
						</g>
						<g id="&lt;Group&gt;">
							<path id="&lt;Path&gt;" fill-rule="evenodd" class="s1" d="m105.3 491.4c3.8-1 6.7-4.2 8.3-7.7 0.2-0.6-0.4-1.1-0.9-0.7-2.4 2.2-4.2 5.1-7.5 6-1.8 0.5-4.9 0.6-6.4-0.9-2.7-2.6 2.6-5.9 3.8-3.3 0.8 1.5 2.9 0.4 2.7-1.2-1.2-6.6-13.7-0.9-9.8 5 2 3 6.6 3.7 9.8 2.8z"/>
						</g>
						<g id="&lt;Group&gt;">
							<path id="&lt;Path&gt;" fill-rule="evenodd" class="s1" d="m88.3 488.7c1.5 0.3 2.8-0.5 3.4-2 0.4-1.4-0.3-2.9-1.7-3.4q-0.1 0-0.2 0-0.5-0.1-0.9-0.2c-1.4 0.1-2.6 1-2.8 2.4-0.1 1.4 0.8 2.9 2.2 3.2z"/>
						</g>
						<g id="&lt;Group&gt;">
							<path id="&lt;Path&gt;" fill-rule="evenodd" class="s1" d="m158.9 488.7c0.4 0.5 1 0.7 1.5 0.7 0.6 0.1 1.1 0 1.7-0.3 1.3-0.6 1.9-2.3 1.6-3.7-0.6-2-3.1-2.7-4.8-1.5-1 0.8-1.2 2-0.8 3.1 0.1 0.6 0.4 1.2 0.8 1.7z"/>
						</g>
						<g id="&lt;Group&gt;">
							<path id="&lt;Path&gt;" fill-rule="evenodd" class="s1" d="m32.4 489.9q0 0.2 0.2 0.2c3.3 0.8 4.8-0.7 5.5-1.8-0.1 2.2 0.6 3.7 0.6 3.8q0.1 0.1 0.2 0.1 0 0 0.1 0c1.2-0.7 1.9-2.3 2.2-3.3 0.6 3.8 2.5 5.3 3 5.7q0.1 0 0.1 0 0.1 0 0.1 0 0 0 0.1 0 0 0 0.1 0c0.5-0.4 2.4-1.9 3-5.7 0.3 1 1 2.6 2.2 3.3q0.1 0 0.1 0 0.1 0 0.2-0.1c0-0.1 0.7-1.6 0.6-3.8 0.7 1.1 2.2 2.6 5.5 1.8q0.2 0 0.2-0.2 0-0.1-0.2-0.2c0 0-1.5-0.5-2.1-2.7-0.8-3.1-2.8-5-6-5.7q-0.1-0.1-0.2-0.1-0.2 0-0.2 0-0.3 0-0.6-0.1 0 0 0 0-1.2-0.2-2.5-0.2 0 0 0 0h-0.2q-0.2-0.1-0.3 0-1.6 0-2.9 0.3-0.1 0-0.2 0 0 0-0.1 0.1c-3.4 0.7-5.4 2.6-6.2 5.7-0.3 1.1-0.9 1.8-1.3 2.2-0.4 0.4-0.8 0.5-0.8 0.5q-0.2 0.1-0.2 0.2z"/>
						</g>
						<g id="&lt;Group&gt;">
							<path id="&lt;Path&gt;" fill-rule="evenodd" class="s1" d="m64 491.4c3.2 0.9 7.9 0.2 9.8-2.8 3.9-5.9-8.5-11.6-9.7-5-0.3 1.6 1.9 2.7 2.6 1.2 1.2-2.6 6.5 0.7 3.8 3.3-1.5 1.5-4.5 1.4-6.3 0.9-3.4-0.9-5.2-3.8-7.6-6-0.5-0.4-1.1 0.1-0.8 0.7 1.5 3.5 4.5 6.7 8.2 7.7z"/>
						</g>
						<g id="&lt;Group&gt;">
							<path id="&lt;Path&gt;" fill-rule="evenodd" class="s1" d="m24.8 491.4c3.7-1 6.7-4.2 8.2-7.7 0.3-0.6-0.3-1.1-0.8-0.7-2.4 2.2-4.2 5.1-7.6 6-1.8 0.5-4.8 0.6-6.3-0.9-2.7-2.6 2.6-5.9 3.8-3.3 0.7 1.5 2.9 0.4 2.6-1.2-1.2-6.6-13.6-0.9-9.7 5 1.9 3 6.6 3.7 9.8 2.8z"/>
						</g>
						<g id="&lt;Group&gt;">
							<path id="&lt;Path&gt;" fill-rule="evenodd" class="s1" d="m78.4 488.7c0.3 0.5 1 0.7 1.5 0.7 0.6 0.1 1.1 0 1.6-0.3 1.4-0.6 2-2.3 1.6-3.7-0.5-2-3.1-2.7-4.7-1.5-1 0.8-1.2 2-0.9 3.1 0.1 0.6 0.4 1.2 0.9 1.7z"/>
						</g>
						<g id="&lt;Group&gt;">
							<path id="&lt;Path&gt;" fill-rule="evenodd" class="s1" d="m273.5 489.9q0 0.2 0.2 0.2c3.2 0.8 4.8-0.7 5.5-1.8-0.1 2.2 0.6 3.7 0.6 3.8q0.1 0.1 0.1 0.1 0.1 0 0.2 0c1.2-0.7 1.8-2.3 2.1-3.3 0.7 3.8 2.6 5.3 3.1 5.7q0 0 0.1 0 0 0 0.1 0 0 0 0.1 0 0 0 0 0c0.5-0.4 2.4-1.9 3.1-5.7 0.3 1 1 2.6 2.2 3.3q0 0 0.1 0 0.1 0 0.1-0.1c0.1-0.1 0.8-1.6 0.7-3.8 0.7 1.1 2.2 2.6 5.5 1.8q0.1 0 0.1-0.2 0-0.1-0.1-0.2c0 0-1.5-0.5-2.1-2.7-0.8-3.1-2.8-5-6.1-5.7q-0.1-0.1-0.2-0.1-0.1 0-0.2 0-0.2 0-0.5-0.1 0 0 0 0-1.2-0.2-2.5-0.2 0 0-0.1 0h-0.1c-0.1-0.1-0.3-0.1-0.4 0q-1.5 0-2.8 0.3-0.1 0-0.2 0-0.1 0-0.1 0.1c-3.4 0.7-5.5 2.6-6.2 5.7-0.3 1.1-0.9 1.8-1.3 2.2-0.5 0.4-0.9 0.5-0.9 0.5q-0.1 0.1-0.1 0.2z"/>
						</g>
						<g id="&lt;Group&gt;">
							<path id="&lt;Path&gt;" fill-rule="evenodd" class="s1" d="m305.1 491.4c3.2 0.9 7.8 0.2 9.8-2.8 3.9-5.9-8.6-11.6-9.8-5-0.2 1.6 1.9 2.7 2.7 1.2 1.2-2.6 6.5 0.7 3.8 3.3-1.5 1.5-4.5 1.4-6.4 0.9-3.3-0.9-5.1-3.8-7.5-6-0.5-0.4-1.1 0.1-0.9 0.7 1.6 3.5 4.5 6.7 8.3 7.7z"/>
						</g>
						<g id="&lt;Group&gt;">
							<path id="&lt;Path&gt;" fill-rule="evenodd" class="s1" d="m265.8 491.4c3.8-1 6.8-4.2 8.3-7.7 0.2-0.6-0.4-1.1-0.8-0.7-2.4 2.2-4.3 5.1-7.6 6-1.8 0.5-4.9 0.6-6.3-0.9-2.8-2.6 2.5-5.9 3.8-3.3 0.7 1.5 2.9 0.4 2.6-1.2-1.2-6.6-13.7-0.9-9.8 5 2 3 6.7 3.7 9.8 2.8z"/>
						</g>
						<g id="&lt;Group&gt;">
							<path id="&lt;Path&gt;" fill-rule="evenodd" class="s1" d="m248.8 488.7c1.5 0.3 2.9-0.5 3.4-2 0.5-1.4-0.2-2.9-1.7-3.4q-0.1 0-0.2 0-0.4-0.1-0.9-0.2c-1.4 0.1-2.5 1-2.7 2.4-0.2 1.4 0.7 2.9 2.1 3.2z"/>
						</g>
						<g id="&lt;Group&gt;">
							<path id="&lt;Path&gt;" fill-rule="evenodd" class="s1" d="m319.4 488.7c0.4 0.5 1 0.7 1.5 0.7 0.7 0.1 1.1 0 1.7-0.3 1.3-0.6 2-2.3 1.6-3.7-0.6-2-3.1-2.7-4.7-1.5-1 0.8-1.3 2-0.9 3.1 0.1 0.6 0.4 1.2 0.8 1.7z"/>
						</g>
						<g id="&lt;Group&gt;">
							<path id="&lt;Path&gt;" fill-rule="evenodd" class="s1" d="m193 489.9q0 0.2 0.1 0.2c3.3 0.8 4.8-0.7 5.5-1.8-0.1 2.2 0.6 3.7 0.7 3.8q0 0.1 0.1 0.1 0.1 0 0.1 0c1.2-0.7 1.9-2.3 2.2-3.3 0.7 3.8 2.6 5.3 3.1 5.7q0 0 0 0 0.1 0 0.1 0 0.1 0 0.1 0 0.1 0 0.1 0c0.5-0.4 2.4-1.9 3.1-5.7 0.3 1 0.9 2.6 2.1 3.3q0.1 0 0.2 0 0 0 0.1-0.1c0-0.1 0.7-1.6 0.6-3.8 0.7 1.1 2.3 2.6 5.5 1.8q0.2 0 0.2-0.2 0-0.1-0.1-0.2c-0.1 0-1.6-0.5-2.2-2.7-0.7-3.1-2.7-5-6-5.7q-0.1-0.1-0.2-0.1-0.1 0-0.2 0-0.3 0-0.6-0.1 0 0 0 0-1.1-0.2-2.5-0.2 0 0 0 0h-0.2q-0.2-0.1-0.3 0-1.6 0-2.9 0.3 0 0-0.1 0-0.1 0-0.2 0.1c-3.3 0.7-5.4 2.6-6.2 5.7-0.3 1.1-0.9 1.8-1.3 2.2-0.4 0.4-0.8 0.5-0.8 0.5q-0.1 0.1-0.1 0.2z"/>
						</g>
						<g id="&lt;Group&gt;">
							<path id="&lt;Path&gt;" fill-rule="evenodd" class="s1" d="m224.6 491.4c3.1 0.9 7.8 0.2 9.8-2.8 3.8-5.9-8.6-11.6-9.8-5-0.3 1.6 1.9 2.7 2.6 1.2 1.3-2.6 6.6 0.7 3.8 3.3-1.5 1.5-4.5 1.4-6.3 0.9-3.3-0.9-5.2-3.8-7.6-6-0.4-0.4-1 0.1-0.8 0.7 1.5 3.5 4.5 6.7 8.3 7.7z"/>
						</g>
						<g id="&lt;Group&gt;">
							<path id="&lt;Path&gt;" fill-rule="evenodd" class="s1" d="m185.3 491.4c3.8-1 6.7-4.2 8.3-7.7 0.2-0.6-0.4-1.1-0.9-0.7-2.4 2.2-4.2 5.1-7.5 6-1.9 0.5-4.9 0.6-6.4-0.9-2.7-2.6 2.6-5.9 3.8-3.3 0.8 1.5 2.9 0.4 2.7-1.2-1.2-6.6-13.7-0.9-9.8 5 2 3 6.6 3.7 9.8 2.8z"/>
						</g>
						<g id="&lt;Group&gt;">
							<path id="&lt;Path&gt;" fill-rule="evenodd" class="s1" d="m168.3 488.7c1.5 0.3 2.8-0.5 3.3-2 0.5-1.4-0.2-2.9-1.6-3.4q-0.1 0-0.2 0-0.5-0.1-0.9-0.2c-1.4 0.1-2.6 1-2.8 2.4-0.2 1.4 0.8 2.9 2.2 3.2z"/>
						</g>
						<g id="&lt;Group&gt;">
							<path id="&lt;Path&gt;" fill-rule="evenodd" class="s1" d="m238.9 488.7c0.3 0.5 1 0.7 1.5 0.7 0.6 0.1 1.1 0 1.7-0.3 1.3-0.6 1.9-2.3 1.5-3.7-0.5-2-3.1-2.7-4.7-1.5-1 0.8-1.2 2-0.8 3.1 0 0.6 0.4 1.2 0.8 1.7z"/>
						</g>
						<g id="&lt;Group&gt;">
							<path id="&lt;Path&gt;" fill-rule="evenodd" class="s1" d="m435 489.9q0 0.2 0.1 0.2c3.3 0.8 4.9-0.7 5.6-1.8-0.1 2.2 0.6 3.7 0.6 3.8q0 0.1 0.1 0.1 0.1 0 0.2 0c1.2-0.7 1.8-2.3 2.1-3.3 0.7 3.8 2.6 5.3 3.1 5.7q0 0 0.1 0 0 0 0.1 0 0 0 0 0 0.1 0 0.1 0c0.5-0.4 2.4-1.9 3.1-5.7 0.3 1 0.9 2.6 2.1 3.3q0.1 0 0.2 0 0.1 0 0.1-0.1c0-0.1 0.7-1.6 0.7-3.8 0.6 1.1 2.2 2.6 5.5 1.8q0.1 0 0.1-0.2 0-0.1-0.1-0.2c0 0-1.6-0.5-2.1-2.7-0.8-3.1-2.8-5-6.1-5.7q-0.1-0.1-0.2-0.1-0.1 0-0.2 0-0.3 0-0.5-0.1-0.1 0-0.1 0-1.1-0.2-2.4-0.2-0.1 0-0.1 0h-0.1-0.1c-0.1-0.1-0.2-0.1-0.3 0q-1.5 0-2.8 0.3-0.1 0-0.2 0-0.1 0-0.1 0.1c-3.4 0.7-5.5 2.6-6.3 5.7-0.3 1.1-0.8 1.8-1.2 2.2-0.5 0.4-0.9 0.5-0.9 0.5q-0.1 0.1-0.1 0.2z"/>
						</g>
						<g id="&lt;Group&gt;">
							<path id="&lt;Path&gt;" fill-rule="evenodd" class="s1" d="m466.6 491.4c3.2 0.9 7.8 0.2 9.8-2.8 3.9-5.9-8.6-11.6-9.8-5-0.2 1.6 1.9 2.7 2.7 1.2 1.2-2.6 6.5 0.7 3.8 3.3-1.5 1.5-4.6 1.4-6.4 0.9-3.3-0.9-5.1-3.8-7.5-6-0.5-0.4-1.1 0.1-0.9 0.7 1.5 3.5 4.5 6.7 8.3 7.7z"/>
						</g>
						<g id="&lt;Group&gt;">
							<path id="&lt;Path&gt;" fill-rule="evenodd" class="s1" d="m427.3 491.4c3.8-1 6.8-4.2 8.3-7.7 0.2-0.6-0.4-1.1-0.8-0.7-2.5 2.2-4.3 5.1-7.6 6-1.8 0.5-4.9 0.6-6.4-0.9-2.7-2.6 2.6-5.9 3.8-3.3 0.8 1.5 3 0.4 2.7-1.2-1.2-6.6-13.7-0.9-9.8 5 2 3 6.6 3.7 9.8 2.8z"/>
						</g>
						<g id="&lt;Group&gt;">
							<path id="&lt;Path&gt;" fill-rule="evenodd" class="s1" d="m410.3 488.7c1.5 0.3 2.9-0.5 3.4-2 0.5-1.4-0.3-2.9-1.7-3.4q-0.1 0-0.2 0-0.5-0.1-0.9-0.2c-1.4 0.1-2.6 1-2.8 2.4-0.1 1.4 0.8 2.9 2.2 3.2z"/>
						</g>
						<g id="&lt;Group&gt;">
							<path id="&lt;Path&gt;" fill-rule="evenodd" class="s1" d="m480.9 488.7c0.4 0.5 1 0.7 1.5 0.7 0.6 0.1 1.1 0 1.7-0.3 1.3-0.6 1.9-2.3 1.6-3.7-0.6-2-3.1-2.7-4.8-1.5-1 0.8-1.2 2-0.8 3.1 0.1 0.6 0.4 1.2 0.8 1.7z"/>
						</g>
						<g id="&lt;Group&gt;">
							<path id="&lt;Path&gt;" fill-rule="evenodd" class="s1" d="m354.4 489.9q0.1 0.2 0.2 0.2c3.3 0.8 4.8-0.7 5.5-1.8-0.1 2.2 0.6 3.7 0.6 3.8q0.1 0.1 0.2 0.1 0 0 0.1 0c1.2-0.7 1.9-2.3 2.2-3.3 0.6 3.8 2.5 5.3 3 5.7q0.1 0 0.1 0 0.1 0 0.1 0 0 0 0.1 0 0.1 0 0.1 0c0.5-0.4 2.4-1.9 3-5.7 0.3 1 1 2.6 2.2 3.3q0.1 0 0.1 0 0.1 0 0.2-0.1c0-0.1 0.7-1.6 0.6-3.8 0.7 1.1 2.3 2.6 5.5 1.8q0.2 0 0.2-0.2 0-0.1-0.2-0.2c0 0-1.5-0.5-2.1-2.7-0.8-3.1-2.8-5-6-5.7q-0.1-0.1-0.2-0.1-0.2 0-0.2 0-0.3 0-0.6-0.1 0 0 0 0-1.2-0.2-2.5-0.2 0 0 0 0h-0.2q-0.2-0.1-0.3 0-1.6 0-2.9 0.3-0.1 0-0.2 0 0 0-0.1 0.1c-3.4 0.7-5.4 2.6-6.2 5.7-0.3 1.1-0.9 1.8-1.3 2.2-0.4 0.4-0.8 0.5-0.8 0.5q-0.2 0.1-0.2 0.2z"/>
						</g>
						<g id="&lt;Group&gt;">
							<path id="&lt;Path&gt;" fill-rule="evenodd" class="s1" d="m386 491.4c3.2 0.9 7.9 0.2 9.8-2.8 3.9-5.9-8.5-11.6-9.7-5-0.3 1.6 1.9 2.7 2.6 1.2 1.3-2.6 6.6 0.7 3.8 3.3-1.5 1.5-4.5 1.4-6.3 0.9-3.4-0.9-5.2-3.8-7.6-6-0.5-0.4-1.1 0.1-0.8 0.7 1.5 3.5 4.5 6.7 8.2 7.7z"/>
						</g>
						<g id="&lt;Group&gt;">
							<path id="&lt;Path&gt;" fill-rule="evenodd" class="s1" d="m346.8 491.4c3.7-1 6.7-4.2 8.2-7.7 0.3-0.6-0.3-1.1-0.8-0.7-2.4 2.2-4.2 5.1-7.5 6-1.9 0.5-4.9 0.6-6.4-0.9-2.7-2.6 2.6-5.9 3.8-3.3 0.8 1.5 2.9 0.4 2.6-1.2-1.2-6.6-13.6-0.9-9.7 5 1.9 3 6.6 3.7 9.8 2.8z"/>
						</g>
						<g id="&lt;Group&gt;">
							<path id="&lt;Path&gt;" fill-rule="evenodd" class="s1" d="m329.7 488.7c1.5 0.3 2.9-0.5 3.4-2 0.5-1.4-0.2-2.9-1.6-3.4q-0.2 0-0.3 0-0.4-0.1-0.8-0.2c-1.5 0.1-2.6 1-2.8 2.4-0.2 1.4 0.8 2.9 2.1 3.2z"/>
						</g>
						<g id="&lt;Group&gt;">
							<path id="&lt;Path&gt;" fill-rule="evenodd" class="s1" d="m400.4 488.7c0.3 0.5 1 0.7 1.5 0.7 0.6 0.1 1.1 0 1.6-0.3 1.4-0.6 2-2.3 1.6-3.7-0.5-2-3.1-2.7-4.7-1.5-1 0.8-1.2 2-0.9 3.1 0.1 0.6 0.4 1.2 0.9 1.7z"/>
						</g>
					</g>
					<g id="&lt;Group&gt;">
						<g id="&lt;Group&gt;">
							<path id="&lt;Path&gt;" fill-rule="evenodd" class="s1" d="m489.9 387q0.2 0 0.2-0.1c0.8-3.3-0.7-4.9-1.8-5.5 2.2 0 3.7-0.7 3.8-0.7q0.1 0 0.1-0.1 0-0.1 0-0.2c-0.7-1.2-2.3-1.8-3.3-2.1 3.8-0.7 5.3-2.6 5.7-3.1q0 0 0-0.1 0 0 0 0 0-0.1 0-0.1 0-0.1 0-0.1c-0.4-0.5-1.9-2.4-5.7-3.1 1-0.3 2.6-0.9 3.3-2.1q0-0.1 0-0.2 0-0.1-0.1-0.1c-0.1 0-1.6-0.7-3.8-0.6 1.1-0.7 2.6-2.3 1.8-5.6q0-0.1-0.2-0.1-0.1 0-0.2 0.1c0 0-0.5 1.6-2.7 2.1-3.1 0.8-5 2.8-5.7 6.1q-0.1 0.1-0.1 0.2 0 0.1 0 0.2 0 0.3-0.1 0.6 0 0 0 0-0.2 1.1-0.2 2.5 0 0 0 0v0.2c-0.1 0.1-0.1 0.2 0 0.3q0 1.5 0.3 2.8 0 0.1 0 0.2 0 0.1 0.1 0.1c0.7 3.4 2.6 5.5 5.7 6.3 1.1 0.3 1.8 0.8 2.2 1.2 0.4 0.5 0.5 0.9 0.5 0.9q0.1 0.1 0.2 0.1z"/>
						</g>
						<g id="&lt;Group&gt;">
							<path id="&lt;Path&gt;" fill-rule="evenodd" class="s1" d="m491.4 355.4c0.9-3.2 0.2-7.8-2.8-9.8-5.9-3.9-11.6 8.6-5 9.8 1.6 0.3 2.7-1.9 1.2-2.7-2.6-1.2 0.7-6.5 3.3-3.8 1.5 1.5 1.4 4.6 0.9 6.4-0.9 3.3-3.8 5.1-6 7.6-0.4 0.4 0.1 1 0.7 0.8 3.5-1.5 6.7-4.5 7.7-8.3z"/>
						</g>
						<g id="&lt;Group&gt;">
							<path id="&lt;Path&gt;" fill-rule="evenodd" class="s1" d="m491.4 394.7c-1-3.8-4.2-6.7-7.7-8.3-0.6-0.2-1.1 0.4-0.7 0.9 2.2 2.4 5.1 4.2 6 7.5 0.5 1.8 0.6 4.9-0.9 6.4-2.6 2.7-5.9-2.6-3.3-3.8 1.5-0.8 0.4-2.9-1.2-2.7-6.6 1.2-0.9 13.7 5 9.8 3-2 3.7-6.6 2.8-9.8z"/>
						</g>
						<g id="&lt;Group&gt;">
							<path id="&lt;Path&gt;" fill-rule="evenodd" class="s1" d="m488.7 411.7c0.3-1.5-0.5-2.8-2-3.4-1.4-0.4-2.9 0.3-3.4 1.7q0 0.1 0 0.2-0.1 0.5-0.2 0.9c0.1 1.4 1 2.6 2.4 2.8 1.4 0.1 2.9-0.8 3.2-2.2z"/>
						</g>
						<g id="&lt;Group&gt;">
							<path id="&lt;Path&gt;" fill-rule="evenodd" class="s1" d="m488.7 341.1c0.5-0.4 0.7-1 0.7-1.5 0.1-0.6 0-1.1-0.3-1.7-0.6-1.3-2.3-1.9-3.7-1.6-2 0.6-2.7 3.1-1.5 4.8 0.8 1 2 1.2 3.1 0.8 0.6-0.1 1.2-0.4 1.7-0.8z"/>
						</g>
						<g id="&lt;Group&gt;">
							<path id="&lt;Path&gt;" fill-rule="evenodd" class="s1" d="m489.9 467.6q0.2 0 0.2-0.2c0.8-3.3-0.7-4.8-1.8-5.5 2.2 0.1 3.7-0.6 3.8-0.6q0.1-0.1 0.1-0.2 0 0 0-0.1c-0.7-1.2-2.3-1.9-3.3-2.2 3.8-0.6 5.3-2.5 5.7-3q0-0.1 0-0.1 0-0.1 0-0.1 0 0 0-0.1 0 0 0-0.1c-0.4-0.5-1.9-2.4-5.7-3 1-0.3 2.6-1 3.3-2.2q0-0.1 0-0.1 0-0.1-0.1-0.2c-0.1 0-1.6-0.7-3.8-0.6 1.1-0.7 2.6-2.2 1.8-5.5q0-0.2-0.2-0.2-0.1 0-0.2 0.2c0 0-0.5 1.5-2.7 2.1-3.1 0.8-5 2.8-5.7 6q-0.1 0.1-0.1 0.2 0 0.2 0 0.2 0 0.3-0.1 0.6 0 0 0 0-0.2 1.2-0.2 2.5 0 0 0 0v0.2q-0.1 0.2 0 0.3 0 1.6 0.3 2.9 0 0.1 0 0.2 0 0 0.1 0.1c0.7 3.4 2.6 5.4 5.7 6.2 1.1 0.3 1.8 0.9 2.2 1.3 0.4 0.4 0.5 0.8 0.5 0.8q0.1 0.2 0.2 0.2z"/>
						</g>
						<g id="&lt;Group&gt;">
							<path id="&lt;Path&gt;" fill-rule="evenodd" class="s1" d="m491.4 436c0.9-3.2 0.2-7.9-2.8-9.8-5.9-3.9-11.6 8.5-5 9.7 1.6 0.3 2.7-1.9 1.2-2.6-2.6-1.2 0.7-6.5 3.3-3.8 1.5 1.5 1.4 4.5 0.9 6.3-0.9 3.4-3.8 5.2-6 7.6-0.4 0.5 0.1 1.1 0.7 0.8 3.5-1.5 6.7-4.5 7.7-8.2z"/>
						</g>
						<g id="&lt;Group&gt;">
							<path id="&lt;Path&gt;" fill-rule="evenodd" class="s1" d="m491.4 475.2c-1-3.7-4.2-6.7-7.7-8.2-0.6-0.3-1.1 0.3-0.7 0.8 2.2 2.4 5.1 4.2 6 7.6 0.5 1.8 0.6 4.8-0.9 6.3-2.6 2.7-5.9-2.6-3.3-3.8 1.5-0.7 0.4-2.9-1.2-2.6-6.6 1.2-0.9 13.6 5 9.7 3-1.9 3.7-6.6 2.8-9.8z"/>
						</g>
						<g id="&lt;Group&gt;">
							<path id="&lt;Path&gt;" fill-rule="evenodd" class="s1" d="m488.7 421.6c0.5-0.3 0.7-1 0.7-1.5 0.1-0.6 0-1.1-0.3-1.6-0.6-1.4-2.3-2-3.7-1.6-2 0.5-2.7 3.1-1.5 4.7 0.8 1 2 1.2 3.1 0.9 0.6-0.1 1.2-0.4 1.7-0.9z"/>
						</g>
						<g id="&lt;Group&gt;">
							<path id="&lt;Path&gt;" fill-rule="evenodd" class="s1" d="m489.9 226.5q0.2 0 0.2-0.2c0.8-3.2-0.7-4.8-1.8-5.5 2.2 0.1 3.7-0.6 3.8-0.6q0.1-0.1 0.1-0.1 0-0.1 0-0.2c-0.7-1.2-2.3-1.8-3.3-2.1 3.8-0.7 5.3-2.6 5.7-3.1q0 0 0-0.1 0 0 0-0.1 0 0 0-0.1 0 0 0 0c-0.4-0.5-1.9-2.4-5.7-3.1 1-0.3 2.6-1 3.3-2.2q0 0 0-0.1 0-0.1-0.1-0.1c-0.1-0.1-1.6-0.8-3.8-0.7 1.1-0.7 2.6-2.2 1.8-5.5q0-0.1-0.2-0.1-0.1 0-0.2 0.1c0 0-0.5 1.5-2.7 2.1-3.1 0.8-5 2.8-5.7 6.1q-0.1 0.1-0.1 0.2 0 0.1 0 0.2 0 0.2-0.1 0.5 0 0 0 0-0.2 1.2-0.2 2.5 0 0 0 0.1v0.1c-0.1 0.1-0.1 0.3 0 0.4q0 1.5 0.3 2.8 0 0.1 0 0.2 0 0.1 0.1 0.1c0.7 3.4 2.6 5.5 5.7 6.2 1.1 0.3 1.8 0.9 2.2 1.3 0.4 0.5 0.5 0.9 0.5 0.9q0.1 0.1 0.2 0.1z"/>
						</g>
						<g id="&lt;Group&gt;">
							<path id="&lt;Path&gt;" fill-rule="evenodd" class="s1" d="m491.4 194.9c0.9-3.2 0.2-7.8-2.8-9.8-5.9-3.9-11.6 8.6-5 9.8 1.6 0.2 2.7-1.9 1.2-2.7-2.6-1.2 0.7-6.5 3.3-3.8 1.5 1.5 1.4 4.5 0.9 6.4-0.9 3.3-3.8 5.1-6 7.5-0.4 0.5 0.1 1.1 0.7 0.9 3.5-1.6 6.7-4.5 7.7-8.3z"/>
						</g>
						<g id="&lt;Group&gt;">
							<path id="&lt;Path&gt;" fill-rule="evenodd" class="s1" d="m491.4 234.2c-1-3.8-4.2-6.8-7.7-8.3-0.6-0.2-1.1 0.4-0.7 0.8 2.2 2.4 5.1 4.3 6 7.6 0.5 1.8 0.6 4.9-0.9 6.3-2.6 2.8-5.9-2.5-3.3-3.8 1.5-0.7 0.4-2.9-1.2-2.6-6.6 1.2-0.9 13.7 5 9.8 3-2 3.7-6.7 2.8-9.8z"/>
						</g>
						<g id="&lt;Group&gt;">
							<path id="&lt;Path&gt;" fill-rule="evenodd" class="s1" d="m488.7 251.2c0.3-1.5-0.5-2.9-2-3.4-1.4-0.5-2.9 0.2-3.4 1.7q0 0.1 0 0.2-0.1 0.4-0.2 0.9c0.1 1.4 1 2.5 2.4 2.7 1.4 0.2 2.9-0.7 3.2-2.1z"/>
						</g>
						<g id="&lt;Group&gt;">
							<path id="&lt;Path&gt;" fill-rule="evenodd" class="s1" d="m488.7 180.6c0.5-0.4 0.7-1 0.7-1.5 0.1-0.7 0-1.1-0.3-1.7-0.6-1.3-2.3-2-3.7-1.6-2 0.6-2.7 3.1-1.5 4.7 0.8 1 2 1.3 3.1 0.9 0.6-0.1 1.2-0.4 1.7-0.8z"/>
						</g>
						<g id="&lt;Group&gt;">
							<path id="&lt;Path&gt;" fill-rule="evenodd" class="s1" d="m489.9 307q0.2 0 0.2-0.1c0.8-3.3-0.7-4.8-1.8-5.5 2.2 0.1 3.7-0.6 3.8-0.7q0.1 0 0.1-0.1 0-0.1 0-0.1c-0.7-1.2-2.3-1.9-3.3-2.2 3.8-0.7 5.3-2.6 5.7-3.1q0 0 0 0 0-0.1 0-0.1 0-0.1 0-0.1 0-0.1 0-0.1c-0.4-0.5-1.9-2.4-5.7-3.1 1-0.3 2.6-0.9 3.3-2.1q0-0.1 0-0.2 0 0-0.1-0.1c-0.1 0-1.6-0.7-3.8-0.6 1.1-0.7 2.6-2.3 1.8-5.5q0-0.2-0.2-0.2-0.1 0-0.2 0.1c0 0-0.5 1.6-2.7 2.2-3.1 0.7-5 2.7-5.7 6q-0.1 0.1-0.1 0.2 0 0.1 0 0.2 0 0.3-0.1 0.6 0 0 0 0-0.2 1.1-0.2 2.5 0 0 0 0v0.2q-0.1 0.2 0 0.3 0 1.6 0.3 2.9 0 0 0 0.1 0 0.1 0.1 0.2c0.7 3.3 2.6 5.4 5.7 6.2 1.1 0.3 1.8 0.9 2.2 1.3 0.4 0.4 0.5 0.8 0.5 0.8q0.1 0.1 0.2 0.1z"/>
						</g>
						<g id="&lt;Group&gt;">
							<path id="&lt;Path&gt;" fill-rule="evenodd" class="s1" d="m491.4 275.4c0.9-3.1 0.2-7.8-2.8-9.8-5.9-3.8-11.6 8.6-5 9.8 1.6 0.3 2.7-1.9 1.2-2.6-2.6-1.3 0.7-6.6 3.3-3.8 1.5 1.5 1.4 4.5 0.9 6.3-0.9 3.3-3.8 5.2-6 7.6-0.4 0.4 0.1 1 0.7 0.8 3.5-1.5 6.7-4.5 7.7-8.3z"/>
						</g>
						<g id="&lt;Group&gt;">
							<path id="&lt;Path&gt;" fill-rule="evenodd" class="s1" d="m491.4 314.7c-1-3.8-4.2-6.7-7.7-8.3-0.6-0.2-1.1 0.4-0.7 0.9 2.2 2.4 5.1 4.2 6 7.5 0.5 1.9 0.6 4.9-0.9 6.4-2.6 2.7-5.9-2.6-3.3-3.8 1.5-0.8 0.4-2.9-1.2-2.7-6.6 1.2-0.9 13.7 5 9.8 3-2 3.7-6.6 2.8-9.8z"/>
						</g>
						<g id="&lt;Group&gt;">
							<path id="&lt;Path&gt;" fill-rule="evenodd" class="s1" d="m488.7 331.7c0.3-1.5-0.5-2.8-2-3.3-1.4-0.5-2.9 0.2-3.4 1.6q0 0.1 0 0.2-0.1 0.5-0.2 0.9c0.1 1.4 1 2.6 2.4 2.8 1.4 0.2 2.9-0.8 3.2-2.2z"/>
						</g>
						<g id="&lt;Group&gt;">
							<path id="&lt;Path&gt;" fill-rule="evenodd" class="s1" d="m488.7 261.1c0.5-0.3 0.7-1 0.7-1.5 0.1-0.6 0-1.1-0.3-1.7-0.6-1.3-2.3-1.9-3.7-1.5-2 0.5-2.7 3.1-1.5 4.7 0.8 1 2 1.2 3.1 0.8 0.6 0 1.2-0.4 1.7-0.8z"/>
						</g>
						<g id="&lt;Group&gt;">
							<path id="&lt;Path&gt;" fill-rule="evenodd" class="s1" d="m489.9 65q0.2 0 0.2-0.1c0.8-3.3-0.7-4.9-1.8-5.6 2.2 0.1 3.7-0.6 3.8-0.6q0.1 0 0.1-0.1 0-0.1 0-0.2c-0.7-1.2-2.3-1.8-3.3-2.1 3.8-0.7 5.3-2.6 5.7-3.1q0 0 0-0.1 0 0 0-0.1 0 0 0 0 0-0.1 0-0.1c-0.4-0.5-1.9-2.4-5.7-3.1 1-0.3 2.6-0.9 3.3-2.1q0-0.1 0-0.2 0-0.1-0.1-0.1c-0.1 0-1.6-0.7-3.8-0.7 1.1-0.6 2.6-2.2 1.8-5.5q0-0.1-0.2-0.1-0.1 0-0.2 0.1c0 0-0.5 1.6-2.7 2.1-3.1 0.8-5 2.8-5.7 6.1q-0.1 0.1-0.1 0.2 0 0.1 0 0.2 0 0.3-0.1 0.5 0 0.1 0 0.1-0.2 1.1-0.2 2.4 0 0.1 0 0.1v0.1 0.1c-0.1 0.1-0.1 0.2 0 0.3q0 1.5 0.3 2.8 0 0.1 0 0.2 0 0.1 0.1 0.1c0.7 3.4 2.6 5.5 5.7 6.3 1.1 0.3 1.8 0.8 2.2 1.2 0.4 0.5 0.5 0.9 0.5 0.9q0.1 0.1 0.2 0.1z"/>
						</g>
						<g id="&lt;Group&gt;">
							<path id="&lt;Path&gt;" fill-rule="evenodd" class="s1" d="m491.4 33.4c0.9-3.2 0.2-7.8-2.8-9.8-5.9-3.9-11.6 8.6-5 9.8 1.6 0.2 2.7-1.9 1.2-2.7-2.6-1.2 0.7-6.5 3.3-3.8 1.5 1.5 1.4 4.6 0.9 6.4-0.9 3.3-3.8 5.1-6 7.5-0.4 0.5 0.1 1.1 0.7 0.9 3.5-1.5 6.7-4.5 7.7-8.3z"/>
						</g>
						<g id="&lt;Group&gt;">
							<path id="&lt;Path&gt;" fill-rule="evenodd" class="s1" d="m491.4 72.7c-1-3.8-4.2-6.8-7.7-8.3-0.6-0.2-1.1 0.4-0.7 0.8 2.2 2.5 5.1 4.3 6 7.6 0.5 1.8 0.6 4.9-0.9 6.4-2.6 2.7-5.9-2.6-3.3-3.8 1.5-0.8 0.4-3-1.2-2.7-6.6 1.2-0.9 13.7 5 9.8 3-2 3.7-6.6 2.8-9.8z"/>
						</g>
						<g id="&lt;Group&gt;">
							<path id="&lt;Path&gt;" fill-rule="evenodd" class="s1" d="m488.7 89.7c0.3-1.5-0.5-2.9-2-3.4-1.4-0.5-2.9 0.3-3.4 1.7q0 0.1 0 0.2-0.1 0.5-0.2 0.9c0.1 1.4 1 2.6 2.4 2.8 1.4 0.1 2.9-0.8 3.2-2.2z"/>
						</g>
						<g id="&lt;Group&gt;">
							<path id="&lt;Path&gt;" fill-rule="evenodd" class="s1" d="m488.7 19.1c0.5-0.4 0.7-1 0.7-1.5 0.1-0.6 0-1.1-0.3-1.7-0.6-1.3-2.3-1.9-3.7-1.6-2 0.6-2.7 3.1-1.5 4.8 0.8 1 2 1.2 3.1 0.8 0.6-0.1 1.2-0.4 1.7-0.8z"/>
						</g>
						<g id="&lt;Group&gt;">
							<path id="&lt;Path&gt;" fill-rule="evenodd" class="s1" d="m489.9 145.6q0.2-0.1 0.2-0.2c0.8-3.3-0.7-4.8-1.8-5.5 2.2 0.1 3.7-0.6 3.8-0.6q0.1-0.1 0.1-0.2 0 0 0-0.1c-0.7-1.2-2.3-1.9-3.3-2.2 3.8-0.6 5.3-2.5 5.7-3q0-0.1 0-0.1 0-0.1 0-0.1 0 0 0-0.1 0-0.1 0-0.1c-0.4-0.5-1.9-2.4-5.7-3 1-0.3 2.6-1 3.3-2.2q0-0.1 0-0.1 0-0.1-0.1-0.2c-0.1 0-1.6-0.7-3.8-0.6 1.1-0.7 2.6-2.3 1.8-5.5q0-0.2-0.2-0.2-0.1 0-0.2 0.2c0 0-0.5 1.5-2.7 2.1-3.1 0.8-5 2.8-5.7 6q-0.1 0.1-0.1 0.2 0 0.2 0 0.2 0 0.3-0.1 0.6 0 0 0 0-0.2 1.2-0.2 2.5 0 0 0 0v0.2q-0.1 0.2 0 0.3 0 1.6 0.3 2.9 0 0.1 0 0.2 0 0 0.1 0.1c0.7 3.4 2.6 5.4 5.7 6.2 1.1 0.3 1.8 0.9 2.2 1.3 0.4 0.4 0.5 0.8 0.5 0.8q0.1 0.2 0.2 0.2z"/>
						</g>
						<g id="&lt;Group&gt;">
							<path id="&lt;Path&gt;" fill-rule="evenodd" class="s1" d="m491.4 114c0.9-3.2 0.2-7.9-2.8-9.8-5.9-3.9-11.6 8.5-5 9.7 1.6 0.3 2.7-1.9 1.2-2.6-2.6-1.3 0.7-6.6 3.3-3.8 1.5 1.5 1.4 4.5 0.9 6.3-0.9 3.4-3.8 5.2-6 7.6-0.4 0.5 0.1 1.1 0.7 0.8 3.5-1.5 6.7-4.5 7.7-8.2z"/>
						</g>
						<g id="&lt;Group&gt;">
							<path id="&lt;Path&gt;" fill-rule="evenodd" class="s1" d="m491.4 153.2c-1-3.7-4.2-6.7-7.7-8.2-0.6-0.3-1.1 0.3-0.7 0.8 2.2 2.4 5.1 4.2 6 7.5 0.5 1.9 0.6 4.9-0.9 6.4-2.6 2.7-5.9-2.6-3.3-3.8 1.5-0.8 0.4-2.9-1.2-2.6-6.6 1.2-0.9 13.6 5 9.7 3-1.9 3.7-6.6 2.8-9.8z"/>
						</g>
						<g id="&lt;Group&gt;">
							<path id="&lt;Path&gt;" fill-rule="evenodd" class="s1" d="m488.7 170.3c0.3-1.5-0.5-2.9-2-3.4-1.4-0.5-2.9 0.2-3.4 1.6q0 0.2 0 0.3-0.1 0.4-0.2 0.8c0.1 1.5 1 2.6 2.4 2.8 1.4 0.2 2.9-0.8 3.2-2.1z"/>
						</g>
						<g id="&lt;Group&gt;">
							<path id="&lt;Path&gt;" fill-rule="evenodd" class="s1" d="m488.7 99.6c0.5-0.3 0.7-1 0.7-1.5 0.1-0.6 0-1.1-0.3-1.6-0.6-1.4-2.3-2-3.7-1.6-2 0.5-2.7 3.1-1.5 4.7 0.8 1 2 1.2 3.1 0.9 0.6-0.1 1.2-0.4 1.7-0.9z"/>
						</g>
					</g>
					<g id="&lt;Group&gt;">
						<g id="&lt;Group&gt;">
							<path id="&lt;Path&gt;" fill-rule="evenodd" class="s1" d="m10.1 113q-0.2 0-0.2 0.1c-0.8 3.3 0.7 4.9 1.8 5.5-2.2 0-3.7 0.7-3.8 0.7q-0.1 0-0.1 0.1 0 0.1 0 0.2c0.7 1.2 2.3 1.8 3.3 2.1-3.8 0.7-5.3 2.6-5.7 3.1q0 0 0 0.1 0 0 0 0 0 0.1 0 0.1 0 0.1 0 0.1c0.4 0.5 1.9 2.4 5.7 3.1-1 0.3-2.6 0.9-3.3 2.1q0 0.1 0 0.2 0 0.1 0.1 0.1c0.1 0 1.6 0.7 3.8 0.6-1.1 0.7-2.6 2.3-1.8 5.6q0 0.1 0.2 0.1 0.1 0 0.2-0.1c0 0 0.5-1.6 2.7-2.1 3.1-0.8 5-2.8 5.7-6.1q0.1-0.1 0.1-0.2 0-0.1 0-0.2 0-0.3 0.1-0.6 0 0 0 0 0.2-1.1 0.2-2.5 0 0 0 0v-0.2c0.1-0.1 0.1-0.2 0-0.3q0-1.5-0.3-2.8 0-0.1 0-0.2 0-0.1-0.1-0.1c-0.7-3.4-2.6-5.5-5.7-6.3-1.1-0.3-1.8-0.8-2.2-1.2-0.4-0.5-0.5-0.9-0.5-0.9q-0.1-0.1-0.2-0.1z"/>
						</g>
						<g id="&lt;Group&gt;">
							<path id="&lt;Path&gt;" fill-rule="evenodd" class="s1" d="m8.6 144.6c-0.9 3.2-0.2 7.8 2.8 9.8 5.9 3.9 11.6-8.6 5-9.8-1.6-0.3-2.7 1.9-1.2 2.7 2.6 1.2-0.7 6.5-3.3 3.8-1.5-1.5-1.4-4.6-0.9-6.4 0.9-3.3 3.8-5.1 6-7.6 0.4-0.4-0.1-1-0.7-0.8-3.5 1.5-6.7 4.5-7.7 8.3z"/>
						</g>
						<g id="&lt;Group&gt;">
							<path id="&lt;Path&gt;" fill-rule="evenodd" class="s1" d="m8.6 105.3c1 3.8 4.2 6.7 7.7 8.3 0.6 0.2 1.1-0.4 0.7-0.9-2.2-2.4-5.1-4.2-6-7.5-0.5-1.8-0.6-4.9 0.9-6.4 2.6-2.7 5.9 2.6 3.3 3.8-1.5 0.8-0.4 2.9 1.2 2.7 6.6-1.2 0.9-13.7-5-9.8-3 2-3.7 6.6-2.8 9.8z"/>
						</g>
						<g id="&lt;Group&gt;">
							<path id="&lt;Path&gt;" fill-rule="evenodd" class="s1" d="m11.3 88.3c-0.3 1.5 0.5 2.8 2 3.4 1.4 0.4 2.9-0.3 3.4-1.7q0-0.1 0-0.2 0.1-0.5 0.2-0.9c-0.1-1.4-1-2.6-2.4-2.8-1.4-0.1-2.9 0.8-3.2 2.2z"/>
						</g>
						<g id="&lt;Group&gt;">
							<path id="&lt;Path&gt;" fill-rule="evenodd" class="s1" d="m11.3 158.9c-0.5 0.4-0.7 1-0.7 1.5-0.1 0.6 0 1.1 0.3 1.7 0.6 1.3 2.3 1.9 3.7 1.6 2-0.6 2.7-3.1 1.5-4.8-0.8-1-2-1.2-3.1-0.8-0.6 0.1-1.2 0.4-1.7 0.8z"/>
						</g>
						<g id="&lt;Group&gt;">
							<path id="&lt;Path&gt;" fill-rule="evenodd" class="s1" d="m10.1 32.4q-0.2 0-0.2 0.2c-0.8 3.3 0.7 4.8 1.8 5.5-2.2-0.1-3.7 0.6-3.8 0.6q-0.1 0.1-0.1 0.2 0 0 0 0.1c0.7 1.2 2.3 1.9 3.3 2.2-3.8 0.6-5.3 2.5-5.7 3q0 0.1 0 0.1 0 0.1 0 0.1 0 0 0 0.1 0 0 0 0.1c0.4 0.5 1.9 2.4 5.7 3-1 0.3-2.6 1-3.3 2.2q0 0.1 0 0.1 0 0.1 0.1 0.2c0.1 0 1.6 0.7 3.8 0.6-1.1 0.7-2.6 2.2-1.8 5.5q0 0.2 0.2 0.2 0.1 0 0.2-0.2c0 0 0.5-1.5 2.7-2.1 3.1-0.8 5-2.8 5.7-6q0.1-0.1 0.1-0.2 0-0.2 0-0.2 0-0.3 0.1-0.6 0 0 0 0 0.2-1.2 0.2-2.5 0 0 0 0v-0.2q0.1-0.2 0-0.3 0-1.6-0.3-2.9 0-0.1 0-0.2 0 0-0.1-0.1c-0.7-3.4-2.6-5.4-5.7-6.2-1.1-0.3-1.8-0.9-2.2-1.3-0.4-0.4-0.5-0.8-0.5-0.8q-0.1-0.2-0.2-0.2z"/>
						</g>
						<g id="&lt;Group&gt;">
							<path id="&lt;Path&gt;" fill-rule="evenodd" class="s1" d="m8.6 64c-0.9 3.2-0.2 7.9 2.8 9.8 5.9 3.9 11.6-8.5 5-9.7-1.6-0.3-2.7 1.9-1.2 2.6 2.6 1.2-0.7 6.5-3.3 3.8-1.5-1.5-1.4-4.5-0.9-6.3 0.9-3.4 3.8-5.2 6-7.6 0.4-0.5-0.1-1.1-0.7-0.8-3.5 1.5-6.7 4.5-7.7 8.2z"/>
						</g>
						<g id="&lt;Group&gt;">
							<path id="&lt;Path&gt;" fill-rule="evenodd" class="s1" d="m8.6 24.8c1 3.7 4.2 6.7 7.7 8.2 0.6 0.3 1.1-0.3 0.7-0.8-2.2-2.4-5.1-4.2-6-7.6-0.5-1.8-0.6-4.8 0.9-6.3 2.6-2.7 5.9 2.6 3.3 3.8-1.5 0.7-0.4 2.9 1.2 2.6 6.6-1.2 0.9-13.6-5-9.7-3 1.9-3.7 6.6-2.8 9.8z"/>
						</g>
						<g id="&lt;Group&gt;">
							<path id="&lt;Path&gt;" fill-rule="evenodd" class="s1" d="m11.3 78.4c-0.5 0.3-0.7 1-0.7 1.5-0.1 0.6 0 1.1 0.3 1.6 0.6 1.4 2.3 2 3.7 1.6 2-0.5 2.7-3.1 1.5-4.7-0.8-1-2-1.2-3.1-0.9-0.6 0.1-1.2 0.4-1.7 0.9z"/>
						</g>
						<g id="&lt;Group&gt;">
							<path id="&lt;Path&gt;" fill-rule="evenodd" class="s1" d="m10.1 273.5q-0.2 0-0.2 0.2c-0.8 3.2 0.7 4.8 1.8 5.5-2.2-0.1-3.7 0.6-3.8 0.6q-0.1 0.1-0.1 0.1 0 0.1 0 0.2c0.7 1.2 2.3 1.8 3.3 2.1-3.8 0.7-5.3 2.6-5.7 3.1q0 0 0 0.1 0 0 0 0.1 0 0 0 0.1 0 0 0 0c0.4 0.5 1.9 2.4 5.7 3.1-1 0.3-2.6 1-3.3 2.2q0 0 0 0.1 0 0.1 0.1 0.1c0.1 0.1 1.6 0.8 3.8 0.7-1.1 0.7-2.6 2.2-1.8 5.5q0 0.1 0.2 0.1 0.1 0 0.2-0.1c0 0 0.5-1.5 2.7-2.1 3.1-0.8 5-2.8 5.7-6.1q0.1-0.1 0.1-0.2 0-0.1 0-0.2 0-0.2 0.1-0.5 0 0 0 0 0.2-1.2 0.2-2.5 0 0 0-0.1v-0.1c0.1-0.1 0.1-0.3 0-0.4q0-1.5-0.3-2.8 0-0.1 0-0.2 0-0.1-0.1-0.1c-0.7-3.4-2.6-5.5-5.7-6.2-1.1-0.3-1.8-0.9-2.2-1.3-0.4-0.5-0.5-0.9-0.5-0.9q-0.1-0.1-0.2-0.1z"/>
						</g>
						<g id="&lt;Group&gt;">
							<path id="&lt;Path&gt;" fill-rule="evenodd" class="s1" d="m8.6 305.1c-0.9 3.2-0.2 7.8 2.8 9.8 5.9 3.9 11.6-8.6 5-9.8-1.6-0.2-2.7 1.9-1.2 2.7 2.6 1.2-0.7 6.5-3.3 3.8-1.5-1.5-1.4-4.5-0.9-6.4 0.9-3.3 3.8-5.1 6-7.5 0.4-0.5-0.1-1.1-0.7-0.9-3.5 1.6-6.7 4.5-7.7 8.3z"/>
						</g>
						<g id="&lt;Group&gt;">
							<path id="&lt;Path&gt;" fill-rule="evenodd" class="s1" d="m8.6 265.8c1 3.8 4.2 6.8 7.7 8.3 0.6 0.2 1.1-0.4 0.7-0.8-2.2-2.4-5.1-4.3-6-7.6-0.5-1.8-0.6-4.9 0.9-6.3 2.6-2.8 5.9 2.5 3.3 3.8-1.5 0.7-0.4 2.9 1.2 2.6 6.6-1.2 0.9-13.7-5-9.8-3 2-3.7 6.7-2.8 9.8z"/>
						</g>
						<g id="&lt;Group&gt;">
							<path id="&lt;Path&gt;" fill-rule="evenodd" class="s1" d="m11.3 248.8c-0.3 1.5 0.5 2.9 2 3.4 1.4 0.5 2.9-0.2 3.4-1.7q0-0.1 0-0.2 0.1-0.4 0.2-0.9c-0.1-1.4-1-2.5-2.4-2.7-1.4-0.2-2.9 0.7-3.2 2.1z"/>
						</g>
						<g id="&lt;Group&gt;">
							<path id="&lt;Path&gt;" fill-rule="evenodd" class="s1" d="m11.3 319.4c-0.5 0.4-0.7 1-0.7 1.5-0.1 0.7 0 1.1 0.3 1.7 0.6 1.3 2.3 2 3.7 1.6 2-0.6 2.7-3.1 1.5-4.7-0.8-1-2-1.3-3.1-0.9-0.6 0.1-1.2 0.4-1.7 0.8z"/>
						</g>
						<g id="&lt;Group&gt;">
							<path id="&lt;Path&gt;" fill-rule="evenodd" class="s1" d="m10.1 193q-0.2 0-0.2 0.1c-0.8 3.3 0.7 4.8 1.8 5.5-2.2-0.1-3.7 0.6-3.8 0.7q-0.1 0-0.1 0.1 0 0.1 0 0.1c0.7 1.2 2.3 1.9 3.3 2.2-3.8 0.7-5.3 2.6-5.7 3.1q0 0 0 0 0 0.1 0 0.1 0 0.1 0 0.1 0 0.1 0 0.1c0.4 0.5 1.9 2.4 5.7 3.1-1 0.3-2.6 0.9-3.3 2.1q0 0.1 0 0.2 0 0 0.1 0.1c0.1 0 1.6 0.7 3.8 0.6-1.1 0.7-2.6 2.3-1.8 5.5q0 0.2 0.2 0.2 0.1 0 0.2-0.1c0-0.1 0.5-1.6 2.7-2.2 3.1-0.7 5-2.7 5.7-6q0.1-0.1 0.1-0.2 0-0.1 0-0.2 0-0.3 0.1-0.6 0 0 0 0 0.2-1.1 0.2-2.5 0 0 0 0v-0.2q0.1-0.2 0-0.3 0-1.6-0.3-2.9 0 0 0-0.1 0-0.1-0.1-0.2c-0.7-3.3-2.6-5.4-5.7-6.2-1.1-0.3-1.8-0.9-2.2-1.3-0.4-0.4-0.5-0.8-0.5-0.8q-0.1-0.1-0.2-0.1z"/>
						</g>
						<g id="&lt;Group&gt;">
							<path id="&lt;Path&gt;" fill-rule="evenodd" class="s1" d="m8.6 224.6c-0.9 3.1-0.2 7.8 2.8 9.8 5.9 3.8 11.6-8.6 5-9.8-1.6-0.3-2.7 1.9-1.2 2.6 2.6 1.3-0.7 6.6-3.3 3.8-1.5-1.5-1.4-4.5-0.9-6.3 0.9-3.3 3.8-5.2 6-7.6 0.4-0.4-0.1-1-0.7-0.8-3.5 1.5-6.7 4.5-7.7 8.3z"/>
						</g>
						<g id="&lt;Group&gt;">
							<path id="&lt;Path&gt;" fill-rule="evenodd" class="s1" d="m8.6 185.3c1 3.8 4.2 6.7 7.7 8.3 0.6 0.2 1.1-0.4 0.7-0.9-2.2-2.4-5.1-4.2-6-7.5-0.5-1.9-0.6-4.9 0.9-6.4 2.6-2.7 5.9 2.6 3.3 3.8-1.5 0.8-0.4 2.9 1.2 2.7 6.6-1.2 0.9-13.7-5-9.8-3 2-3.7 6.6-2.8 9.8z"/>
						</g>
						<g id="&lt;Group&gt;">
							<path id="&lt;Path&gt;" fill-rule="evenodd" class="s1" d="m11.3 168.3c-0.3 1.5 0.5 2.8 2 3.3 1.4 0.5 2.9-0.2 3.4-1.6q0-0.1 0-0.2 0.1-0.5 0.2-0.9c-0.1-1.4-1-2.6-2.4-2.8-1.4-0.2-2.9 0.8-3.2 2.2z"/>
						</g>
						<g id="&lt;Group&gt;">
							<path id="&lt;Path&gt;" fill-rule="evenodd" class="s1" d="m11.3 238.9c-0.5 0.3-0.7 1-0.7 1.5-0.1 0.6 0 1.1 0.3 1.7 0.6 1.3 2.3 1.9 3.7 1.5 2-0.5 2.7-3.1 1.5-4.7-0.8-1-2-1.2-3.1-0.8-0.6 0-1.2 0.4-1.7 0.8z"/>
						</g>
						<g id="&lt;Group&gt;">
							<path id="&lt;Path&gt;" fill-rule="evenodd" class="s1" d="m10.1 435q-0.2 0-0.2 0.1c-0.8 3.3 0.7 4.9 1.8 5.6-2.2-0.1-3.7 0.6-3.8 0.6q-0.1 0-0.1 0.1 0 0.1 0 0.2c0.7 1.2 2.3 1.8 3.3 2.1-3.8 0.7-5.3 2.6-5.7 3.1q0 0 0 0.1 0 0 0 0.1 0 0 0 0 0 0.1 0 0.1c0.4 0.5 1.9 2.4 5.7 3.1-1 0.3-2.6 0.9-3.3 2.1q0 0.1 0 0.2 0 0.1 0.1 0.1c0.1 0 1.6 0.7 3.8 0.7-1.1 0.6-2.6 2.2-1.8 5.5q0 0.1 0.2 0.1 0.1 0 0.2-0.1c0 0 0.5-1.6 2.7-2.1 3.1-0.8 5-2.8 5.7-6.1q0.1-0.1 0.1-0.2 0-0.1 0-0.2 0-0.3 0.1-0.5 0-0.1 0-0.1 0.2-1.1 0.2-2.4 0-0.1 0-0.1v-0.1-0.1c0.1-0.1 0.1-0.2 0-0.3q0-1.5-0.3-2.8 0-0.1 0-0.2 0-0.1-0.1-0.1c-0.7-3.4-2.6-5.5-5.7-6.3-1.1-0.3-1.8-0.8-2.2-1.2-0.4-0.5-0.5-0.9-0.5-0.9q-0.1-0.1-0.2-0.1z"/>
						</g>
						<g id="&lt;Group&gt;">
							<path id="&lt;Path&gt;" fill-rule="evenodd" class="s1" d="m8.6 466.6c-0.9 3.2-0.2 7.8 2.8 9.8 5.9 3.9 11.6-8.6 5-9.8-1.6-0.2-2.7 1.9-1.2 2.7 2.6 1.2-0.7 6.5-3.3 3.8-1.5-1.5-1.4-4.6-0.9-6.4 0.9-3.3 3.8-5.1 6-7.5 0.4-0.5-0.1-1.1-0.7-0.9-3.5 1.5-6.7 4.5-7.7 8.3z"/>
						</g>
						<g id="&lt;Group&gt;">
							<path id="&lt;Path&gt;" fill-rule="evenodd" class="s1" d="m8.6 427.3c1 3.8 4.2 6.8 7.7 8.3 0.6 0.2 1.1-0.4 0.7-0.8-2.2-2.5-5.1-4.3-6-7.6-0.5-1.8-0.6-4.9 0.9-6.4 2.6-2.7 5.9 2.6 3.3 3.8-1.5 0.8-0.4 3 1.2 2.7 6.6-1.2 0.9-13.7-5-9.8-3 2-3.7 6.6-2.8 9.8z"/>
						</g>
						<g id="&lt;Group&gt;">
							<path id="&lt;Path&gt;" fill-rule="evenodd" class="s1" d="m11.3 410.3c-0.3 1.5 0.5 2.9 2 3.4 1.4 0.5 2.9-0.3 3.4-1.7q0-0.1 0-0.2 0.1-0.5 0.2-0.9c-0.1-1.4-1-2.6-2.4-2.8-1.4-0.1-2.9 0.8-3.2 2.2z"/>
						</g>
						<g id="&lt;Group&gt;">
							<path id="&lt;Path&gt;" fill-rule="evenodd" class="s1" d="m11.3 480.9c-0.5 0.4-0.7 1-0.7 1.5-0.1 0.6 0 1.1 0.3 1.7 0.6 1.3 2.3 1.9 3.7 1.6 2-0.6 2.7-3.1 1.5-4.8-0.8-1-2-1.2-3.1-0.8-0.6 0.1-1.2 0.4-1.7 0.8z"/>
						</g>
						<g id="&lt;Group&gt;">
							<path id="&lt;Path&gt;" fill-rule="evenodd" class="s1" d="m10.1 354.4q-0.2 0.1-0.2 0.2c-0.8 3.3 0.7 4.8 1.8 5.5-2.2-0.1-3.7 0.6-3.8 0.6q-0.1 0.1-0.1 0.2 0 0 0 0.1c0.7 1.2 2.3 1.9 3.3 2.2-3.8 0.6-5.3 2.5-5.7 3q0 0.1 0 0.1 0 0.1 0 0.1 0 0 0 0.1 0 0 0 0.1c0.4 0.5 1.9 2.4 5.7 3-1 0.3-2.6 1-3.3 2.2q0 0.1 0 0.1 0 0.1 0.1 0.2c0.1 0 1.6 0.7 3.8 0.6-1.1 0.7-2.6 2.3-1.8 5.5q0 0.2 0.2 0.2 0.1 0 0.2-0.2c0 0 0.5-1.5 2.7-2.1 3.1-0.8 5-2.8 5.7-6q0.1-0.1 0.1-0.2 0-0.2 0-0.2 0-0.3 0.1-0.6 0 0 0 0 0.2-1.2 0.2-2.5 0 0 0 0v-0.2q0.1-0.2 0-0.3 0-1.6-0.3-2.9 0-0.1 0-0.2 0 0-0.1-0.1c-0.7-3.4-2.6-5.4-5.7-6.2-1.1-0.3-1.8-0.9-2.2-1.3-0.4-0.4-0.5-0.8-0.5-0.8q-0.1-0.2-0.2-0.2z"/>
						</g>
						<g id="&lt;Group&gt;">
							<path id="&lt;Path&gt;" fill-rule="evenodd" class="s1" d="m8.6 386c-0.9 3.2-0.2 7.9 2.8 9.8 5.9 3.9 11.6-8.5 5-9.7-1.6-0.3-2.7 1.9-1.2 2.6 2.6 1.3-0.7 6.6-3.3 3.8-1.5-1.5-1.4-4.5-0.9-6.3 0.9-3.4 3.8-5.2 6-7.6 0.4-0.5-0.1-1.1-0.7-0.8-3.5 1.5-6.7 4.5-7.7 8.2z"/>
						</g>
						<g id="&lt;Group&gt;">
							<path id="&lt;Path&gt;" fill-rule="evenodd" class="s1" d="m8.6 346.8c1 3.7 4.2 6.7 7.7 8.2 0.6 0.3 1.1-0.3 0.7-0.8-2.2-2.4-5.1-4.2-6-7.5-0.5-1.9-0.6-4.9 0.9-6.4 2.6-2.7 5.9 2.6 3.3 3.8-1.5 0.8-0.4 2.9 1.2 2.6 6.6-1.2 0.9-13.6-5-9.7-3 1.9-3.7 6.6-2.8 9.8z"/>
						</g>
						<g id="&lt;Group&gt;">
							<path id="&lt;Path&gt;" fill-rule="evenodd" class="s1" d="m11.3 329.7c-0.3 1.5 0.5 2.9 2 3.4 1.4 0.5 2.9-0.2 3.4-1.6q0-0.2 0-0.3 0.1-0.4 0.2-0.8c-0.1-1.5-1-2.6-2.4-2.8-1.4-0.2-2.9 0.8-3.2 2.1z"/>
						</g>
						<g id="&lt;Group&gt;">
							<path id="&lt;Path&gt;" fill-rule="evenodd" class="s1" d="m11.3 400.4c-0.5 0.3-0.7 1-0.7 1.5-0.1 0.6 0 1.1 0.3 1.6 0.6 1.4 2.3 2 3.7 1.6 2-0.5 2.7-3.1 1.5-4.7-0.8-1-2-1.2-3.1-0.9-0.6 0.1-1.2 0.4-1.7 0.9z"/>
						</g>
					</g>
				</g>
			</g>
		</g>
	</g>
</svg>