<?xml version="1.0" encoding="UTF-8" standalone="no"?>
<!-- Created with Inkscape (http://www.inkscape.org/) -->

<svg
   version="1.1"
   id="svg1"
   width="116.49814"
   height="116.48761"
   viewBox="0 0 116.49814 116.48761"
   sodipodi:docname="5534258.ai"
   xmlns:inkscape="http://www.inkscape.org/namespaces/inkscape"
   xmlns:sodipodi="http://sodipodi.sourceforge.net/DTD/sodipodi-0.dtd"
   xmlns="http://www.w3.org/2000/svg"
   xmlns:svg="http://www.w3.org/2000/svg">
  <defs
     id="defs1">
    <clipPath
       clipPathUnits="userSpaceOnUse"
       id="clipPath132">
      <path
         d="M 0,500 H 500 V 0 H 0 Z"
         transform="translate(-45.308701,-50.726301)"
         id="path132" />
    </clipPath>
    <clipPath
       clipPathUnits="userSpaceOnUse"
       id="clipPath134">
      <path
         d="M 0,500 H 500 V 0 H 0 Z"
         transform="translate(-44.437101,-50.696999)"
         id="path134" />
    </clipPath>
    <clipPath
       clipPathUnits="userSpaceOnUse"
       id="clipPath136">
      <path
         d="M 0,500 H 500 V 0 H 0 Z"
         transform="translate(-44.095801,-51.175499)"
         id="path136" />
    </clipPath>
    <clipPath
       clipPathUnits="userSpaceOnUse"
       id="clipPath138">
      <path
         d="M 0,500 H 500 V 0 H 0 Z"
         transform="translate(-45.308701,-70.726304)"
         id="path138" />
    </clipPath>
    <clipPath
       clipPathUnits="userSpaceOnUse"
       id="clipPath140">
      <path
         d="M 0,500 H 500 V 0 H 0 Z"
         transform="translate(-44.437101,-70.697002)"
         id="path140" />
    </clipPath>
    <clipPath
       clipPathUnits="userSpaceOnUse"
       id="clipPath258">
      <path
         d="M 0,500 H 500 V 0 H 0 Z"
         transform="translate(-50.726201,-45.309299)"
         id="path258" />
    </clipPath>
    <clipPath
       clipPathUnits="userSpaceOnUse"
       id="clipPath260">
      <path
         d="M 0,500 H 500 V 0 H 0 Z"
         transform="translate(-42.621201,-30.186201)"
         id="path260" />
    </clipPath>
    <clipPath
       clipPathUnits="userSpaceOnUse"
       id="clipPath580">
      <path
         d="M 0,500 H 500 V 0 H 0 Z"
         transform="translate(-32.431301,-10.0622)"
         id="path580" />
    </clipPath>
    <clipPath
       clipPathUnits="userSpaceOnUse"
       id="clipPath584">
      <path
         d="M 0,500 H 500 V 0 H 0 Z"
         transform="translate(-24.762301,-8.5729027)"
         id="path584" />
    </clipPath>
    <clipPath
       clipPathUnits="userSpaceOnUse"
       id="clipPath724">
      <path
         d="M 0,500 H 500 V 0 H 0 Z"
         transform="translate(-10.0617,-65.015302)"
         id="path724" />
    </clipPath>
    <clipPath
       clipPathUnits="userSpaceOnUse"
       id="clipPath726">
      <path
         d="M 0,500 H 500 V 0 H 0 Z"
         transform="translate(-8.5729,-33.408898)"
         id="path726" />
    </clipPath>
    <clipPath
       clipPathUnits="userSpaceOnUse"
       id="clipPath732">
      <path
         d="M 0,500 H 500 V 0 H 0 Z"
         transform="translate(-11.273601,-19.0778)"
         id="path732" />
    </clipPath>
    <clipPath
       clipPathUnits="userSpaceOnUse"
       id="clipPath804">
      <path
         d="M 0,500 H 500 V 0 H 0 Z"
         transform="translate(-69.240902,-16.810198)"
         id="path804" />
    </clipPath>
    <clipPath
       clipPathUnits="userSpaceOnUse"
       id="clipPath806">
      <path
         d="M 0,500 H 500 V 0 H 0 Z"
         transform="translate(-26.369301,-26.590498)"
         id="path806" />
    </clipPath>
    <clipPath
       clipPathUnits="userSpaceOnUse"
       id="clipPath808">
      <path
         d="M 0,500 H 500 V 0 H 0 Z"
         transform="translate(-59.225701,-22.202803)"
         id="path808" />
    </clipPath>
    <clipPath
       clipPathUnits="userSpaceOnUse"
       id="clipPath810">
      <path
         d="M 0,500 H 500 V 0 H 0 Z"
         transform="translate(-22.183701,-22.023103)"
         id="path810" />
    </clipPath>
    <clipPath
       clipPathUnits="userSpaceOnUse"
       id="clipPath812">
      <path
         d="M 0,500 H 500 V 0 H 0 Z"
         transform="translate(-10.697901,-48.236999)"
         id="path812" />
    </clipPath>
    <clipPath
       clipPathUnits="userSpaceOnUse"
       id="clipPath814">
      <path
         d="M 0,500 H 500 V 0 H 0 Z"
         transform="translate(-16.4049,-71.683304)"
         id="path814" />
    </clipPath>
    <clipPath
       clipPathUnits="userSpaceOnUse"
       id="clipPath816">
      <path
         d="M 0,500 H 500 V 0 H 0 Z"
         transform="translate(-24.911301,-25.395201)"
         id="path816" />
    </clipPath>
    <clipPath
       clipPathUnits="userSpaceOnUse"
       id="clipPath818">
      <path
         d="M 0,500 H 500 V 0 H 0 Z"
         transform="translate(-32.217901,-64.193999)"
         id="path818" />
    </clipPath>
    <clipPath
       clipPathUnits="userSpaceOnUse"
       id="clipPath820">
      <path
         d="M 0,500 H 500 V 0 H 0 Z"
         transform="translate(-46.007901,-39.919603)"
         id="path820" />
    </clipPath>
    <clipPath
       clipPathUnits="userSpaceOnUse"
       id="clipPath822">
      <path
         d="M 0,500 H 500 V 0 H 0 Z"
         transform="translate(-57.196901,-55.792701)"
         id="path822" />
    </clipPath>
    <clipPath
       clipPathUnits="userSpaceOnUse"
       id="clipPath824">
      <path
         d="M 0,500 H 500 V 0 H 0 Z"
         transform="translate(-27.744301,-28.237003)"
         id="path824" />
    </clipPath>
    <clipPath
       clipPathUnits="userSpaceOnUse"
       id="clipPath826">
      <path
         d="M 0,500 H 500 V 0 H 0 Z"
         transform="translate(-55.136401,-57.580701)"
         id="path826" />
    </clipPath>
    <clipPath
       clipPathUnits="userSpaceOnUse"
       id="clipPath828">
      <path
         d="M 0,500 H 500 V 0 H 0 Z"
         transform="translate(-1e-4,-41.261399)"
         id="path828" />
    </clipPath>
    <clipPath
       clipPathUnits="userSpaceOnUse"
       id="clipPath830">
      <path
         d="M 0,500 H 500 V 0 H 0 Z"
         transform="translate(-2.6764,-11.5925)"
         id="path830" />
    </clipPath>
    <clipPath
       clipPathUnits="userSpaceOnUse"
       id="clipPath832">
      <path
         d="M 0,500 H 500 V 0 H 0 Z"
         transform="translate(-4.8156001,-5.2858026)"
         id="path832" />
    </clipPath>
  </defs>
  <sodipodi:namedview
     id="namedview1"
     pagecolor="#ffffff"
     bordercolor="#000000"
     borderopacity="0.25"
     inkscape:showpageshadow="2"
     inkscape:pageopacity="0.0"
     inkscape:pagecheckerboard="0"
     inkscape:deskcolor="#d1d1d1" />
  <g
     id="layer-MC1"
     inkscape:groupmode="layer"
     inkscape:label="OBJECTS"
     style="display:inline"
     transform="translate(-1.3333333e-4,-549.51184)">
    <path
       id="path131"
       d="M 0,0 C 0,0 -14.136,12.663 -28.573,4.876 -43.01,-2.911 -22.583,-9.976 -15.031,-8.679 -7.478,-7.382 0,0 0,0"
       style="fill:#ca0d4b;fill-opacity:1;fill-rule:nonzero;stroke:none"
       transform="matrix(1.3333333,0,0,-1.3333333,60.4116,599.0316)"
       clip-path="url(#clipPath132)" />
    <path
       id="path133"
       d="m 0,0 c -2.589,2.076 -14.999,11.101 -27.435,4.393 -2.532,-1.366 -5.385,-3.502 -4.589,-5.914 1.411,-4.275 12.637,-7.437 17.773,-6.554 C -8.028,-7.008 -1.744,-1.599 0,0 m -33.215,0.23 c 0.428,1.798 2.184,3.536 5.248,5.189 C -13.348,13.304 1.108,0.595 1.253,0.466 1.372,0.359 1.441,0.207 1.445,0.045 1.448,-0.117 1.384,-0.272 1.27,-0.386 0.959,-0.693 -6.425,-7.91 -14.067,-9.223 c -5.641,-0.967 -17.404,2.353 -19.044,7.327 -0.237,0.716 -0.271,1.426 -0.104,2.126"
       style="fill:#540e36;fill-opacity:1;fill-rule:nonzero;stroke:none"
       transform="matrix(1.3333333,0,0,-1.3333333,59.249467,599.07067)"
       clip-path="url(#clipPath134)" />
    <path
       id="path135"
       d="m 0,0 c -5.38,0.029 -10.767,0.142 -16.145,0.138 -4.876,-0.004 -10.501,0.427 -15.187,-0.464 -0.727,-0.139 -0.703,-1.194 0.108,-1.317 4.901,-0.738 10.366,-0.146 15.234,0.005 5.367,0.166 10.715,0.449 16.076,0.647 C 0.829,-0.964 0.759,-0.004 0,0"
       style="fill:#540e36;fill-opacity:1;fill-rule:nonzero;stroke:none"
       transform="matrix(1.3333333,0,0,-1.3333333,58.7944,598.43267)"
       clip-path="url(#clipPath136)" />
    <path
       id="path137"
       d="M 0,0 C 0,0 -14.136,12.663 -28.573,4.876 -43.01,-2.911 -22.583,-9.976 -15.031,-8.679 -7.478,-7.382 0,0 0,0"
       style="fill:#ca0d4b;fill-opacity:1;fill-rule:nonzero;stroke:none"
       transform="matrix(1.3333333,0,0,-1.3333333,60.4116,572.36493)"
       clip-path="url(#clipPath138)" />
    <path
       id="path139"
       d="m 0,0 c -2.589,2.076 -14.999,11.101 -27.435,4.393 -2.532,-1.366 -5.385,-3.502 -4.589,-5.914 1.411,-4.275 12.637,-7.437 17.773,-6.554 C -8.028,-7.008 -1.744,-1.599 0,0 m -33.215,0.23 c 0.428,1.798 2.184,3.536 5.248,5.189 C -13.348,13.304 1.108,0.595 1.253,0.466 1.372,0.359 1.441,0.207 1.445,0.045 1.448,-0.117 1.384,-0.272 1.27,-0.386 0.959,-0.693 -6.425,-7.91 -14.067,-9.223 c -5.641,-0.967 -17.404,2.353 -19.044,7.327 -0.237,0.716 -0.271,1.426 -0.104,2.126"
       style="fill:#540e36;fill-opacity:1;fill-rule:nonzero;stroke:none"
       transform="matrix(1.3333333,0,0,-1.3333333,59.249467,572.404)"
       clip-path="url(#clipPath140)" />
    <path
       id="path257"
       d="M 0,0 C 0,0 12.664,-14.136 4.876,-28.573 -2.911,-43.01 -9.975,-22.584 -8.678,-15.031 -7.381,-7.479 0,0 0,0"
       style="fill:#ca0d4b;fill-opacity:1;fill-rule:nonzero;stroke:none"
       transform="matrix(1.3333333,0,0,-1.3333333,67.634933,606.25427)"
       clip-path="url(#clipPath258)" />
    <path
       id="path259"
       d="m 0,0 c -0.882,-5.136 2.28,-16.362 6.556,-17.772 2.41,-0.796 4.547,2.056 5.913,4.588 C 19.176,-0.747 10.152,11.662 8.075,14.251 6.478,12.507 1.068,6.223 0,0 m 6.18,-18.86 c -4.974,1.64 -8.295,13.403 -7.326,19.044 1.312,7.642 8.529,15.026 8.835,15.337 0.114,0.115 0.27,0.178 0.432,0.174 0.161,-0.003 0.314,-0.072 0.421,-0.191 0.129,-0.145 12.837,-14.601 4.953,-29.221 -1.653,-3.063 -3.391,-4.819 -5.189,-5.247 -0.7,-0.167 -1.41,-0.134 -2.126,0.104"
       style="fill:#540e36;fill-opacity:1;fill-rule:nonzero;stroke:none"
       transform="matrix(1.3333333,0,0,-1.3333333,56.828267,626.4184)"
       clip-path="url(#clipPath260)" />
    <path
       id="path579"
       d="m 0,0 c 0.004,-0.085 0.064,-0.157 0.147,-0.176 3.276,-0.748 4.832,0.72 5.52,1.836 -0.09,-2.249 0.61,-3.752 0.645,-3.824 0.022,-0.048 0.064,-0.084 0.115,-0.1 0.051,-0.015 0.105,-0.009 0.151,0.017 1.21,0.704 1.856,2.272 2.164,3.312 0.653,-3.861 2.565,-5.356 3.052,-5.679 0.021,-0.027 0.052,-0.053 0.095,-0.069 0.026,-0.008 0.053,-0.012 0.08,-0.011 0.026,-0.001 0.053,0.003 0.079,0.011 0.043,0.016 0.074,0.041 0.096,0.069 0.486,0.323 2.398,1.817 3.052,5.679 0.308,-1.04 0.953,-2.608 2.163,-3.312 0.046,-0.026 0.101,-0.032 0.152,-0.017 0.05,0.016 0.092,0.052 0.115,0.1 0.035,0.072 0.735,1.575 0.645,3.823 0.687,-1.116 2.244,-2.583 5.519,-1.835 0.083,0.019 0.143,0.091 0.147,0.176 0.004,0.084 -0.048,0.161 -0.128,0.188 -0.016,0.006 -1.55,0.547 -2.125,2.796 -0.779,3.045 -2.78,4.915 -6.064,5.673 -0.066,0.029 -0.126,0.062 -0.195,0.087 -0.079,0.028 -0.145,0.017 -0.196,-0.017 -0.183,0.037 -0.371,0.069 -0.561,0.099 -0.006,10e-4 -0.011,0.002 -0.017,0.003 -0.773,0.12 -1.584,0.207 -2.482,0.222 -0.012,0.002 -0.023,0.003 -0.035,0.003 L 11.97,9.053 H 11.954 C 11.854,9.106 11.73,9.104 11.644,9.043 10.596,9.02 9.653,8.909 8.779,8.739 8.732,8.761 8.677,8.768 8.611,8.744 8.565,8.728 8.526,8.704 8.481,8.687 5.104,7.952 3.045,6.078 2.253,2.984 1.954,1.814 1.393,1.117 0.974,0.737 0.521,0.327 0.132,0.189 0.129,0.188 0.048,0.161 -0.004,0.084 0,0"
       style="fill:#f8c995;fill-opacity:1;fill-rule:nonzero;stroke:none"
       transform="matrix(1.3333333,0,0,-1.3333333,43.241733,653.2504)"
       clip-path="url(#clipPath580)" />
    <path
       id="path583"
       d="M 0,0 C 3.78,0.98 6.741,4.271 8.266,7.747 8.501,8.283 7.91,8.802 7.44,8.386 5.022,6.241 3.209,3.285 -0.117,2.409 -1.955,1.926 -4.986,1.841 -6.477,3.292 c -2.731,2.661 2.567,5.924 3.802,3.375 0.759,-1.569 2.91,-0.394 2.64,1.112 -1.19,6.619 -13.652,0.9 -9.759,-4.991 C -7.837,-0.174 -3.178,-0.823 0,0"
       style="fill:#f8c995;fill-opacity:1;fill-rule:nonzero;stroke:none"
       transform="matrix(1.3333333,0,0,-1.3333333,33.0164,655.23613)"
       clip-path="url(#clipPath584)" />
    <path
       id="path723"
       d="m 0,0 c -0.084,-0.004 -0.156,-0.064 -0.175,-0.146 -0.749,-3.277 0.719,-4.833 1.835,-5.52 -2.248,0.09 -3.751,-0.61 -3.824,-0.646 -0.047,-0.022 -0.084,-0.064 -0.099,-0.115 -0.016,-0.05 -0.009,-0.105 0.017,-0.151 0.704,-1.21 2.271,-1.855 3.312,-2.163 -3.861,-0.654 -5.357,-2.566 -5.68,-3.052 -0.027,-0.021 -0.053,-0.053 -0.068,-0.096 -0.009,-0.025 -0.013,-0.053 -0.011,-0.08 -0.002,-0.026 0.002,-0.052 0.011,-0.079 0.015,-0.043 0.041,-0.074 0.068,-0.096 0.323,-0.486 1.818,-2.398 5.68,-3.051 -1.041,-0.309 -2.608,-0.953 -3.312,-2.164 -0.026,-0.045 -0.033,-0.1 -0.017,-0.151 0.015,-0.051 0.052,-0.093 0.099,-0.115 0.073,-0.035 1.575,-0.735 3.824,-0.646 -1.116,-0.687 -2.584,-2.244 -1.835,-5.519 0.019,-0.082 0.091,-0.143 0.175,-0.147 0.085,-0.004 0.162,0.048 0.189,0.128 0.005,0.016 0.547,1.55 2.796,2.125 3.045,0.78 4.914,2.781 5.673,6.065 0.028,0.066 0.061,0.125 0.087,0.194 0.028,0.079 0.016,0.146 -0.017,0.196 0.036,0.183 0.068,0.371 0.099,0.561 10e-4,0.006 0.002,0.012 0.002,0.018 0.121,0.772 0.208,1.584 0.222,2.482 0.002,0.011 0.003,0.022 0.003,0.034 l -10e-4,0.164 10e-4,0.017 c 0.053,0.099 0.05,0.224 -0.011,0.31 -0.022,1.047 -0.134,1.99 -0.303,2.865 0.021,0.047 0.029,0.102 0.005,0.168 -0.017,0.046 -0.04,0.085 -0.058,0.129 -0.735,3.377 -2.609,5.437 -5.702,6.228 -1.171,0.3 -1.868,0.86 -2.247,1.279 C 0.327,-0.521 0.19,-0.132 0.189,-0.128 0.162,-0.048 0.085,0.005 0,0"
       style="fill:#f8c995;fill-opacity:1;fill-rule:nonzero;stroke:none"
       transform="matrix(1.3333333,0,0,-1.3333333,13.4156,579.9796)"
       clip-path="url(#clipPath724)" />
    <path
       id="path725"
       d="m 0,0 c -0.824,-3.177 -0.173,-7.837 2.788,-9.794 5.891,-3.892 11.61,8.569 4.992,9.76 C 6.274,0.236 5.098,-1.915 6.667,-2.675 9.215,-3.909 5.953,-9.208 3.292,-6.476 1.841,-4.985 1.925,-1.955 2.409,-0.116 3.285,3.21 6.242,5.022 8.385,7.44 8.802,7.91 8.283,8.502 7.748,8.267 4.271,6.742 0.98,3.781 0,0"
       style="fill:#f8c995;fill-opacity:1;fill-rule:nonzero;stroke:none"
       transform="matrix(1.3333333,0,0,-1.3333333,11.430533,622.12147)"
       clip-path="url(#clipPath726)" />
    <path
       id="path731"
       d="m 0,0 c -0.433,-0.346 -0.65,-0.985 -0.719,-1.503 -0.084,-0.622 0.052,-1.094 0.31,-1.668 0.601,-1.338 2.359,-1.955 3.708,-1.582 2.024,0.561 2.752,3.117 1.498,4.74 C 4.023,0.989 2.815,1.198 1.764,0.832 1.088,0.748 0.558,0.444 0,0"
       style="fill:#f8c995;fill-opacity:1;fill-rule:nonzero;stroke:none"
       transform="matrix(1.3333333,0,0,-1.3333333,15.031467,641.2296)"
       clip-path="url(#clipPath732)" />
    <path
       id="path803"
       d="M 0,0 -3.509,5.252 0.957,0.786 c 1.087,-1.087 2.849,-1.087 3.936,0 1.086,1.087 1.086,2.849 0,3.935 L 0.427,9.188 5.678,5.678 c 1.278,-0.854 3.006,-0.51 3.86,0.768 0.853,1.278 0.51,3.006 -0.768,3.86 l -5.252,3.508 5.836,-2.417 c 1.419,-0.587 3.047,0.086 3.635,1.506 0.588,1.42 -0.086,3.048 -1.506,3.636 l -5.835,2.417 6.195,-1.232 c 1.507,-0.3 2.972,0.679 3.272,2.186 0.3,1.508 -0.679,2.973 -2.187,3.273 l -6.195,1.232 h 6.317 c 1.536,-10e-4 2.783,1.245 2.783,2.782 0,1.536 -1.247,2.782 -2.783,2.782 H 6.733 l 6.195,1.233 c 1.508,0.3 2.487,1.765 2.187,3.271 -0.3,1.508 -1.765,2.487 -3.272,2.187 l -6.196,-1.232 5.836,2.417 c 1.42,0.588 2.094,2.216 1.506,3.636 -0.588,1.419 -2.216,2.094 -3.635,1.506 l -5.836,-2.418 5.252,3.51 c 1.278,0.853 1.621,2.581 0.768,3.859 -0.854,1.278 -2.582,1.621 -3.86,0.768 l -5.252,-3.509 4.467,4.466 c 1.086,1.087 1.086,2.848 0,3.935 -1.087,1.087 -2.849,1.087 -3.936,0 L -3.509,49.142 0,54.394 c 0.854,1.278 0.51,3.005 -0.768,3.86 -1.277,0.853 -3.005,0.51 -3.859,-0.769 l -3.509,-5.252 2.417,5.836 c 0.588,1.42 -0.086,3.048 -1.506,3.636 -1.42,0.588 -3.047,-0.086 -3.636,-1.506 l -2.417,-5.836 1.232,6.196 c 0.3,1.506 -0.679,2.972 -2.186,3.271 -1.507,0.3 -2.972,-0.679 -3.272,-2.185 l -1.232,-6.196 v 6.317 c 0,1.537 -1.246,2.782 -2.783,2.782 -1.537,0 -2.782,-1.245 -2.782,-2.782 l -0.001,-6.316 -1.232,6.195 c -0.299,1.506 -1.764,2.485 -3.272,2.185 -1.507,-0.3 -2.486,-1.765 -2.186,-3.271 l 1.232,-6.195 -2.417,5.835 c -0.588,1.42 -2.216,2.094 -3.636,1.506 -1.419,-0.588 -2.093,-2.216 -1.505,-3.636 l 2.416,-5.835 -3.508,5.251 c -0.854,1.279 -2.582,1.622 -3.86,0.768 -1.278,-0.854 -1.622,-2.581 -0.768,-3.859 l 3.509,-5.251 -4.466,4.465 c -1.087,1.087 -2.848,1.087 -3.935,0 -1.087,-1.087 -1.087,-2.848 0,-3.935 l 4.466,-4.466 -5.251,3.509 c -1.278,0.853 -3.006,0.511 -3.86,-0.768 -0.854,-1.277 -0.51,-3.006 0.768,-3.859 l 5.251,-3.509 -5.835,2.417 c -1.42,0.588 -3.047,-0.087 -3.636,-1.507 -0.588,-1.419 0.087,-3.047 1.506,-3.635 l 5.835,-2.417 -6.194,1.232 c -1.508,0.3 -2.973,-0.679 -3.272,-2.187 -0.3,-1.506 0.679,-2.971 2.186,-3.271 l 6.195,-1.233 h -6.316 c -1.537,0 -2.783,-1.245 -2.783,-2.782 0,-1.537 1.246,-2.782 2.783,-2.782 l 6.316,-10e-4 -6.195,-1.231 c -1.507,-0.3 -2.486,-1.765 -2.186,-3.273 0.299,-1.507 1.764,-2.486 3.272,-2.186 l 6.195,1.232 -5.836,-2.417 c -1.419,-0.588 -2.094,-2.216 -1.506,-3.636 0.589,-1.42 2.216,-2.093 3.636,-1.506 l 5.836,2.417 -5.252,-3.508 c -1.278,-0.854 -1.622,-2.582 -0.768,-3.86 0.854,-1.278 2.582,-1.622 3.86,-0.767 l 5.252,3.509 -4.467,-4.467 c -1.087,-1.086 -1.087,-2.848 0,-3.935 1.087,-1.087 2.848,-1.087 3.935,0 L -39.528,5.252 -43.038,0 c -0.854,-1.277 -0.51,-3.006 0.768,-3.859 1.278,-0.854 3.006,-0.51 3.859,0.767 l 3.51,5.252 -2.417,-5.835 c -0.588,-1.42 0.086,-3.048 1.505,-3.636 1.42,-0.587 3.048,0.086 3.636,1.506 l 2.417,5.836 -1.232,-6.195 c -0.3,-1.508 0.679,-2.973 2.186,-3.273 1.508,-0.299 2.973,0.679 3.272,2.187 l 1.233,6.195 v -6.316 c 0,-1.537 1.245,-2.783 2.782,-2.783 1.537,0 2.783,1.246 2.783,2.783 v 6.315 l 1.232,-6.194 c 0.3,-1.508 1.765,-2.486 3.272,-2.187 1.507,0.3 2.486,1.765 2.187,3.273 l -1.233,6.194 2.417,-5.835 c 0.588,-1.42 2.216,-2.094 3.636,-1.506 1.42,0.588 2.094,2.216 1.506,3.636 l -2.417,5.835 3.509,-5.252 c 0.854,-1.277 2.582,-1.621 3.859,-0.767 C 0.51,-3.005 0.854,-1.277 0,0"
       style="fill:#e89a00;fill-opacity:1;fill-rule:nonzero;stroke:none"
       transform="matrix(1.3333333,0,0,-1.3333333,92.3212,644.25307)"
       clip-path="url(#clipPath804)" />
    <path
       id="path805"
       d="M 0,0 C 0.02,-0.019 0.038,-0.04 0.056,-0.062 0.33,-0.395 0.306,-0.881 0,-1.186 l -4.466,-4.466 c -0.758,-0.758 -0.758,-1.992 0,-2.749 0.758,-0.759 1.992,-0.759 2.75,-10e-4 l 4.466,4.466 c 0.306,0.305 0.792,0.33 1.125,0.056 0.336,-0.273 0.404,-0.756 0.165,-1.114 l -3.509,-5.252 c -0.289,-0.432 -0.392,-0.95 -0.291,-1.459 0.102,-0.509 0.395,-0.948 0.827,-1.237 0.432,-0.289 0.951,-0.392 1.46,-0.291 0.51,0.101 0.949,0.395 1.237,0.827 l 3.51,5.252 c 0.239,0.358 0.711,0.476 1.092,0.273 0.38,-0.203 0.544,-0.662 0.379,-1.059 l -2.417,-5.836 c -0.199,-0.48 -0.199,-1.008 0,-1.489 0.198,-0.478 0.572,-0.852 1.052,-1.051 0.48,-0.2 1.008,-0.2 1.488,0 0.48,0.198 0.854,0.572 1.052,1.051 l 2.417,5.836 c 0.166,0.399 0.605,0.607 1.018,0.482 0.413,-0.125 0.663,-0.543 0.579,-0.966 l -1.232,-6.194 c -0.209,-1.052 0.475,-2.079 1.527,-2.288 1.052,-0.209 2.078,0.477 2.287,1.528 l 1.232,6.195 c 0.084,0.423 0.475,0.713 0.904,0.671 0.428,-0.041 0.757,-0.402 0.756,-0.834 v -6.316 c 0,-1.039 0.906,-1.945 1.945,-1.945 0.52,0 1.008,0.202 1.375,0.57 0.367,0.367 0.569,0.855 0.569,1.375 v 6.315 c 0,0.432 0.327,0.792 0.756,0.834 0.429,0.043 0.82,-0.247 0.904,-0.67 l 1.232,-6.195 c 0.102,-0.509 0.394,-0.948 0.828,-1.237 0.431,-0.289 0.95,-0.392 1.46,-0.291 1.05,0.209 1.736,1.236 1.527,2.288 l -1.232,6.193 c -0.085,0.423 0.166,0.841 0.578,0.966 0.413,0.125 0.853,-0.082 1.018,-0.482 l 2.417,-5.835 c 0.409,-0.988 1.55,-1.463 2.541,-1.051 0.48,0.198 0.853,0.572 1.052,1.051 0.199,0.481 0.199,1.009 0,1.489 l -2.417,5.836 c -0.165,0.397 -10e-4,0.856 0.379,1.059 0.381,0.203 0.85,0.089 1.093,-0.273 l 3.508,-5.252 c 0.288,-0.43 0.728,-0.726 1.238,-0.827 0.509,-0.101 1.028,0.002 1.459,0.291 0.892,0.595 1.132,1.805 0.536,2.697 l -3.508,5.251 c -0.239,0.358 -0.168,0.84 0.165,1.113 0.334,0.274 0.82,0.25 1.125,-0.055 l 4.465,-4.465 c 0.759,-0.759 1.992,-0.759 2.75,0 0.758,0.757 0.759,1.991 0,2.749 l -4.465,4.466 c -0.306,0.305 -0.329,0.791 -0.056,1.124 0.274,0.333 0.756,0.405 1.114,0.166 l 5.251,-3.509 c 0.892,-0.596 2.102,-0.356 2.697,0.537 0.288,0.431 0.392,0.949 0.29,1.459 -0.101,0.509 -0.394,0.948 -0.826,1.237 L 45.924,3.337 C 45.563,3.58 45.448,4.049 45.65,4.43 c 0.204,0.38 0.663,0.544 1.06,0.379 l 5.835,-2.417 c 0.481,-0.2 1.009,-0.2 1.489,0 0.48,0.199 0.854,0.572 1.052,1.051 0.199,0.481 0.199,1.009 0,1.49 -0.199,0.479 -0.572,0.852 -1.052,1.051 l -5.835,2.417 c -0.4,0.166 -0.607,0.606 -0.482,1.018 0.125,0.413 0.543,0.663 0.966,0.579 l 6.195,-1.232 c 1.051,-0.209 2.077,0.476 2.287,1.528 0.101,0.509 -0.002,1.027 -0.291,1.459 -0.288,0.431 -0.728,0.726 -1.237,0.827 l -6.195,1.233 c -0.423,0.083 -0.713,0.474 -0.671,0.903 0.042,0.43 0.403,0.757 0.834,0.757 h 6.316 c 0.519,0 1.008,0.202 1.375,0.569 0.368,0.367 0.57,0.855 0.57,1.375 -10e-4,1.072 -0.872,1.944 -1.945,1.944 h -6.316 c -0.432,-0.001 -0.792,0.328 -0.834,0.756 -0.042,0.429 0.248,0.82 0.67,0.904 l 6.196,1.233 c 0.509,0.101 0.948,0.394 1.237,0.826 0.289,0.433 0.392,0.95 0.291,1.46 -0.21,1.052 -1.236,1.737 -2.287,1.528 l -6.195,-1.232 c -0.423,-0.084 -0.841,0.166 -0.966,0.578 -0.125,0.413 0.083,0.854 0.482,1.019 l 5.835,2.417 c 0.48,0.198 0.854,0.572 1.052,1.051 0.199,0.48 0.199,1.009 0,1.489 -0.198,0.479 -0.572,0.853 -1.052,1.052 -0.48,0.199 -1.008,0.199 -1.488,0 L 46.71,30.024 c -0.398,-0.164 -0.857,0 -1.06,0.38 -0.203,0.38 -0.085,0.853 0.274,1.092 l 5.252,3.509 c 0.431,0.289 0.725,0.728 0.827,1.238 0.101,0.509 -0.002,1.028 -0.291,1.459 -0.289,0.433 -0.727,0.725 -1.237,0.827 -0.51,0.102 -1.028,-0.002 -1.459,-0.291 l -5.253,-3.509 c -0.358,-0.239 -0.838,-0.168 -1.114,0.166 -0.273,0.333 -0.249,0.819 0.056,1.124 l 4.466,4.466 c 0.759,0.758 0.758,1.993 0,2.75 -0.758,0.759 -1.991,0.758 -2.75,0 L 39.955,38.77 c -0.305,-0.306 -0.791,-0.33 -1.124,-0.056 -0.332,0.272 -0.405,0.755 -0.165,1.113 l 3.509,5.252 c 0.595,0.893 0.351,2.104 -0.536,2.697 -0.892,0.596 -2.102,0.356 -2.698,-0.537 l -3.509,-5.252 c -0.239,-0.358 -0.712,-0.476 -1.092,-0.273 -0.38,0.203 -0.544,0.662 -0.379,1.06 l 2.417,5.836 c 0.411,0.992 -0.063,2.131 -1.052,2.54 -0.991,0.411 -2.131,-0.061 -2.541,-1.052 l -2.417,-5.835 c -0.165,-0.399 -0.605,-0.607 -1.018,-0.482 -0.413,0.125 -0.663,0.543 -0.579,0.966 l 1.233,6.194 c 0.101,0.51 -0.002,1.029 -0.291,1.46 -0.288,0.433 -0.728,0.726 -1.236,0.827 -0.51,0.101 -1.028,-0.001 -1.46,-0.29 C 26.584,52.649 26.291,52.21 26.19,51.7 l -1.232,-6.194 c -0.084,-0.423 -0.476,-0.713 -0.905,-0.671 -0.428,0.043 -0.756,0.403 -0.756,0.834 v 6.316 c 0,1.074 -0.873,1.946 -1.944,1.945 -1.073,0 -1.945,-0.872 -1.945,-1.945 V 45.67 c 0,-0.432 -0.326,-0.792 -0.756,-0.834 -0.428,-0.042 -0.82,0.248 -0.904,0.67 L 16.516,51.7 c -0.21,1.052 -1.235,1.738 -2.287,1.528 -0.509,-0.101 -0.949,-0.395 -1.237,-0.827 -0.288,-0.431 -0.391,-0.95 -0.29,-1.46 l 1.232,-6.193 c 0.084,-0.424 -0.166,-0.841 -0.579,-0.966 -0.412,-0.126 -0.852,0.081 -1.018,0.482 L 9.92,50.099 C 9.51,51.09 8.37,51.561 7.38,51.15 6.9,50.951 6.526,50.578 6.328,50.098 c -0.199,-0.48 -0.199,-1.008 0,-1.489 l 2.417,-5.835 c 0.164,-0.397 0,-0.856 -0.38,-1.059 -0.38,-0.202 -0.851,-0.084 -1.092,0.273 L 3.764,47.24 C 3.476,47.672 3.036,47.965 2.527,48.066 2.018,48.168 1.499,48.064 1.067,47.775 0.636,47.487 0.341,47.048 0.24,46.539 0.139,46.029 0.242,45.511 0.531,45.079 L 4.04,39.828 C 4.279,39.47 4.208,38.988 3.875,38.714 3.541,38.441 3.055,38.465 2.75,38.77 l -4.466,4.465 c -0.758,0.758 -1.992,0.759 -2.75,0 -0.758,-0.757 -0.758,-1.992 0,-2.75 L 0,36.02 C 0.305,35.715 0.329,35.229 0.056,34.895 -0.218,34.562 -0.7,34.49 -1.058,34.729 l -5.252,3.51 c -0.432,0.288 -0.95,0.392 -1.459,0.29 -0.51,-0.101 -0.949,-0.395 -1.237,-0.827 -0.289,-0.431 -0.392,-0.95 -0.291,-1.459 0.101,-0.51 0.395,-0.948 0.827,-1.237 l 5.251,-3.509 c 0.36,-0.242 0.476,-0.712 0.274,-1.093 -0.204,-0.38 -0.662,-0.544 -1.06,-0.379 l -5.835,2.417 c -0.48,0.199 -1.009,0.199 -1.489,0 -0.479,-0.199 -0.853,-0.573 -1.051,-1.052 -0.2,-0.48 -0.2,-1.009 -10e-4,-1.489 0.199,-0.48 0.573,-0.853 1.052,-1.051 l 5.835,-2.417 c 0.399,-0.166 0.607,-0.607 0.482,-1.019 -0.126,-0.412 -0.543,-0.662 -0.966,-0.578 l -6.194,1.232 c -0.509,0.101 -1.028,-0.002 -1.46,-0.291 -0.431,-0.288 -0.725,-0.727 -0.826,-1.237 -0.21,-1.051 0.475,-2.077 1.527,-2.286 l 6.195,-1.233 c 0.423,-0.084 0.713,-0.475 0.671,-0.904 -0.042,-0.429 -0.403,-0.756 -0.834,-0.756 h -6.317 c -1.072,0 -1.944,-0.872 -1.944,-1.944 0,-1.072 0.872,-1.944 1.944,-1.944 l 6.317,-0.001 c 0.431,0.001 0.792,-0.328 0.834,-0.755 0.042,-0.43 -0.248,-0.821 -0.671,-0.905 l -6.195,-1.232 c -0.509,-0.101 -0.949,-0.394 -1.237,-0.827 -0.289,-0.432 -0.392,-0.95 -0.29,-1.459 0.101,-0.51 0.396,-0.949 0.826,-1.238 0.432,-0.288 0.951,-0.392 1.46,-0.29 l 6.195,1.232 c 0.423,0.084 0.84,-0.166 0.966,-0.579 0.125,-0.412 -0.083,-0.853 -0.482,-1.018 l -5.836,-2.417 c -0.479,-0.199 -0.853,-0.572 -1.051,-1.051 -0.2,-0.481 -0.2,-1.009 -10e-4,-1.489 0.409,-0.989 1.55,-1.463 2.541,-1.052 l 5.836,2.417 c 0.398,0.165 0.857,0.002 1.06,-0.379 0.203,-0.381 0.085,-0.853 -0.274,-1.092 l -5.253,-3.51 c -0.891,-0.596 -1.131,-1.806 -0.535,-2.697 0.592,-0.888 1.804,-1.132 2.697,-0.536 l 5.251,3.509 C -0.723,0.328 -0.279,0.28 0,0 m -5.651,-9.587 c -1.182,1.182 -1.375,2.985 -0.577,4.369 -1.513,-0.512 -3.245,0.03 -4.172,1.418 -0.929,1.389 -0.766,3.195 0.285,4.397 -0.623,-0.083 -1.259,-0.001 -1.855,0.246 -0.894,0.371 -1.59,1.066 -1.96,1.96 -0.37,0.893 -0.369,1.878 0,2.77 0.247,0.596 0.638,1.104 1.137,1.486 -0.626,0.041 -1.234,0.246 -1.77,0.603 -0.805,0.538 -1.352,1.357 -1.54,2.305 -0.189,0.948 0.004,1.913 0.541,2.718 0.358,0.536 0.842,0.958 1.406,1.235 -1.543,0.416 -2.68,1.826 -2.681,3.497 0.001,1.672 1.14,3.082 2.682,3.497 -1.431,0.708 -2.274,2.314 -1.948,3.953 0.326,1.639 1.717,2.801 3.311,2.906 -0.499,0.384 -0.891,0.891 -1.138,1.487 -0.37,0.893 -0.369,1.878 10e-4,2.771 0.37,0.894 1.066,1.589 1.959,1.959 0.595,0.247 1.231,0.329 1.853,0.247 -0.414,0.473 -0.698,1.046 -0.824,1.678 -0.189,0.949 0.003,1.915 0.541,2.719 0.537,0.804 1.355,1.35 2.304,1.539 0.633,0.126 1.272,0.083 1.867,-0.119 -0.796,1.384 -0.604,3.185 0.578,4.367 1.181,1.182 2.984,1.374 4.367,0.577 -0.202,0.595 -0.245,1.235 -0.12,1.868 0.189,0.948 0.736,1.767 1.54,2.304 0.804,0.537 1.769,0.729 2.718,0.541 0.632,-0.126 1.207,-0.411 1.678,-0.824 -0.082,0.622 0,1.258 0.247,1.852 0.37,0.894 1.066,1.59 1.959,1.96 1.544,0.64 3.281,0.13 4.257,-1.137 0.04,0.626 0.245,1.234 0.603,1.771 0.537,0.804 1.356,1.351 2.304,1.539 1.64,0.326 3.245,-0.515 3.954,-1.947 0.415,1.543 1.825,2.681 3.497,2.681 1.67,0 3.081,-1.137 3.497,-2.679 0.277,0.563 0.699,1.047 1.235,1.405 0.805,0.537 1.769,0.729 2.718,0.54 0.949,-0.188 1.767,-0.734 2.304,-1.539 0.358,-0.536 0.563,-1.145 0.604,-1.771 0.974,1.265 2.712,1.777 4.256,1.137 1.545,-0.639 2.412,-2.231 2.205,-3.815 1.202,1.052 3.008,1.215 4.398,0.286 1.388,-0.927 1.93,-2.659 1.418,-4.172 1.384,0.797 3.187,0.605 4.368,-0.577 1.183,-1.182 1.375,-2.983 0.579,-4.367 0.594,0.202 1.234,0.245 1.867,0.119 0.948,-0.189 1.767,-0.736 2.304,-1.539 0.538,-0.805 0.729,-1.77 0.54,-2.718 -0.125,-0.632 -0.41,-1.206 -0.824,-1.679 0.622,0.082 1.258,0 1.853,-0.246 0.893,-0.37 1.59,-1.065 1.96,-1.96 0.37,-0.893 0.37,-1.878 0,-2.771 -0.246,-0.596 -0.638,-1.104 -1.137,-1.487 1.593,-0.105 2.984,-1.267 3.31,-2.906 0.189,-0.948 -0.003,-1.914 -0.54,-2.718 -0.359,-0.536 -0.842,-0.959 -1.405,-1.235 1.54,-0.416 2.679,-1.825 2.679,-3.497 0,-0.968 -0.376,-1.877 -1.061,-2.561 -0.455,-0.456 -1.01,-0.775 -1.617,-0.937 0.563,-0.276 1.046,-0.699 1.404,-1.234 0.537,-0.805 0.729,-1.77 0.541,-2.718 C 58.482,8.327 57.09,7.166 55.497,7.06 56.758,6.087 57.274,4.348 56.635,2.803 56.265,1.909 55.569,1.213 54.675,0.843 54.08,0.597 53.445,0.514 52.823,0.596 c 0.413,-0.472 0.698,-1.046 0.823,-1.678 0.189,-0.949 -0.002,-1.914 -0.54,-2.719 -0.929,-1.389 -2.659,-1.929 -4.172,-1.418 0.797,-1.384 0.605,-3.186 -0.578,-4.368 -1.182,-1.183 -2.984,-1.374 -4.368,-0.577 0.512,-1.513 -0.029,-3.243 -1.418,-4.173 -0.804,-0.537 -1.77,-0.728 -2.718,-0.54 -0.632,0.126 -1.207,0.41 -1.678,0.824 0.082,-0.622 -10e-4,-1.258 -0.247,-1.853 -0.37,-0.893 -1.066,-1.589 -1.96,-1.959 -1.544,-0.641 -3.282,-0.132 -4.257,1.138 -0.106,-1.593 -1.268,-2.985 -2.906,-3.311 -0.95,-0.19 -1.914,0.003 -2.719,0.54 -0.536,0.358 -0.957,0.841 -1.235,1.403 -0.162,-0.606 -0.481,-1.162 -0.937,-1.617 -0.684,-0.684 -1.593,-1.06 -2.56,-1.06 -0.967,0 -1.876,0.376 -2.561,1.06 -0.456,0.456 -0.775,1.013 -0.937,1.619 -0.709,-1.43 -2.314,-2.271 -3.953,-1.945 -0.948,0.188 -1.766,0.732 -2.304,1.539 -0.358,0.536 -0.562,1.143 -0.603,1.769 -0.382,-0.498 -0.89,-0.889 -1.485,-1.135 -0.894,-0.37 -1.878,-0.37 -2.772,0 -0.893,0.369 -1.589,1.065 -1.96,1.959 -0.246,0.595 -0.328,1.231 -0.246,1.853 -0.472,-0.414 -1.046,-0.698 -1.678,-0.824 -0.948,-0.188 -1.914,0.003 -2.718,0.54 -0.803,0.537 -1.351,1.356 -1.539,2.305 -0.126,0.633 -0.083,1.272 0.119,1.867 -1.383,-0.796 -3.185,-0.604 -4.367,0.578"
       style="fill:#540e36;fill-opacity:1;fill-rule:nonzero;stroke:none"
       transform="matrix(1.3333333,0,0,-1.3333333,35.159067,631.21267)"
       clip-path="url(#clipPath806)" />
    <path
       id="path807"
       d="M 0,0 C 10.343,7.533 13.653,16.866 13.653,16.866 4.762,19.218 -6.654,11.015 -6.654,11.015 6.441,27.006 4.598,39.153 4.107,41.391 c 0,0 0.077,0.16 -0.043,0.189 -0.029,0.119 -0.189,0.043 -0.189,0.043 -2.238,0.49 -14.385,2.334 -30.376,-10.762 0,0 8.203,11.416 5.852,20.308 0,0 -9.334,-3.31 -16.867,-13.653 0,0 9.397,15.018 -9.349,26.79 0,0 3.397,-6.858 -2.129,-16.184 -8.593,-14.501 -6.564,-29.975 10.762,-47.805 L -38.24,0.31 c 0.174,-0.174 0.346,-0.344 0.52,-0.514 0.17,-0.174 0.34,-0.347 0.513,-0.521 l 0.009,0.009 C -19.368,-18.042 -3.895,-20.071 10.606,-11.479 19.933,-5.952 26.79,-9.35 26.79,-9.35 15.019,9.397 0,0 0,0"
       style="fill:#873a6d;fill-opacity:1;fill-rule:nonzero;stroke:none"
       transform="matrix(1.3333333,0,0,-1.3333333,78.9676,637.06293)"
       clip-path="url(#clipPath808)" />
    <path
       id="path809"
       d="m 0,0 0.192,-0.178 c 16.631,-16.16 32.07,-19.656 47.202,-10.69 7.029,4.166 12.657,3.401 15.2,2.678 C 51.371,8.278 37.89,0.122 37.307,-0.243 l -0.559,0.828 c 8.707,6.341 12.4,14.059 13.268,16.108 -8.477,1.795 -19.226,-5.827 -19.337,-5.905 l -3.083,-2.214 2.405,2.937 C 42.714,27.036 41.206,38.826 40.687,41.342 38.172,41.857 26.382,43.366 10.857,30.655 L 7.92,28.25 10.134,31.334 C 10.213,31.443 17.836,42.189 16.04,50.67 13.99,49.802 6.272,46.109 -0.069,37.402 l -0.829,0.559 c 0.363,0.583 8.498,14.079 -7.946,25.287 0.723,-2.543 1.488,-8.172 -2.678,-15.2 -8.966,-15.132 -5.469,-30.571 10.69,-47.201 L -0.498,0.503 -0.499,0.501 Z m 30.928,-16.72 c -10.049,-0.001 -20.331,5.144 -31.079,15.483 l -0.006,-0.006 -1.739,1.722 0.015,0.015 c -16.233,16.868 -19.667,32.595 -10.501,48.064 5.309,8.958 2.143,15.64 2.111,15.707 l -0.775,1.578 1.489,-0.934 C 3.945,56.431 3.082,46.162 1.435,40.903 c 6.981,8.076 14.442,10.794 14.79,10.918 l 0.512,0.181 0.138,-0.524 c 1.739,-6.573 -2.026,-14.325 -4.327,-18.228 14.741,11.033 25.886,9.578 28.353,9.068 0.107,0.018 0.24,0.017 0.376,-0.048 l 0.214,-0.102 0.036,-0.103 c 0.035,-0.04 0.064,-0.084 0.088,-0.131 0.065,-0.136 0.067,-0.271 0.049,-0.378 0.51,-2.468 1.964,-13.614 -9.068,-28.354 3.904,2.3 11.656,6.065 18.227,4.327 l 0.525,-0.138 -0.181,-0.512 C 51.043,16.53 48.326,9.07 40.249,2.089 45.508,3.736 55.777,4.6 64.254,-8.903 l 0.936,-1.49 -1.58,0.776 c -0.066,0.032 -6.748,3.196 -15.707,-2.111 -5.61,-3.325 -11.255,-4.992 -16.975,-4.992"
       style="fill:#540e36;fill-opacity:1;fill-rule:nonzero;stroke:none"
       transform="matrix(1.3333333,0,0,-1.3333333,29.578267,637.30253)"
       clip-path="url(#clipPath810)" />
    <path
       id="path811"
       d="m 0,0 c 0.104,-1.189 0.322,-2.365 0.519,-3.54 0.261,-1.163 0.499,-2.331 0.854,-3.468 0.653,-2.287 1.525,-4.504 2.576,-6.618 2.115,-4.214 4.862,-8.068 8.248,-11.244 3.176,-3.386 7.03,-6.133 11.244,-8.248 2.114,-1.051 4.33,-1.923 6.618,-2.576 1.137,-0.355 2.304,-0.593 3.468,-0.854 1.175,-0.197 2.35,-0.415 3.539,-0.519 4.748,-0.515 9.586,-0.098 14.157,1.125 3.346,0.929 6.611,2.247 9.511,4.096 0.579,0.368 0.175,1.249 -0.482,1.052 -3.206,-0.963 -6.426,-1.644 -9.654,-2.077 -4.383,-0.582 -8.779,-0.693 -13.12,-0.219 -2.171,0.219 -4.332,0.568 -6.467,1.069 -1.079,0.205 -2.125,0.543 -3.197,0.802 l -1.581,0.49 c -0.531,0.155 -1.062,0.315 -1.579,0.513 -4.201,1.427 -8.287,3.313 -12.453,5.35 -2.038,4.166 -3.923,8.252 -5.35,12.453 -0.198,0.517 -0.358,1.048 -0.513,1.579 L 5.849,-9.253 C 5.59,-8.181 5.251,-7.135 5.045,-6.056 4.544,-3.922 4.196,-1.76 3.978,0.411 3.503,4.752 3.613,9.147 4.196,13.53 4.629,16.76 5.31,19.979 6.272,23.186 6.47,23.842 5.59,24.246 5.221,23.668 3.372,20.768 2.055,17.503 1.125,14.156 -0.098,9.585 -0.516,4.747 0,0"
       style="fill:#f8c995;fill-opacity:1;fill-rule:nonzero;stroke:none"
       transform="matrix(1.3333333,0,0,-1.3333333,14.263867,602.35067)"
       clip-path="url(#clipPath812)" />
    <path
       id="path813"
       d="m 0,0 c -0.035,0 -0.051,-0.026 -0.065,-0.047 -1.682,-2.64 -3.04,-5.795 -4.036,-9.377 -1.221,-4.566 -1.606,-9.398 -1.109,-13.969 l 0.001,-0.009 c 0.087,-0.99 0.258,-1.994 0.423,-2.965 l 0.208,-1.063 c 0.211,-0.952 0.428,-1.937 0.721,-2.876 0.635,-2.221 1.49,-4.419 2.546,-6.543 1.69,-3.366 3.715,-6.367 6.04,-8.953 -1.475,3.12 -2.912,6.405 -4.059,9.781 -0.207,0.542 -0.377,1.112 -0.519,1.602 l -0.487,1.571 c -0.106,0.436 -0.215,0.836 -0.324,1.236 -0.178,0.653 -0.362,1.33 -0.493,2.016 -0.485,2.064 -0.848,4.261 -1.074,6.511 -0.461,4.214 -0.387,8.669 0.22,13.235 0.445,3.313 1.149,6.587 2.093,9.733 0.01,0.032 0.023,0.076 -0.043,0.106 C 0.026,-0.003 0.012,0 0,0 m 9.006,-50.077 c 2.593,-2.33 5.59,-4.352 8.953,-6.04 2.119,-1.055 4.317,-1.909 6.53,-2.542 0.949,-0.296 1.935,-0.514 2.888,-0.725 l 1.079,-0.211 c 0.965,-0.164 1.964,-0.334 2.947,-0.42 4.581,-0.498 9.413,-0.114 13.983,1.11 3.578,0.995 6.734,2.352 9.373,4.035 0.028,0.017 0.066,0.042 0.036,0.107 -0.03,0.066 -0.073,0.051 -0.106,0.044 -3.145,-0.944 -6.419,-1.649 -9.732,-2.094 -4.568,-0.607 -9.023,-0.681 -13.24,-0.219 -2.25,0.226 -4.447,0.59 -6.527,1.078 -0.667,0.126 -1.343,0.31 -1.998,0.489 -0.399,0.109 -0.799,0.218 -1.202,0.315 l -1.612,0.498 c -0.51,0.149 -1.062,0.314 -1.609,0.523 -3.365,1.142 -6.645,2.577 -9.763,4.052 m 26.349,-11.15 c -1.363,0 -2.717,0.073 -4.05,0.217 -1.013,0.089 -2.032,0.262 -3.017,0.43 l -1.126,0.22 c -0.975,0.214 -1.981,0.437 -2.959,0.743 -2.26,0.645 -4.516,1.523 -6.691,2.605 -4.43,2.224 -8.242,5.016 -11.333,8.298 l -0.089,0.09 c -3.27,3.073 -6.069,6.893 -8.295,11.328 -1.084,2.181 -1.962,4.436 -2.61,6.704 -0.302,0.967 -0.524,1.974 -0.739,2.947 l -0.218,1.11 c -0.168,0.989 -0.342,2.013 -0.433,3.04 -0.508,4.69 -0.114,9.647 1.14,14.334 1.023,3.682 2.421,6.929 4.157,9.651 0.301,0.473 0.863,0.639 1.368,0.408 0.505,-0.231 0.745,-0.767 0.584,-1.302 -0.929,-3.096 -1.623,-6.318 -2.06,-9.577 -0.596,-4.488 -0.669,-8.861 -0.216,-12.999 0.222,-2.211 0.578,-4.366 1.057,-6.408 0.128,-0.67 0.299,-1.298 0.48,-1.962 0.112,-0.409 0.223,-0.818 0.322,-1.232 l 0.482,-1.549 c 0.14,-0.48 0.302,-1.027 0.502,-1.551 1.455,-4.285 3.382,-8.419 5.257,-12.256 3.836,-1.874 7.969,-3.8 12.239,-5.25 0.523,-0.2 1.041,-0.355 1.56,-0.507 l 1.588,-0.492 c 0.382,-0.09 0.791,-0.202 1.2,-0.313 0.636,-0.174 1.294,-0.353 1.943,-0.477 2.058,-0.482 4.212,-0.837 6.423,-1.061 4.141,-0.453 8.514,-0.381 13.004,0.217 3.259,0.437 6.482,1.131 9.576,2.059 0.536,0.166 1.071,-0.078 1.303,-0.584 0.231,-0.504 0.064,-1.066 -0.408,-1.368 -2.723,-1.735 -5.968,-3.134 -9.647,-4.156 -3.359,-0.9 -6.856,-1.357 -10.294,-1.357"
       style="fill:#540e36;fill-opacity:1;fill-rule:nonzero;stroke:none"
       transform="matrix(1.3333333,0,0,-1.3333333,21.8732,571.08893)"
       clip-path="url(#clipPath814)" />
    <path
       id="path815"
       d="M 0,0 C -0.003,0 -0.005,0.001 -0.008,0.001 -0.004,-0.002 0,-0.004 0.004,-0.007 0.007,-0.012 0.01,-0.016 0.013,-0.02 c -10e-4,0.003 -10e-4,0.005 -10e-4,0.008 3.091,-2.203 6.777,-3.656 10.636,-4.24 3.869,-0.594 7.891,-0.334 11.679,0.669 3.802,0.979 7.362,2.696 10.542,4.868 2.323,1.623 4.488,3.484 6.298,5.636 C 39.59,7.423 38.99,8.135 38.424,7.801 36.059,6.408 33.696,5.14 31.295,3.996 28.038,2.458 24.723,1.158 21.316,0.286 17.915,-0.604 14.435,-1.093 10.886,-1.116 7.335,-1.167 3.754,-0.675 0.01,-0.002 c -0.673,3.744 -1.165,7.325 -1.114,10.876 0.023,3.55 0.512,7.028 1.402,10.431 0.872,3.406 2.172,6.721 3.71,9.978 1.143,2.402 2.412,4.765 3.805,7.129 0.333,0.566 -0.378,1.166 -0.881,0.744 C 4.78,37.346 2.919,35.181 1.297,32.857 -0.875,29.678 -2.592,26.117 -3.571,22.315 -4.574,18.526 -4.834,14.506 -4.24,10.637 -3.656,6.777 -2.204,3.091 0,0"
       style="fill:#f8c995;fill-opacity:1;fill-rule:nonzero;stroke:none"
       transform="matrix(1.3333333,0,0,-1.3333333,33.215067,632.8064)"
       clip-path="url(#clipPath816)" />
    <path
       id="path817"
       d="m 0,0 c -0.023,0 -0.04,-0.015 -0.053,-0.025 -1.954,-1.643 -3.82,-3.73 -5.546,-6.203 -2.258,-3.303 -3.872,-6.796 -4.794,-10.38 -1.003,-3.787 -1.231,-7.755 -0.66,-11.478 0.451,-2.982 1.427,-5.833 2.851,-8.369 -0.419,2.671 -0.751,5.602 -0.709,8.538 0.023,3.49 0.501,7.04 1.418,10.55 0.806,3.145 2.03,6.439 3.742,10.066 1.126,2.364 2.378,4.709 3.827,7.168 0.014,0.025 0.035,0.061 -0.019,0.108 C 0.034,-0.007 0.016,0 0,0 m -4.952,-39.705 c 2.536,-1.425 5.388,-2.4 8.368,-2.852 3.723,-0.571 7.69,-0.341 11.476,0.66 3.586,0.922 7.08,2.536 10.388,4.797 2.468,1.723 4.554,3.589 6.198,5.544 0.018,0.022 0.046,0.054 0,0.11 -0.045,0.052 -0.082,0.031 -0.107,0.018 -2.466,-1.452 -4.81,-2.704 -7.167,-3.825 -3.633,-1.715 -6.926,-2.939 -10.071,-3.743 -3.504,-0.918 -7.054,-1.395 -10.55,-1.418 -2.937,-0.049 -5.865,0.289 -8.535,0.709 m 12.456,-4.158 c -1.432,0 -2.851,0.105 -4.238,0.318 -3.566,0.539 -6.956,1.802 -9.876,3.669 l 0.145,-0.875 -1.125,1.495 -0.138,0.025 -0.024,0.138 -2.874,2.155 2.022,-0.806 c -1.74,2.835 -2.92,6.091 -3.437,9.507 -0.592,3.857 -0.357,7.966 0.68,11.882 0.95,3.692 2.612,7.292 4.939,10.696 1.779,2.549 3.705,4.7 5.726,6.399 0.412,0.347 0.987,0.345 1.398,-0.002 0.411,-0.347 0.508,-0.914 0.235,-1.378 -1.434,-2.434 -2.671,-4.753 -3.784,-7.089 -1.684,-3.568 -2.887,-6.802 -3.677,-9.889 -0.898,-3.431 -1.364,-6.899 -1.387,-10.309 -0.052,-3.644 0.489,-7.303 1.045,-10.443 3.139,-0.557 6.798,-1.107 10.438,-1.044 3.417,0.022 6.884,0.489 10.311,1.386 3.085,0.789 6.32,1.992 9.892,3.678 2.329,1.109 4.648,2.347 7.088,3.784 0.463,0.272 1.03,0.177 1.378,-0.235 0.348,-0.411 0.349,-0.986 0.003,-1.398 -1.701,-2.022 -3.852,-3.947 -6.395,-5.724 -3.409,-2.329 -7.009,-3.991 -10.704,-4.942 -2.506,-0.663 -5.093,-0.998 -7.641,-0.998"
       style="fill:#540e36;fill-opacity:1;fill-rule:nonzero;stroke:none"
       transform="matrix(1.3333333,0,0,-1.3333333,42.9572,581.07467)"
       clip-path="url(#clipPath818)" />
    <path
       id="path819"
       d="m 0,0 c -1.239,-1.275 -2.557,-2.468 -3.93,-3.6 -1.384,-1.122 -2.852,-2.139 -4.368,-3.121 -3.061,-1.92 -6.397,-3.47 -9.945,-4.982 3.855,-0.139 7.748,0.677 11.392,2.189 1.809,0.787 3.554,1.748 5.192,2.875 1.625,1.145 3.143,2.443 4.535,3.862 2.748,2.874 4.95,6.233 6.488,9.832 1.217,2.928 2.103,6.009 2.356,9.14 0.039,0.481 -0.627,0.643 -0.833,0.207 C 9.576,13.628 8.156,11.002 6.583,8.501 4.649,5.417 2.458,2.57 0,0"
       style="fill:#f8c995;fill-opacity:1;fill-rule:nonzero;stroke:none"
       transform="matrix(1.3333333,0,0,-1.3333333,61.343867,613.44053)"
       clip-path="url(#clipPath820)" />
    <path
       id="path821"
       d="m 0,0 c -1.318,-2.76 -2.688,-5.262 -4.183,-7.639 -1.972,-3.143 -4.208,-6.03 -6.645,-8.579 l -0.002,-0.003 c -1.192,-1.226 -2.491,-2.417 -3.972,-3.637 -1.241,-1.007 -2.643,-2.009 -4.413,-3.156 -2.509,-1.572 -5.203,-2.892 -7.715,-4.017 2.869,0.202 5.834,0.917 8.699,2.107 1.788,0.778 3.506,1.729 5.1,2.825 1.578,1.112 3.08,2.391 4.462,3.799 2.697,2.821 4.846,6.079 6.384,9.679 C -1.03,-5.603 -0.262,-2.703 0,0 m -28.607,-28.091 c -0.283,0 -0.563,0.005 -0.843,0.015 l -2.241,0.08 2.063,0.88 c 3.069,1.308 6.643,2.92 9.876,4.946 1.733,1.122 3.107,2.105 4.317,3.086 1.449,1.193 2.721,2.358 3.886,3.559 2.39,2.5 4.584,5.332 6.519,8.419 1.531,2.433 2.929,5.001 4.276,7.849 0.198,0.419 0.649,0.626 1.098,0.508 0.44,-0.118 0.722,-0.517 0.685,-0.969 -0.235,-2.91 -1.039,-6.036 -2.392,-9.292 -1.587,-3.715 -3.803,-7.073 -6.588,-9.986 -1.428,-1.455 -2.977,-2.774 -4.609,-3.924 -1.65,-1.136 -3.426,-2.118 -5.28,-2.925 -3.555,-1.475 -7.257,-2.246 -10.767,-2.246"
       style="fill:#540e36;fill-opacity:1;fill-rule:nonzero;stroke:none"
       transform="matrix(1.3333333,0,0,-1.3333333,76.262533,592.2764)"
       clip-path="url(#clipPath822)" />
    <path
       id="path823"
       d="m 0,0 c 1.512,3.548 3.063,6.884 4.982,9.945 0.981,1.516 1.999,2.984 3.121,4.368 1.133,1.374 2.324,2.691 3.6,3.93 2.571,2.458 5.417,4.65 8.501,6.583 2.352,1.48 4.813,2.822 7.404,4.068 0.541,0.259 0.305,1.078 -0.291,1.015 C 24.386,29.6 21.505,28.749 18.758,27.606 15.159,26.069 11.799,23.867 8.926,21.12 7.507,19.728 6.209,18.209 5.064,16.585 3.938,14.946 2.977,13.201 2.19,11.393 0.677,7.748 -0.138,3.855 0,0"
       style="fill:#f8c995;fill-opacity:1;fill-rule:nonzero;stroke:none"
       transform="matrix(1.3333333,0,0,-1.3333333,36.9924,629.01733)"
       clip-path="url(#clipPath824)" />
    <path
       id="path825"
       d="m 0,0 c -2.661,-0.211 -5.494,-0.973 -8.442,-2.198 -3.596,-1.536 -6.853,-3.686 -9.679,-6.387 -1.404,-1.378 -2.684,-2.881 -3.798,-4.462 -1.092,-1.588 -2.043,-3.307 -2.825,-5.103 -1.187,-2.861 -1.901,-5.823 -2.103,-8.691 1.124,2.513 2.444,5.205 4.013,7.708 1.148,1.773 2.15,3.175 3.156,4.417 1.229,1.489 2.419,2.788 3.641,3.974 2.55,2.439 5.437,4.676 8.583,6.648 2.321,1.46 4.759,2.8 7.454,4.094 m -27.812,-31.602 -0.08,2.242 c -0.134,3.755 0.636,7.766 2.228,11.6 0.81,1.864 1.793,3.639 2.924,5.284 1.152,1.635 2.471,3.184 3.924,4.609 2.917,2.789 6.274,5.005 9.985,6.591 3.042,1.263 5.969,2.049 8.703,2.338 C 0.379,1.113 0.837,0.81 0.978,0.314 1.119,-0.18 0.895,-0.679 0.433,-0.9 c -2.661,-1.279 -5.066,-2.601 -7.355,-4.04 -3.089,-1.938 -5.923,-4.132 -8.421,-6.522 -1.193,-1.157 -2.359,-2.43 -3.56,-3.887 -0.981,-1.211 -1.963,-2.585 -3.087,-4.321 -2.023,-3.226 -3.634,-6.799 -4.942,-9.869 z"
       style="fill:#540e36;fill-opacity:1;fill-rule:nonzero;stroke:none"
       transform="matrix(1.3333333,0,0,-1.3333333,73.5152,589.8924)"
       clip-path="url(#clipPath826)" />
    <path
       id="path827"
       d="M 0,0 V -40.761 H 40.821 C 40.759,-18.257 22.513,-0.029 0,0"
       style="fill:#6b9886;fill-opacity:1;fill-rule:nonzero;stroke:none"
       transform="matrix(1.3333333,0,0,-1.3333333,1.3333333e-4,611.65147)"
       clip-path="url(#clipPath828)" />
    <path
       id="path829"
       d="m 0,0 c 0.276,-2.236 0.747,-4.462 1.718,-6.59 -0.042,-0.084 0.023,-0.162 0.102,-0.122 2.138,-0.982 4.376,-1.455 6.623,-1.731 2.279,-0.257 4.584,-0.273 6.879,0.01 2.291,0.287 4.584,0.793 6.753,1.754 1.739,0.774 3.452,1.794 4.773,3.198 0.303,0.322 -0.008,0.839 -0.439,0.746 -1.809,-0.395 -3.499,-0.667 -5.212,-0.924 -2.099,-0.33 -4.225,-0.529 -6.348,-0.803 -1.941,-0.244 -3.904,-0.481 -5.885,-0.769 2.09,0.69 4.118,1.537 6.063,2.561 2.043,1.079 4.015,2.311 5.834,3.792 1.459,1.201 2.862,2.528 3.993,4.102 0.26,0.361 -0.107,0.851 -0.524,0.694 -1.786,-0.67 -3.457,-1.376 -5.121,-2.12 -2.04,-0.929 -4.064,-1.876 -6.039,-2.927 -0.916,-0.484 -1.826,-0.985 -2.731,-1.5 0.989,0.871 1.953,1.768 2.881,2.698 1.719,1.722 3.342,3.539 4.855,5.466 1.21,1.564 2.364,3.181 3.361,4.957 0.226,0.403 -0.219,0.847 -0.621,0.62 -1.776,-0.996 -3.394,-2.15 -4.957,-3.36 C 14.031,8.239 12.214,6.616 10.493,4.897 9.596,4.003 8.729,3.078 7.888,2.129 8.376,2.99 8.854,3.854 9.315,4.726 c 1.051,1.974 1.998,4 2.927,6.039 0.744,1.664 1.449,3.336 2.12,5.122 0.157,0.417 -0.333,0.783 -0.695,0.523 -1.573,-1.131 -2.9,-2.534 -4.101,-3.992 C 8.084,10.599 6.854,8.626 5.774,6.583 4.75,4.638 3.903,2.609 3.212,0.521 3.5,2.501 3.738,4.464 3.981,6.404 c 0.274,2.124 0.474,4.249 0.804,6.349 0.257,1.714 0.529,3.403 0.923,5.212 0.094,0.431 -0.424,0.742 -0.745,0.439 C 3.559,17.083 2.539,15.371 1.765,13.632 0.804,11.462 0.298,9.169 0.011,6.878 -0.272,4.583 -0.256,2.277 0,0"
       style="fill:#e89a00;fill-opacity:1;fill-rule:nonzero;stroke:none"
       transform="matrix(1.3333333,0,0,-1.3333333,3.5685333,651.21)"
       clip-path="url(#clipPath830)" />
    <path
       id="path831"
       d="m 0,0 c 1.783,-0.803 3.81,-1.325 6.365,-1.641 2.308,-0.258 4.582,-0.257 6.757,0.011 2.571,0.322 4.734,0.884 6.611,1.715 1.978,0.88 3.487,1.889 4.612,3.084 C 22.626,2.702 21.014,2.437 19.131,2.154 17.773,1.939 16.38,1.777 15.033,1.621 14.28,1.533 13.527,1.446 12.773,1.349 L 11.741,1.22 C 10.141,1.02 8.525,0.818 6.897,0.581 l -0.229,0.97 c 2.113,0.698 4.127,1.549 5.987,2.528 2.229,1.179 4.111,2.401 5.751,3.737 1.711,1.41 2.952,2.683 3.903,4.006 C 20.769,11.157 19.15,10.487 17.274,9.649 15.332,8.764 13.258,7.797 11.265,6.737 10.353,6.255 9.448,5.757 8.548,5.243 L 4.32,2.834 7.97,6.053 c 1.051,0.926 1.985,1.802 2.857,2.676 1.742,1.747 3.362,3.57 4.815,5.422 1.44,1.86 2.463,3.37 3.318,4.893 -1.464,-0.916 -2.974,-1.94 -4.835,-3.381 C 12.271,14.208 10.448,12.588 8.707,10.851 7.843,9.988 6.974,9.064 6.123,8.104 L 2.965,4.54 5.313,8.682 c 0.486,0.857 0.963,1.718 1.421,2.585 1.074,2.019 2.035,4.083 2.913,6.012 0.835,1.867 1.505,3.486 2.107,5.09 C 10.496,21.359 9.223,20.118 7.812,18.406 6.475,16.764 5.252,14.882 4.077,12.656 3.095,10.792 2.244,8.778 1.548,6.67 L 0.579,6.899 c 0.238,1.638 0.441,3.264 0.642,4.874 l 0.125,1.001 c 0.098,0.762 0.187,1.522 0.275,2.282 0.156,1.34 0.317,2.726 0.53,4.082 0.244,1.623 0.525,3.384 0.93,5.24 C 1.972,23.224 0.963,21.715 0.083,19.735 -0.748,17.86 -1.309,15.697 -1.632,13.123 -1.899,10.955 -1.903,8.681 -1.643,6.366 -1.328,3.812 -0.805,1.786 0,0 m 9.749,-2.833 c -1.153,0 -2.322,0.066 -3.501,0.199 -2.615,0.323 -4.704,0.857 -6.555,1.676 l -0.11,-0.056 -0.348,0.266 c -0.105,0.104 -0.162,0.243 -0.169,0.386 -0.835,1.868 -1.377,3.972 -1.701,6.607 l -0.001,0.006 c -0.269,2.394 -0.265,4.748 0.011,6.996 0.336,2.673 0.922,4.928 1.793,6.894 0.937,2.104 2.02,3.718 3.313,4.934 0.306,0.287 0.741,0.34 1.108,0.132 0.37,-0.209 0.559,-0.628 0.469,-1.042 C 3.66,22.337 3.381,20.596 3.14,18.985 2.929,17.646 2.77,16.271 2.615,14.939 2.526,14.177 2.437,13.412 2.338,12.647 L 2.213,11.649 C 2.183,11.407 2.152,11.163 2.122,10.92 c 0.337,0.753 0.694,1.488 1.07,2.203 1.207,2.285 2.465,4.221 3.847,5.917 1.468,1.782 2.801,3.079 4.197,4.084 0.343,0.247 0.802,0.24 1.141,-0.02 0.335,-0.257 0.461,-0.694 0.314,-1.086 -0.609,-1.624 -1.287,-3.26 -2.132,-5.15 -0.772,-1.696 -1.607,-3.494 -2.527,-5.278 1.759,1.754 3.602,3.389 5.479,4.862 1.904,1.474 3.451,2.523 5.02,3.403 0.379,0.213 0.839,0.149 1.145,-0.157 0.306,-0.306 0.369,-0.766 0.157,-1.144 -0.881,-1.568 -1.93,-3.116 -3.402,-5.017 -1.48,-1.887 -3.126,-3.74 -4.896,-5.514 -0.011,-0.01 -0.022,-0.021 -0.033,-0.033 1.794,0.928 3.629,1.781 5.36,2.571 1.899,0.847 3.535,1.525 5.153,2.132 0.392,0.149 0.83,0.021 1.087,-0.313 0.258,-0.339 0.266,-0.797 0.019,-1.142 C 22.118,9.844 20.822,8.511 19.04,7.043 17.345,5.663 15.41,4.404 13.122,3.194 12.408,2.819 11.673,2.462 10.918,2.125 c 0.234,0.029 0.467,0.058 0.7,0.087 l 1.029,0.129 c 0.756,0.097 1.514,0.185 2.27,0.273 1.337,0.156 2.72,0.317 4.062,0.529 1.867,0.279 3.461,0.542 5.184,0.917 0.416,0.092 0.832,-0.099 1.042,-0.468 C 25.413,3.225 25.361,2.789 25.073,2.483 23.855,1.189 22.242,0.106 20.139,-0.829 18.17,-1.701 15.916,-2.287 13.245,-2.622 12.103,-2.763 10.934,-2.833 9.749,-2.833"
       style="fill:#540e36;fill-opacity:1;fill-rule:nonzero;stroke:none"
       transform="matrix(1.3333333,0,0,-1.3333333,6.4208,659.61893)"
       clip-path="url(#clipPath832)" />
  </g>
</svg>
