<?xml version="1.0" encoding="UTF-8" standalone="no"?>
<!-- Created with Inkscape (http://www.inkscape.org/) -->

<svg
   version="1.1"
   id="svg1"
   width="89.858704"
   height="89.121216"
   viewBox="0 0 89.858704 89.121216"
   sodipodi:docname="5534258.ai"
   xmlns:inkscape="http://www.inkscape.org/namespaces/inkscape"
   xmlns:sodipodi="http://sodipodi.sourceforge.net/DTD/sodipodi-0.dtd"
   xmlns="http://www.w3.org/2000/svg"
   xmlns:svg="http://www.w3.org/2000/svg">
  <defs
     id="defs1">
    <clipPath
       clipPathUnits="userSpaceOnUse"
       id="clipPath1512">
      <path
         d="M 0,500 H 500 V 0 H 0 Z"
         transform="translate(-54.144701,-350.83371)"
         id="path1512" />
    </clipPath>
    <clipPath
       clipPathUnits="userSpaceOnUse"
       id="clipPath1514">
      <path
         d="M 0,500 H 500 V 0 H 0 Z"
         transform="translate(-53.847802,-352.24141)"
         id="path1514" />
    </clipPath>
    <clipPath
       clipPathUnits="userSpaceOnUse"
       id="clipPath1516">
      <path
         d="M 0,500 H 500 V 0 H 0 Z"
         transform="translate(-42.100701,-376.06021)"
         id="path1516" />
    </clipPath>
    <clipPath
       clipPathUnits="userSpaceOnUse"
       id="clipPath1518">
      <path
         d="M 0,500 H 500 V 0 H 0 Z"
         transform="translate(-54.611501,-389.61791)"
         id="path1518" />
    </clipPath>
    <clipPath
       clipPathUnits="userSpaceOnUse"
       id="clipPath1520">
      <path
         d="M 0,500 H 500 V 0 H 0 Z"
         transform="translate(-107.713,-403.54711)"
         id="path1520" />
    </clipPath>
    <clipPath
       clipPathUnits="userSpaceOnUse"
       id="clipPath1522">
      <path
         d="M 0,500 H 500 V 0 H 0 Z"
         transform="translate(-73.230102,-387.75121)"
         id="path1522" />
    </clipPath>
    <clipPath
       clipPathUnits="userSpaceOnUse"
       id="clipPath1524">
      <path
         d="M 0,500 H 500 V 0 H 0 Z"
         transform="translate(-82.6183,-415.86301)"
         id="path1524" />
    </clipPath>
    <clipPath
       clipPathUnits="userSpaceOnUse"
       id="clipPath1526">
      <path
         d="M 0,500 H 500 V 0 H 0 Z"
         transform="translate(-80.193505,-415.70041)"
         id="path1526" />
    </clipPath>
  </defs>
  <sodipodi:namedview
     id="namedview1"
     pagecolor="#ffffff"
     bordercolor="#000000"
     borderopacity="0.25"
     inkscape:showpageshadow="2"
     inkscape:pageopacity="0.0"
     inkscape:pagecheckerboard="0"
     inkscape:deskcolor="#d1d1d1" />
  <g
     id="layer-MC1"
     inkscape:groupmode="layer"
     inkscape:label="OBJECTS"
     style="display:inline"
     transform="translate(538.63385,-481.70996)">
    <path
       id="path1511"
       d="M 0,0 C 0,0 -0.108,0.123 -0.307,0.391 -0.405,0.526 -0.501,0.702 -0.625,0.922 -0.683,1.033 -0.732,1.155 -0.79,1.29 -0.818,1.357 -0.847,1.428 -0.876,1.5 c -0.026,0.074 -0.049,0.149 -0.073,0.229 -0.203,0.633 -0.336,1.476 -0.276,2.462 0.061,0.983 0.302,2.111 0.8,3.263 0.244,0.582 0.556,1.165 0.935,1.751 0.094,0.143 0.197,0.301 0.292,0.435 0.099,0.138 0.198,0.277 0.299,0.417 0.203,0.271 0.418,0.547 0.638,0.809 0.883,1.062 1.885,2.031 2.807,2.904 0.927,0.875 1.764,1.667 2.383,2.376 0.651,0.744 1.296,1.517 1.927,2.358 0.079,0.106 0.158,0.211 0.239,0.314 0.077,0.107 0.154,0.213 0.231,0.319 0.161,0.206 0.303,0.427 0.461,0.636 0.296,0.431 0.598,0.858 0.878,1.298 0.57,0.874 1.11,1.765 1.594,2.669 0.976,1.8 1.761,3.643 2.3,5.347 0.271,0.851 0.489,1.667 0.645,2.41 0.09,0.374 0.143,0.724 0.211,1.058 0.057,0.332 0.1,0.64 0.147,0.925 0.035,0.285 0.066,0.54 0.094,0.762 0.031,0.226 0.04,0.415 0.058,0.572 0.033,0.318 0.051,0.487 0.051,0.487 0,0 0.133,-0.101 0.38,-0.308 0.121,-0.105 0.28,-0.233 0.447,-0.396 0.169,-0.163 0.363,-0.355 0.577,-0.579 0.203,-0.228 0.433,-0.487 0.669,-0.783 0.225,-0.298 0.484,-0.628 0.72,-1.002 0.494,-0.742 0.981,-1.645 1.408,-2.705 0.427,-1.059 0.786,-2.277 1.005,-3.627 0.218,-1.349 0.296,-2.83 0.168,-4.389 -0.123,-1.558 -0.464,-3.191 -1.057,-4.82 C 19.79,15.876 19.42,15.069 18.997,14.271 18.775,13.876 18.556,13.477 18.3,13.093 18.174,12.9 18.051,12.705 17.917,12.515 17.78,12.327 17.642,12.139 17.503,11.95 16.377,10.452 15.009,9.17 13.546,8.143 13.363,8.015 13.174,7.895 12.988,7.774 12.802,7.656 12.614,7.531 12.433,7.431 12.066,7.216 11.707,7.025 11.359,6.853 10.661,6.507 10.003,6.233 9.389,6 6.931,5.087 5.185,4.717 3.805,4.057 2.384,3.384 1.315,2.457 0.74,1.582 0.702,1.526 0.666,1.473 0.63,1.421 0.599,1.367 0.569,1.314 0.54,1.264 0.483,1.161 0.421,1.06 0.375,0.965 0.291,0.774 0.205,0.6 0.155,0.457 0.054,0.16 0,0 0,0"
       style="fill:#6b9886;fill-opacity:1;fill-rule:nonzero;stroke:none"
       transform="matrix(1.3333333,0,0,-1.3333333,-521.49302,569.53212)"
       clip-path="url(#clipPath1512)"
       inkscape:export-filename="flowergreen1.svg"
       inkscape:export-xdpi="3.9970188"
       inkscape:export-ydpi="3.9970188" />
    <path
       id="path1513"
       d="m 0,0 c 0.04,-0.092 0.075,-0.176 0.116,-0.255 0.018,-0.032 0.035,-0.063 0.051,-0.092 l 0.048,0.107 c 0.044,0.091 0.088,0.168 0.133,0.247 L 0.583,0.396 C 1.289,1.468 2.48,2.435 3.888,3.101 4.69,3.485 5.61,3.774 6.674,4.108 c 0.828,0.261 1.767,0.556 2.838,0.954 0.696,0.263 1.325,0.536 1.922,0.832 0.338,0.167 0.687,0.353 1.043,0.561 0.144,0.08 0.282,0.169 0.42,0.257 l 0.228,0.147 c 0.145,0.094 0.291,0.188 0.433,0.287 1.495,1.05 2.789,2.294 3.843,3.696 l 0.41,0.56 c 0.094,0.135 0.188,0.279 0.281,0.424 l 0.087,0.132 c 0.223,0.336 0.416,0.681 0.608,1.023 l 0.071,0.127 c 0.435,0.82 0.78,1.59 1.05,2.345 0.558,1.531 0.904,3.109 1.029,4.691 0.118,1.439 0.063,2.875 -0.163,4.269 -0.197,1.219 -0.525,2.403 -0.975,3.521 -0.387,0.96 -0.845,1.84 -1.361,2.614 -0.197,0.313 -0.405,0.586 -0.594,0.836 l -0.109,0.143 c -0.209,0.263 -0.423,0.503 -0.612,0.717 -0.227,0.239 -0.417,0.426 -0.581,0.585 -0.026,0.025 -0.052,0.05 -0.077,0.074 -0.005,-0.044 -0.01,-0.09 -0.017,-0.136 L 16.295,31.631 C 16.268,31.45 16.238,31.26 16.204,31.062 L 16.136,30.704 C 16.093,30.469 16.048,30.226 15.987,29.972 15.831,29.226 15.609,28.399 15.332,27.528 14.776,25.766 13.967,23.886 12.995,22.093 12.535,21.234 12.007,20.349 11.38,19.39 11.156,19.037 10.914,18.687 10.671,18.336 L 10.495,18.082 C 10.416,17.976 10.352,17.884 10.288,17.793 10.2,17.668 10.112,17.542 10.017,17.421 L 9.797,17.118 C 9.707,17.002 9.631,16.902 9.556,16.8 8.989,16.044 8.369,15.285 7.603,14.409 6.961,13.674 6.099,12.86 5.186,11.998 4.305,11.164 3.291,10.186 2.42,9.139 2.204,8.881 1.996,8.612 1.796,8.348 L 1.506,7.941 C 1.425,7.827 1.337,7.694 1.255,7.569 0.866,6.969 0.565,6.406 0.333,5.853 -0.104,4.844 -0.366,3.774 -0.428,2.753 -0.492,1.718 -0.327,0.942 -0.176,0.474 l 0.114,-0.327 -0.397,-0.343 z m 0.496,-2.382 -0.574,0.643 c 0,0 -0.118,0.133 -0.334,0.426 -0.102,0.139 -0.201,0.313 -0.323,0.531 -0.089,0.166 -0.135,0.273 -0.184,0.389 l -0.206,0.549 c -0.18,0.563 -0.375,1.469 -0.301,2.658 0.069,1.136 0.36,2.322 0.839,3.431 0.253,0.603 0.582,1.218 0.975,1.824 0.12,0.184 0.216,0.328 0.304,0.453 L 0.991,8.94 c 0.217,0.288 0.436,0.572 0.663,0.84 0.903,1.088 1.942,2.091 2.845,2.945 0.896,0.845 1.741,1.643 2.35,2.342 0.751,0.857 1.356,1.598 1.904,2.329 0.079,0.107 0.162,0.216 0.246,0.323 l 0.22,0.304 c 0.094,0.122 0.172,0.233 0.251,0.345 0.07,0.1 0.14,0.2 0.214,0.298 l 0.165,0.239 c 0.235,0.34 0.47,0.679 0.691,1.027 0.613,0.94 1.127,1.8 1.575,2.635 0.944,1.741 1.726,3.559 2.263,5.263 0.268,0.84 0.481,1.635 0.634,2.361 0.059,0.25 0.101,0.476 0.141,0.694 l 0.068,0.361 c 0.03,0.178 0.059,0.361 0.086,0.537 l 0.15,1.112 c 0.018,0.14 0.028,0.259 0.038,0.366 l 0.161,1.565 0.707,-0.534 c 0,0 0.141,-0.106 0.401,-0.325 l 0.097,-0.082 c 0.112,-0.095 0.243,-0.206 0.378,-0.339 0.17,-0.164 0.369,-0.361 0.589,-0.59 0.243,-0.274 0.468,-0.528 0.698,-0.817 l 0.114,-0.151 c 0.206,-0.271 0.43,-0.567 0.637,-0.895 0.547,-0.821 1.037,-1.762 1.45,-2.785 0.478,-1.187 0.825,-2.443 1.034,-3.735 0.239,-1.474 0.298,-2.991 0.174,-4.509 -0.133,-1.671 -0.498,-3.337 -1.087,-4.951 -0.285,-0.797 -0.649,-1.611 -1.112,-2.484 l -0.077,-0.137 c -0.204,-0.364 -0.41,-0.731 -0.646,-1.084 l -0.082,-0.126 c -0.1,-0.156 -0.201,-0.311 -0.308,-0.463 L 18.204,10.247 C 17.083,8.756 15.713,7.438 14.131,6.326 13.977,6.219 13.822,6.119 13.668,6.019 L 13.437,5.871 C 13.281,5.77 13.124,5.67 12.972,5.586 12.604,5.371 12.236,5.174 11.877,4.997 11.251,4.687 10.593,4.402 9.863,4.125 8.766,3.718 7.814,3.418 6.974,3.154 5.946,2.832 5.058,2.552 4.318,2.198 3.069,1.607 2.026,0.77 1.455,-0.101 L 1.339,-0.271 0.837,-0.144 1.274,-0.387 1.217,-0.488 C 1.183,-0.548 1.149,-0.606 1.122,-0.662 L 1.054,-0.813 C 1.002,-0.925 0.955,-1.027 0.923,-1.117 Z"
       style="fill:#540e36;fill-opacity:1;fill-rule:nonzero;stroke:none"
       transform="matrix(1.3333333,0,0,-1.3333333,-521.88889,567.65519)"
       clip-path="url(#clipPath1514)" />
    <path
       id="path1515"
       d="m 0,0 c 0,0 -0.038,0.129 -0.096,0.379 -0.055,0.249 -0.142,0.627 -0.177,1.111 -0.092,0.972 -0.058,2.436 0.526,4.161 0.075,0.214 0.15,0.438 0.24,0.659 0.094,0.218 0.194,0.441 0.301,0.669 0.104,0.232 0.227,0.454 0.358,0.682 0.132,0.225 0.262,0.465 0.416,0.689 0.599,0.919 1.382,1.821 2.346,2.648 0.246,0.201 0.493,0.412 0.76,0.601 0.269,0.188 0.546,0.374 0.831,0.557 0.292,0.17 0.593,0.336 0.902,0.499 0.309,0.16 0.637,0.295 0.967,0.436 l 0.25,0.102 0.256,0.09 c 0.172,0.058 0.347,0.115 0.522,0.17 0.355,0.117 0.7,0.199 1.053,0.281 0.696,0.148 1.4,0.25 2.075,0.292 1.354,0.087 2.561,-0.017 3.608,-0.19 1.056,-0.174 1.959,-0.417 2.772,-0.667 0.205,-0.064 0.396,-0.125 0.591,-0.19 0.182,-0.064 0.361,-0.126 0.539,-0.189 0.177,-0.062 0.352,-0.123 0.525,-0.184 0.174,-0.062 0.346,-0.122 0.514,-0.178 0.675,-0.232 1.318,-0.441 1.93,-0.608 0.613,-0.167 1.195,-0.289 1.741,-0.362 0.138,-0.014 0.271,-0.029 0.399,-0.042 0.134,-0.016 0.255,-0.016 0.38,-0.023 0.253,-0.017 0.478,-0.008 0.697,-0.003 0.11,10e-4 0.211,0.009 0.307,0.019 0.098,0.009 0.191,0.018 0.277,0.026 0.178,0.014 0.322,0.043 0.445,0.063 0.25,0.042 0.386,0.065 0.386,0.065 0,0 -0.01,-0.132 -0.051,-0.39 C 26.569,11.045 26.543,10.88 26.49,10.7 26.464,10.608 26.436,10.508 26.402,10.401 26.37,10.292 26.331,10.179 26.282,10.064 26.187,9.832 26.075,9.563 25.92,9.295 25.844,9.16 25.764,9.01 25.67,8.87 25.576,8.729 25.475,8.582 25.366,8.429 24.925,7.837 24.334,7.213 23.603,6.634 22.873,6.054 22.006,5.52 21.043,5.074 20.802,4.959 20.556,4.854 20.304,4.755 20.051,4.651 19.796,4.562 19.533,4.471 19.27,4.379 19.007,4.303 18.734,4.223 18.477,4.15 18.209,4.077 17.95,4.014 16.905,3.755 15.858,3.58 14.894,3.455 13.92,3.331 13.032,3.25 12.246,3.199 11.85,3.175 11.501,3.151 11.165,3.142 11.005,3.132 10.837,3.133 10.694,3.122 10.62,3.119 10.544,3.117 10.468,3.117 L 10.354,3.118 10.24,3.109 C 10.088,3.097 9.931,3.104 9.775,3.092 9.62,3.078 9.461,3.071 9.3,3.067 9.142,3.049 8.981,3.036 8.817,3.027 8.652,3.017 8.493,2.989 8.326,2.976 7.67,2.899 6.988,2.803 6.322,2.656 5.664,2.505 4.989,2.34 4.376,2.125 3.125,1.716 2.024,1.184 1.25,0.746 0.851,0.532 0.554,0.336 0.337,0.205 0.118,0.072 0,0 0,0"
       style="fill:#6b9886;fill-opacity:1;fill-rule:nonzero;stroke:none"
       transform="matrix(1.3333333,0,0,-1.3333333,-537.55169,535.89679)"
       clip-path="url(#clipPath1516)" />
    <path
       id="path1517"
       d="m 0,0 c -0.317,0 -0.632,-0.01 -0.949,-0.031 -0.637,-0.039 -1.31,-0.134 -2.003,-0.282 -0.329,-0.077 -0.66,-0.154 -1,-0.266 -0.179,-0.057 -0.35,-0.112 -0.518,-0.17 l -0.623,-0.243 c -0.266,-0.113 -0.53,-0.224 -0.781,-0.355 -0.299,-0.157 -0.594,-0.32 -0.88,-0.486 -0.261,-0.169 -0.533,-0.352 -0.796,-0.536 -0.207,-0.146 -0.402,-0.307 -0.594,-0.466 l -0.135,-0.111 c -0.889,-0.762 -1.647,-1.617 -2.244,-2.535 -0.12,-0.172 -0.216,-0.342 -0.311,-0.507 l -0.093,-0.161 c -0.12,-0.209 -0.236,-0.417 -0.333,-0.633 -0.109,-0.232 -0.207,-0.45 -0.298,-0.663 -0.073,-0.179 -0.138,-0.368 -0.202,-0.552 -0.59,-1.742 -0.61,-3.143 -0.526,-4.023 0.021,-0.296 0.062,-0.544 0.103,-0.751 0.188,0.117 0.414,0.254 0.686,0.4 0.564,0.319 1.747,0.936 3.207,1.413 0.624,0.22 1.326,0.392 1.99,0.543 0.588,0.13 1.221,0.232 2.057,0.33 l 0.229,0.024 c 0.097,0.012 0.192,0.023 0.289,0.029 0.159,0.009 0.309,0.021 0.457,0.038 0.196,0.007 0.344,0.014 0.489,0.026 0.091,0.007 0.177,0.009 0.262,0.01 0.069,10e-4 0.138,0.002 0.205,0.008 l 0.476,0.013 c 0.064,0.006 0.157,0.009 0.253,0.012 l 0.206,0.008 c 0.297,0.009 0.587,0.027 0.906,0.046 l 0.176,0.011 c 0.866,0.057 1.747,0.142 2.615,0.253 1.108,0.144 2.089,0.323 2.999,0.548 0.255,0.063 0.517,0.135 0.768,0.205 0.294,0.087 0.533,0.157 0.771,0.239 0.255,0.089 0.501,0.175 0.746,0.275 0.247,0.098 0.483,0.198 0.715,0.308 0.916,0.425 1.743,0.929 2.462,1.5 0.646,0.511 1.224,1.1 1.673,1.702 0.1,0.14 0.198,0.282 0.288,0.418 0.069,0.102 0.127,0.207 0.182,0.306 l 0.051,0.09 c 0.144,0.25 0.247,0.499 0.334,0.712 0.044,0.103 0.076,0.2 0.104,0.292 l 0.084,0.287 c 0.013,0.043 0.024,0.085 0.033,0.125 -0.063,-0.009 -0.125,-0.016 -0.191,-0.021 l -0.27,-0.025 c -0.106,-0.012 -0.222,-0.021 -0.35,-0.021 -0.286,-0.006 -0.5,-0.012 -0.733,0.003 l -0.108,0.005 c -0.096,0.004 -0.192,0.008 -0.295,0.02 l -0.396,0.043 c -0.577,0.077 -1.184,0.203 -1.82,0.376 -0.541,0.148 -1.146,0.338 -1.961,0.617 -0.166,0.056 -0.341,0.117 -0.518,0.18 L 5.825,-1.051 C 5.639,-0.988 5.452,-0.929 5.25,-0.866 4.262,-0.562 3.427,-0.36 2.546,-0.215 1.675,-0.071 0.834,0 0,0 m -12.802,-14.322 -0.188,0.621 c 0,0 -0.042,0.14 -0.104,0.411 -0.066,0.298 -0.153,0.689 -0.188,1.187 -0.092,0.966 -0.072,2.518 0.551,4.357 0.095,0.276 0.167,0.482 0.25,0.686 0.1,0.233 0.202,0.461 0.313,0.695 0.105,0.238 0.236,0.474 0.376,0.717 l 0.09,0.157 c 0.109,0.19 0.222,0.385 0.349,0.568 0.641,0.985 1.461,1.912 2.432,2.743 l 0.141,0.117 c 0.211,0.173 0.426,0.351 0.655,0.512 0.276,0.194 0.558,0.383 0.849,0.57 0.316,0.185 0.624,0.355 0.939,0.521 0.276,0.143 0.563,0.265 0.853,0.389 l 0.69,0.268 c 0.179,0.061 0.357,0.119 0.535,0.176 0.363,0.119 0.722,0.205 1.091,0.291 0.748,0.159 1.471,0.261 2.156,0.303 C 0.215,1.046 1.431,0.982 2.709,0.771 3.911,0.573 4.904,0.287 5.546,0.089 5.756,0.023 5.951,-0.038 6.15,-0.105 L 7.221,-0.48 c 0.171,-0.061 0.34,-0.12 0.505,-0.175 0.669,-0.23 1.301,-0.436 1.904,-0.6 0.593,-0.162 1.157,-0.279 1.676,-0.349 l 0.385,-0.041 c 0.082,-0.009 0.156,-0.012 0.229,-0.015 l 0.127,-0.006 c 0.205,-0.013 0.388,-0.008 0.565,-0.004 0.193,0.003 0.279,0.01 0.36,0.019 l 0.279,0.026 c 0.135,0.011 0.242,0.03 0.335,0.045 l 1.087,0.185 -0.045,-0.636 c 0,0 -0.01,-0.147 -0.055,-0.432 C 14.546,-2.628 14.516,-2.806 14.458,-3 L 14.369,-3.304 C 14.333,-3.426 14.288,-3.557 14.231,-3.689 14.132,-3.933 14.01,-4.223 13.843,-4.512 13.729,-4.716 13.656,-4.845 13.574,-4.967 13.479,-5.11 13.375,-5.262 13.261,-5.42 12.756,-6.098 12.115,-6.751 11.402,-7.315 10.622,-7.935 9.728,-8.481 8.743,-8.938 8.495,-9.055 8.239,-9.164 7.978,-9.268 7.721,-9.373 7.458,-9.466 7.186,-9.56 6.933,-9.647 6.679,-9.722 6.417,-9.799 6.097,-9.89 5.823,-9.965 5.559,-10.03 c -0.946,-0.234 -1.965,-0.42 -3.112,-0.569 -0.889,-0.113 -1.79,-0.2 -2.679,-0.259 l -0.178,-0.011 c -0.331,-0.02 -0.631,-0.038 -0.922,-0.047 l -0.222,-0.008 c -0.077,-0.003 -0.153,-0.005 -0.221,-0.011 -0.104,-0.004 -0.19,-0.003 -0.271,-0.005 l -0.115,10e-4 -0.071,-0.008 c -0.086,-0.007 -0.176,-0.009 -0.268,-0.011 -0.065,0 -0.132,-10e-4 -0.198,-0.006 -0.159,-0.015 -0.328,-0.022 -0.501,-0.027 -0.123,-0.016 -0.293,-0.03 -0.468,-0.039 -0.073,-0.005 -0.15,-0.014 -0.227,-0.023 -0.083,-0.01 -0.167,-0.021 -0.252,-0.027 -0.781,-0.092 -1.384,-0.189 -1.935,-0.31 -0.73,-0.168 -1.333,-0.319 -1.888,-0.515 -1.388,-0.453 -2.503,-1.035 -3.045,-1.342 -0.3,-0.16 -0.533,-0.305 -0.719,-0.421 z"
       style="fill:#540e36;fill-opacity:1;fill-rule:nonzero;stroke:none"
       transform="matrix(1.3333333,0,0,-1.3333333,-520.87062,517.81985)"
       clip-path="url(#clipPath1518)" />
    <path
       id="path1519"
       d="m 0,0 c 0,0 -0.121,0.109 -0.387,0.311 -0.134,0.1 -0.309,0.198 -0.529,0.324 -0.109,0.059 -0.231,0.11 -0.365,0.169 -0.068,0.029 -0.137,0.058 -0.21,0.089 C -1.563,0.918 -1.639,0.942 -1.718,0.968 -2.35,1.178 -3.191,1.32 -4.177,1.27 -5.161,1.22 -6.292,0.992 -7.449,0.505 -8.033,0.268 -8.62,-0.037 -9.21,-0.411 c -0.144,-0.092 -0.303,-0.193 -0.438,-0.287 -0.139,-0.097 -0.279,-0.195 -0.42,-0.294 -0.273,-0.201 -0.552,-0.412 -0.816,-0.63 -1.072,-0.871 -2.051,-1.862 -2.934,-2.775 -0.885,-0.917 -1.685,-1.746 -2.402,-2.357 -0.75,-0.643 -1.53,-1.28 -2.379,-1.902 -0.107,-0.076 -0.213,-0.155 -0.316,-0.235 -0.107,-0.076 -0.214,-0.152 -0.321,-0.228 -0.208,-0.158 -0.431,-0.298 -0.641,-0.453 -0.435,-0.292 -0.865,-0.59 -1.309,-0.865 -0.879,-0.56 -1.776,-1.091 -2.685,-1.564 -1.811,-0.957 -3.662,-1.722 -5.372,-2.242 -0.854,-0.262 -1.672,-0.472 -2.416,-0.619 -0.376,-0.086 -0.726,-0.136 -1.061,-0.2 -0.332,-0.053 -0.64,-0.093 -0.926,-0.136 -0.286,-0.032 -0.541,-0.061 -0.763,-0.087 -0.226,-0.028 -0.415,-0.035 -0.573,-0.051 -0.318,-0.03 -0.488,-0.046 -0.488,-0.046 0,0 0.1,-0.135 0.305,-0.383 0.103,-0.122 0.229,-0.283 0.391,-0.452 0.161,-0.17 0.351,-0.366 0.573,-0.583 0.226,-0.205 0.481,-0.438 0.775,-0.677 0.296,-0.229 0.623,-0.491 0.994,-0.731 0.737,-0.502 1.635,-0.999 2.69,-1.438 1.054,-0.437 2.268,-0.811 3.616,-1.043 1.347,-0.234 2.827,-0.327 4.386,-0.216 1.56,0.106 3.197,0.429 4.831,1.006 0.82,0.282 1.631,0.643 2.434,1.057 0.396,0.217 0.798,0.432 1.185,0.684 0.194,0.124 0.391,0.245 0.582,0.377 0.189,0.135 0.379,0.271 0.57,0.407 1.51,1.111 2.806,2.465 3.849,3.916 0.13,0.183 0.252,0.37 0.374,0.555 0.121,0.184 0.248,0.371 0.351,0.551 0.218,0.365 0.413,0.722 0.589,1.068 0.353,0.694 0.634,1.349 0.873,1.96 0.94,2.449 1.329,4.19 2.005,5.563 0.688,1.414 1.627,2.472 2.508,3.038 0.055,0.037 0.109,0.073 0.162,0.108 0.054,0.031 0.107,0.06 0.157,0.089 0.104,0.056 0.206,0.116 0.301,0.161 0.192,0.082 0.367,0.166 0.511,0.215 C -0.16,-0.052 0,0 0,0"
       style="fill:#6b9886;fill-opacity:1;fill-rule:nonzero;stroke:none"
       transform="matrix(1.3333333,0,0,-1.3333333,-450.06862,499.24759)"
       clip-path="url(#clipPath1520)" />
    <path
       id="path1521"
       d="m 0,0 c 0.022,-0.024 0.045,-0.049 0.069,-0.074 0.16,-0.17 0.345,-0.361 0.562,-0.572 0.228,-0.207 0.468,-0.425 0.741,-0.647 l 0.132,-0.102 c 0.247,-0.192 0.517,-0.403 0.818,-0.596 0.78,-0.532 1.654,-0.999 2.611,-1.397 1.111,-0.462 2.292,-0.802 3.509,-1.013 1.391,-0.242 2.826,-0.311 4.266,-0.21 1.584,0.109 3.165,0.438 4.7,0.979 0.759,0.262 1.534,0.598 2.37,1.03 l 0.116,0.064 c 0.344,0.188 0.691,0.377 1.026,0.595 l 0.125,0.079 c 0.149,0.095 0.3,0.19 0.447,0.291 l 0.562,0.402 c 1.408,1.036 2.667,2.317 3.735,3.801 0.1,0.142 0.198,0.29 0.295,0.437 l 0.144,0.218 c 0.089,0.137 0.18,0.274 0.256,0.407 0.218,0.363 0.407,0.71 0.578,1.047 0.301,0.591 0.58,1.218 0.854,1.916 0.407,1.061 0.712,1.996 0.981,2.822 0.347,1.061 0.646,1.978 1.04,2.778 0.68,1.398 1.66,2.579 2.687,3.239 l 0.444,0.266 c 0.08,0.045 0.158,0.088 0.233,0.123 l 0.122,0.054 c -0.016,0.009 -0.033,0.019 -0.05,0.029 -0.121,0.067 -0.207,0.104 -0.3,0.144 l -0.434,0.169 C 32.14,16.444 31.364,16.62 30.331,16.566 29.308,16.515 28.235,16.264 27.228,15.84 26.665,15.611 26.099,15.316 25.54,14.963 25.364,14.85 25.233,14.766 25.121,14.688 l -0.42,-0.293 C 24.446,14.206 24.174,14 23.917,13.788 22.859,12.929 21.908,11.965 21.024,11.051 20.152,10.147 19.327,9.292 18.588,8.661 17.702,7.903 16.936,7.291 16.179,6.737 16.074,6.661 15.972,6.585 15.873,6.509 L 15.537,6.27 C 15.429,6.187 15.303,6.101 15.177,6.014 15.084,5.951 14.992,5.887 14.902,5.821 L 14.627,5.635 C 14.274,5.396 13.922,5.158 13.561,4.935 12.598,4.321 11.708,3.802 10.844,3.351 9.045,2.401 7.157,1.613 5.385,1.074 4.511,0.807 3.682,0.594 2.921,0.443 2.678,0.387 2.431,0.344 2.193,0.303 L 1.855,0.243 C 1.639,0.208 1.445,0.18 1.259,0.154 L 0.131,0.015 C 0.086,0.009 0.042,0.004 0,0 m 11.433,-5.656 c -1.067,0 -2.125,0.09 -3.162,0.27 -1.29,0.223 -2.542,0.584 -3.722,1.074 -1.02,0.424 -1.955,0.924 -2.78,1.487 -0.315,0.203 -0.609,0.431 -0.878,0.64 l -0.14,0.108 c -0.299,0.243 -0.552,0.473 -0.777,0.677 -0.269,0.26 -0.463,0.461 -0.628,0.635 -0.131,0.136 -0.242,0.27 -0.337,0.385 l -0.073,0.088 c -0.219,0.266 -0.324,0.408 -0.324,0.408 l -0.528,0.712 1.574,0.147 c 0.106,0.007 0.224,0.016 0.355,0.032 l 1.105,0.137 c 0.18,0.025 0.368,0.052 0.565,0.084 l 0.34,0.061 c 0.221,0.038 0.45,0.077 0.689,0.132 0.743,0.147 1.538,0.351 2.381,0.61 1.713,0.52 3.54,1.283 5.286,2.205 0.84,0.439 1.706,0.944 2.65,1.545 0.355,0.22 0.697,0.451 1.038,0.683 l 0.259,0.175 c 0.082,0.06 0.183,0.13 0.285,0.199 0.112,0.078 0.225,0.155 0.333,0.237 l 0.335,0.238 c 0.092,0.071 0.201,0.152 0.312,0.232 0.734,0.538 1.48,1.134 2.347,1.876 0.703,0.6 1.511,1.438 2.367,2.325 0.866,0.895 1.881,1.924 2.978,2.816 0.269,0.222 0.555,0.438 0.835,0.645 l 0.431,0.301 c 0.123,0.086 0.264,0.177 0.398,0.262 0.667,0.423 1.286,0.744 1.898,0.994 1.109,0.466 2.299,0.744 3.436,0.801 1.191,0.059 2.093,-0.145 2.641,-0.327 l 0.482,-0.181 c 0.189,-0.083 0.299,-0.132 0.4,-0.186 0.281,-0.161 0.455,-0.263 0.591,-0.364 0.292,-0.22 0.423,-0.34 0.423,-0.34 L 35.453,15.589 34.18,15.171 C 34.097,15.143 33.994,15.096 33.883,15.046 L 33.712,14.972 C 33.672,14.953 33.614,14.92 33.555,14.887 L 33.164,14.652 C 32.287,14.089 31.438,13.055 30.835,11.816 30.472,11.077 30.183,10.191 29.848,9.166 29.575,8.33 29.266,7.382 28.848,6.293 28.561,5.561 28.269,4.906 27.954,4.285 27.772,3.929 27.572,3.562 27.347,3.188 27.267,3.045 27.165,2.891 27.063,2.736 L 26.918,2.516 C 26.815,2.359 26.711,2.202 26.602,2.049 25.471,0.477 24.139,-0.878 22.641,-1.98 L 22.066,-2.392 C 21.901,-2.505 21.74,-2.607 21.579,-2.709 L 21.461,-2.784 C 21.109,-3.013 20.74,-3.215 20.374,-3.416 L 20.248,-3.484 C 19.357,-3.945 18.54,-4.3 17.737,-4.576 16.12,-5.146 14.45,-5.494 12.778,-5.608 12.329,-5.64 11.88,-5.656 11.433,-5.656"
       style="fill:#540e36;fill-opacity:1;fill-rule:nonzero;stroke:none"
       transform="matrix(1.3333333,0,0,-1.3333333,-496.04582,520.30879)"
       clip-path="url(#clipPath1522)" />
    <path
       id="path1523"
       d="m 0,0 c 0,0 -0.128,0.04 -0.378,0.1 -0.248,0.058 -0.626,0.149 -1.109,0.189 -0.971,0.103 -2.435,0.085 -4.167,-0.481 -0.214,-0.072 -0.439,-0.145 -0.661,-0.233 -0.219,-0.091 -0.443,-0.189 -0.672,-0.293 -0.233,-0.102 -0.457,-0.223 -0.685,-0.35 -0.227,-0.13 -0.469,-0.257 -0.694,-0.41 -0.925,-0.588 -1.836,-1.361 -2.674,-2.317 -0.203,-0.243 -0.417,-0.488 -0.608,-0.753 -0.191,-0.267 -0.38,-0.542 -0.567,-0.825 -0.173,-0.29 -0.342,-0.589 -0.508,-0.897 -0.164,-0.307 -0.302,-0.634 -0.446,-0.962 l -0.106,-0.248 -0.092,-0.256 c -0.06,-0.171 -0.119,-0.345 -0.176,-0.52 -0.121,-0.353 -0.206,-0.697 -0.292,-1.05 -0.156,-0.694 -0.266,-1.397 -0.314,-2.071 -0.102,-1.353 -0.011,-2.561 0.15,-3.61 0.163,-1.059 0.395,-1.964 0.637,-2.779 0.062,-0.206 0.12,-0.398 0.184,-0.594 0.062,-0.182 0.122,-0.362 0.183,-0.54 0.06,-0.178 0.12,-0.354 0.178,-0.528 0.06,-0.174 0.118,-0.347 0.172,-0.515 0.225,-0.678 0.428,-1.323 0.587,-1.937 0.161,-0.614 0.276,-1.198 0.343,-1.745 0.014,-0.137 0.027,-0.271 0.039,-0.399 0.013,-0.134 0.013,-0.255 0.019,-0.38 0.014,-0.253 0.002,-0.478 -0.005,-0.697 -0.003,-0.11 -0.011,-0.211 -0.022,-0.307 -0.01,-0.098 -0.02,-0.191 -0.029,-0.277 -0.016,-0.177 -0.046,-0.321 -0.068,-0.444 -0.045,-0.249 -0.07,-0.385 -0.07,-0.385 0,0 0.133,0.009 0.391,0.047 0.128,0.02 0.293,0.043 0.474,0.095 0.092,0.024 0.193,0.052 0.3,0.084 0.109,0.032 0.223,0.069 0.338,0.116 0.233,0.093 0.503,0.202 0.773,0.354 0.136,0.075 0.287,0.153 0.428,0.246 0.142,0.092 0.291,0.191 0.444,0.299 0.597,0.435 1.227,1.019 1.814,1.744 0.588,0.724 1.131,1.585 1.588,2.542 0.117,0.24 0.224,0.485 0.327,0.736 0.107,0.252 0.199,0.505 0.292,0.768 0.094,0.261 0.174,0.524 0.257,0.796 0.075,0.256 0.152,0.522 0.217,0.781 0.27,1.043 0.457,2.088 0.593,3.051 0.135,0.972 0.224,1.859 0.284,2.645 0.028,0.396 0.056,0.744 0.068,1.08 0.013,0.159 0.013,0.327 0.026,0.47 0.004,0.075 0.007,0.15 0.007,0.226 v 0.115 l 0.01,0.113 c 0.015,0.152 0.009,0.31 0.023,0.465 0.015,0.155 0.024,0.313 0.03,0.475 0.02,0.158 0.034,0.318 0.045,0.483 0.012,0.164 0.042,0.323 0.056,0.49 0.085,0.655 0.188,1.336 0.342,2 0.158,0.657 0.33,1.33 0.552,1.941 0.422,1.246 0.966,2.341 1.413,3.11 0.218,0.397 0.417,0.692 0.551,0.908 C -0.073,-0.117 0,0 0,0"
       style="fill:#6b9886;fill-opacity:1;fill-rule:nonzero;stroke:none"
       transform="matrix(1.3333333,0,0,-1.3333333,-483.52822,482.82639)"
       clip-path="url(#clipPath1524)" />
    <path
       id="path1525"
       d="m 0,0 c -0.829,0 -1.881,-0.115 -3.074,-0.504 -0.244,-0.082 -0.44,-0.147 -0.633,-0.224 -0.205,-0.085 -0.424,-0.18 -0.648,-0.283 -0.226,-0.098 -0.435,-0.212 -0.649,-0.331 l -0.167,-0.095 c -0.163,-0.091 -0.331,-0.185 -0.49,-0.292 -0.935,-0.595 -1.798,-1.344 -2.578,-2.233 l -0.109,-0.129 c -0.159,-0.19 -0.322,-0.382 -0.47,-0.588 -0.186,-0.259 -0.371,-0.529 -0.554,-0.806 -0.159,-0.266 -0.324,-0.559 -0.486,-0.86 -0.132,-0.247 -0.247,-0.51 -0.363,-0.776 l -0.25,-0.621 c -0.059,-0.165 -0.116,-0.335 -0.172,-0.506 -0.118,-0.346 -0.199,-0.676 -0.282,-1.014 -0.153,-0.683 -0.255,-1.355 -0.301,-1.988 -0.087,-1.151 -0.039,-2.295 0.146,-3.499 0.178,-1.148 0.44,-2.098 0.622,-2.712 0.061,-0.2 0.118,-0.388 0.181,-0.581 l 0.533,-1.585 c 0.269,-0.812 0.453,-1.419 0.595,-1.964 0.168,-0.642 0.287,-1.251 0.355,-1.811 l 0.04,-0.412 c 0.011,-0.102 0.014,-0.199 0.017,-0.296 l 0.004,-0.108 c 0.013,-0.231 0.006,-0.445 -10e-4,-0.65 -0.006,-0.208 -0.016,-0.324 -0.028,-0.433 l -0.03,-0.275 c -0.005,-0.063 -0.013,-0.124 -0.021,-0.182 0.038,0.008 0.076,0.018 0.115,0.029 l 0.295,0.083 c 0.094,0.027 0.192,0.059 0.29,0.099 0.219,0.088 0.469,0.188 0.717,0.327 l 0.092,0.051 c 0.1,0.054 0.207,0.111 0.306,0.177 0.142,0.091 0.284,0.187 0.432,0.29 0.601,0.439 1.196,1.011 1.713,1.65 0.581,0.715 1.093,1.536 1.526,2.443 0.113,0.234 0.217,0.469 0.315,0.71 0.105,0.249 0.194,0.493 0.284,0.747 0.088,0.244 0.163,0.489 0.24,0.742 0.082,0.277 0.156,0.537 0.221,0.79 0.235,0.909 0.425,1.889 0.581,2.997 0.12,0.863 0.215,1.743 0.281,2.614 l 0.012,0.169 c 0.024,0.32 0.045,0.611 0.056,0.891 l 0.011,0.228 c 0.004,0.094 0.008,0.186 0.015,0.27 0.003,0.049 0.005,0.116 0.006,0.183 L -1.293,-10 c 0.006,0.072 0.008,0.14 0.01,0.208 0.002,0.086 0.005,0.172 0.012,0.257 0.016,0.151 0.023,0.299 0.029,0.45 0.022,0.191 0.036,0.342 0.046,0.497 0.007,0.1 0.019,0.193 0.032,0.288 0.009,0.07 0.018,0.139 0.025,0.212 0.075,0.583 0.18,1.324 0.352,2.07 0.186,0.77 0.353,1.402 0.57,1.999 0.49,1.447 1.119,2.621 1.451,3.191 0.143,0.262 0.283,0.485 0.4,0.671 C 1.425,-0.113 1.181,-0.07 0.896,-0.046 0.638,-0.02 0.337,0 0,0 m -10.031,-26.887 0.183,1.01 c 0.03,0.164 0.05,0.272 0.061,0.4 l 0.031,0.283 c 0.009,0.086 0.017,0.173 0.019,0.267 0.009,0.272 0.017,0.455 0.006,0.657 l -0.005,0.129 c -0.003,0.074 -0.005,0.148 -0.013,0.228 l -0.039,0.403 c -0.061,0.503 -0.172,1.068 -0.329,1.667 -0.157,0.604 -0.356,1.239 -0.577,1.906 l -0.533,1.579 c -0.066,0.206 -0.126,0.401 -0.189,0.61 -0.191,0.645 -0.465,1.639 -0.652,2.847 -0.197,1.28 -0.247,2.498 -0.155,3.724 0.049,0.681 0.159,1.403 0.325,2.143 0.092,0.377 0.181,0.735 0.307,1.103 0.056,0.172 0.116,0.349 0.177,0.524 l 0.277,0.687 c 0.126,0.29 0.252,0.576 0.397,0.848 0.171,0.316 0.344,0.622 0.521,0.919 0.201,0.306 0.394,0.586 0.589,0.858 0.164,0.228 0.342,0.44 0.517,0.648 l 0.114,0.135 c 0.85,0.97 1.786,1.781 2.789,2.419 0.17,0.115 0.362,0.224 0.55,0.329 l 0.164,0.092 c 0.248,0.139 0.486,0.266 0.734,0.375 0.226,0.103 0.455,0.203 0.679,0.296 0.22,0.087 0.432,0.158 0.636,0.226 C -1.536,1.05 0.015,1.053 0.99,0.949 1.483,0.908 1.876,0.816 2.136,0.755 2.435,0.684 2.574,0.64 2.574,0.64 L 3.19,0.446 2.528,-0.615 C 2.41,-0.8 2.262,-1.032 2.104,-1.32 1.786,-1.868 1.192,-2.976 0.727,-4.35 0.522,-4.914 0.363,-5.515 0.187,-6.248 0.025,-6.947 -0.076,-7.656 -0.145,-8.195 -0.15,-8.261 -0.162,-8.347 -0.173,-8.432 c -0.01,-0.075 -0.02,-0.15 -0.026,-0.226 -0.01,-0.17 -0.026,-0.34 -0.047,-0.507 -0.003,-0.129 -0.012,-0.298 -0.029,-0.464 -0.005,-0.059 -0.007,-0.125 -0.009,-0.191 -0.002,-0.091 -0.005,-0.182 -0.014,-0.271 l -0.009,-0.109 0.002,-0.071 c -0.001,-0.088 -0.004,-0.172 -0.008,-0.255 -0.008,-0.085 -0.011,-0.159 -0.014,-0.235 l -0.012,-0.245 c -0.01,-0.272 -0.032,-0.574 -0.056,-0.906 l -0.013,-0.171 c -0.068,-0.894 -0.165,-1.794 -0.287,-2.678 -0.162,-1.148 -0.359,-2.164 -0.604,-3.108 -0.067,-0.262 -0.144,-0.535 -0.222,-0.797 -0.093,-0.305 -0.172,-0.564 -0.265,-0.823 -0.097,-0.271 -0.192,-0.533 -0.303,-0.795 -0.104,-0.255 -0.216,-0.509 -0.337,-0.758 -0.465,-0.975 -1.021,-1.864 -1.65,-2.64 -0.57,-0.705 -1.231,-1.339 -1.908,-1.833 -0.165,-0.116 -0.32,-0.219 -0.467,-0.315 -0.12,-0.079 -0.252,-0.151 -0.376,-0.218 -0.369,-0.207 -0.659,-0.326 -0.911,-0.426 -0.127,-0.052 -0.258,-0.095 -0.383,-0.131 -0.112,-0.034 -0.217,-0.063 -0.315,-0.088 -0.178,-0.052 -0.352,-0.079 -0.492,-0.101 -0.32,-0.047 -0.467,-0.056 -0.467,-0.056 z"
       style="fill:#540e36;fill-opacity:1;fill-rule:nonzero;stroke:none"
       transform="matrix(1.3333333,0,0,-1.3333333,-486.76128,483.04319)"
       clip-path="url(#clipPath1526)" />
  </g>
</svg>
