<?xml version="1.0" encoding="UTF-8" standalone="no"?>
<!-- Created with Inkscape (http://www.inkscape.org/) -->

<svg
   version="1.1"
   id="svg1"
   width="522.65753"
   height="275.40265"
   viewBox="0 0 522.65753 275.40265"
   sodipodi:docname="5534258.ai"
   xmlns:inkscape="http://www.inkscape.org/namespaces/inkscape"
   xmlns:sodipodi="http://sodipodi.sourceforge.net/DTD/sodipodi-0.dtd"
   xmlns="http://www.w3.org/2000/svg"
   xmlns:svg="http://www.w3.org/2000/svg">
  <defs
     id="defs1">
    <clipPath
       clipPathUnits="userSpaceOnUse"
       id="clipPath864">
      <path
         d="M 0,500 H 500 V 0 H 0 Z"
         transform="translate(-439.65301,-323.21111)"
         id="path864" />
    </clipPath>
    <clipPath
       clipPathUnits="userSpaceOnUse"
       id="clipPath866">
      <path
         d="M 0,500 H 500 V 0 H 0 Z"
         transform="translate(-99.246205,-379.96751)"
         id="path866" />
    </clipPath>
  </defs>
  <sodipodi:namedview
     id="namedview1"
     pagecolor="#ffffff"
     bordercolor="#000000"
     borderopacity="0.25"
     inkscape:showpageshadow="2"
     inkscape:pageopacity="0.0"
     inkscape:pagecheckerboard="0"
     inkscape:deskcolor="#d1d1d1" />
  <g
     id="layer-MC1"
     inkscape:groupmode="layer"
     inkscape:label="OBJECTS"
     style="display:inline"
     transform="translate(-830.26959,381.06079)">
    <path
       id="path863"
       d="m 0,0 -14.431,14.431 c -0.889,0.889 -1.855,1.674 -2.894,2.353 v 19.39 c 0,11.9 -9.683,21.582 -21.583,21.582 h -90.442 -120.615 -90.442 c -11.9,0 -21.583,-9.682 -21.583,-21.582 v -19.39 c -1.038,-0.679 -2.005,-1.464 -2.893,-2.353 L -379.315,0 c -7.114,-7.113 -7.114,-18.689 10e-4,-25.803 l 14.43,-14.431 c 0.889,-0.889 1.855,-1.674 2.894,-2.353 v -31.746 c 0,-11.9 9.683,-21.582 21.583,-21.582 h 90.896 c 4.712,-28.939 30.007,-50.879 59.853,-50.879 29.847,0 55.142,21.94 59.854,50.879 h 90.896 c 11.9,0 21.583,9.682 21.583,21.582 v 31.746 c 1.039,0.679 2.005,1.464 2.894,2.353 l 14.43,14.43 c 3.447,3.447 5.345,8.029 5.345,12.902 C 5.344,-8.028 3.446,-3.446 0,0"
       style="fill:#6b9886;fill-opacity:1;fill-rule:nonzero;stroke:none"
       transform="matrix(1.3333333,0,0,-1.3333333,1344.4696,-302.71893)"
       clip-path="url(#clipPath864)" />
    <path
       id="path865"
       d="m 0,0 c -11.35,0 -20.583,-9.233 -20.583,-20.583 v -19.93 l -0.453,-0.296 c -0.979,-0.64 -1.899,-1.388 -2.734,-2.224 l -14.432,-14.431 c -6.723,-6.724 -6.723,-17.664 10e-4,-24.389 l 14.43,-14.43 c 0.84,-0.838 1.76,-1.587 2.734,-2.224 l 0.454,-0.296 v -32.286 c 0,-11.348 9.233,-20.582 20.583,-20.582 h 91.745 l 0.137,-0.839 c 4.645,-28.528 29.953,-50.042 58.867,-50.042 28.915,0 54.222,21.513 58.867,50.042 l 0.136,0.839 h 91.747 c 11.349,0 20.583,9.234 20.583,20.582 v 32.286 l 0.453,0.297 c 0.974,0.636 1.894,1.384 2.734,2.223 l 14.43,14.43 c 3.258,3.257 5.051,7.588 5.051,12.195 0,4.607 -1.793,8.937 -5.05,12.194 l -14.431,14.431 c -0.837,0.837 -1.757,1.585 -2.734,2.223 l -0.453,0.296 v 19.931 C 322.082,-9.233 312.848,0 301.499,0 h -91.341 l -0.095,0.895 H 91.436 L 91.341,0 Z m 150.749,-204.552 c -29.599,0 -55.541,21.815 -60.698,50.881 H 0 c -12.453,0 -22.583,10.13 -22.583,22.582 v 31.214 c -0.922,0.642 -1.795,1.373 -2.601,2.177 l -14.431,14.431 c -7.504,7.504 -7.504,19.714 -10e-4,27.217 l 14.432,14.431 c 0.803,0.803 1.676,1.534 2.601,2.178 v 18.858 C -22.583,-8.131 -12.453,2 0,2 h 89.549 122.401 89.549 c 12.452,0 22.583,-10.131 22.583,-22.583 v -18.858 c 0.923,-0.643 1.796,-1.373 2.601,-2.177 l 14.431,-14.432 c 3.635,-3.634 5.636,-8.467 5.636,-13.608 0,-5.142 -2.001,-9.975 -5.637,-13.609 l -14.43,-14.43 c -0.807,-0.806 -1.68,-1.536 -2.601,-2.178 v -31.214 c 0,-12.452 -10.131,-22.582 -22.583,-22.582 h -90.052 c -5.156,-29.066 -31.098,-50.881 -60.698,-50.881"
       style="fill:#540e36;fill-opacity:1;fill-rule:nonzero;stroke:none"
       transform="matrix(1.3333333,0,0,-1.3333333,890.59377,-378.39413)"
       clip-path="url(#clipPath866)" />
  </g>
</svg>
