<?xml version="1.0" encoding="UTF-8" standalone="no"?>
<!-- Created with Inkscape (http://www.inkscape.org/) -->

<svg
   version="1.1"
   id="svg1"
   width="46.375183"
   height="77.646667"
   viewBox="0 0 46.375183 77.646668"
   sodipodi:docname="5534258.ai"
   xmlns:inkscape="http://www.inkscape.org/namespaces/inkscape"
   xmlns:sodipodi="http://sodipodi.sourceforge.net/DTD/sodipodi-0.dtd"
   xmlns="http://www.w3.org/2000/svg"
   xmlns:svg="http://www.w3.org/2000/svg">
  <defs
     id="defs1">
    <clipPath
       clipPathUnits="userSpaceOnUse"
       id="clipPath1528">
      <path
         d="M 0,500 H 500 V 0 H 0 Z"
         transform="translate(-102.8532,-457.72091)"
         id="path1528" />
    </clipPath>
    <clipPath
       clipPathUnits="userSpaceOnUse"
       id="clipPath1530">
      <path
         d="M 0,500 H 500 V 0 H 0 Z"
         transform="translate(-100.4923,-456.24191)"
         id="path1530" />
    </clipPath>
    <clipPath
       clipPathUnits="userSpaceOnUse"
       id="clipPath1532">
      <path
         d="M 0,500 H 500 V 0 H 0 Z"
         transform="translate(-107.7951,-429.32101)"
         id="path1532" />
    </clipPath>
    <clipPath
       clipPathUnits="userSpaceOnUse"
       id="clipPath1534">
      <path
         d="M 0,500 H 500 V 0 H 0 Z"
         transform="translate(-105.5407,-435.34781)"
         id="path1534" />
    </clipPath>
  </defs>
  <sodipodi:namedview
     id="namedview1"
     pagecolor="#ffffff"
     bordercolor="#000000"
     borderopacity="0.25"
     inkscape:showpageshadow="2"
     inkscape:pageopacity="0.0"
     inkscape:pagecheckerboard="0"
     inkscape:deskcolor="#d1d1d1" />
  <g
     id="layer-MC1"
     inkscape:groupmode="layer"
     inkscape:label="OBJECTS"
     style="display:inline"
     transform="translate(-725.34655,-162.18921)">
    <path
       id="path1527"
       d="m 0,0 c 0,0 -0.169,-0.136 -0.492,-0.393 -0.311,-0.27 -0.774,-0.654 -1.297,-1.208 -1.056,-1.092 -2.362,-2.838 -3.358,-5.232 -1.007,-2.383 -1.725,-5.398 -1.937,-8.764 -0.013,-0.21 -0.027,-0.421 -0.035,-0.634 -0.01,-0.212 -0.018,-0.426 -0.022,-0.641 -0.008,-0.212 -0.009,-0.433 -0.008,-0.656 -0.002,-0.222 -0.003,-0.446 -0.005,-0.67 0,-0.449 0.014,-0.907 0.018,-1.366 0.02,-0.465 0.029,-0.93 0.052,-1.405 0.084,-1.897 0.234,-3.89 0.37,-5.977 0.275,-4.179 0.419,-8.352 -0.137,-12.239 -0.547,-3.866 -1.76,-7.257 -3.277,-9.808 -0.086,-0.162 -0.191,-0.315 -0.289,-0.467 -0.098,-0.152 -0.195,-0.302 -0.291,-0.449 -0.098,-0.147 -0.188,-0.294 -0.289,-0.433 -0.103,-0.137 -0.205,-0.272 -0.305,-0.406 -0.1,-0.132 -0.199,-0.263 -0.297,-0.391 -0.096,-0.129 -0.192,-0.254 -0.299,-0.371 -0.206,-0.234 -0.407,-0.46 -0.6,-0.679 -0.048,-0.054 -0.096,-0.108 -0.144,-0.161 -0.051,-0.05 -0.102,-0.1 -0.152,-0.15 -0.102,-0.097 -0.201,-0.193 -0.298,-0.288 -0.197,-0.185 -0.376,-0.368 -0.564,-0.53 -0.389,-0.313 -0.729,-0.603 -1.056,-0.839 -0.334,-0.222 -0.631,-0.419 -0.889,-0.591 -0.26,-0.162 -0.498,-0.274 -0.679,-0.375 -0.368,-0.191 -0.561,-0.292 -0.561,-0.292 0,0 0.141,0.167 0.409,0.482 0.132,0.16 0.305,0.341 0.487,0.577 0.175,0.238 0.378,0.512 0.605,0.821 0.217,0.312 0.433,0.68 0.68,1.06 0.117,0.196 0.223,0.412 0.342,0.628 0.058,0.108 0.118,0.218 0.178,0.33 0.031,0.056 0.061,0.112 0.092,0.169 0.027,0.059 0.054,0.119 0.081,0.18 0.11,0.239 0.222,0.487 0.339,0.742 0.062,0.124 0.113,0.258 0.163,0.394 0.052,0.134 0.104,0.271 0.157,0.409 0.054,0.138 0.108,0.277 0.162,0.418 0.054,0.142 0.096,0.292 0.145,0.44 0.047,0.148 0.096,0.298 0.145,0.449 0.048,0.152 0.103,0.301 0.14,0.462 0.722,2.508 1.121,5.594 1.108,9.02 -0.008,1.701 -0.117,3.533 -0.27,5.455 -0.151,1.923 -0.339,3.946 -0.478,6.066 -0.138,2.122 -0.208,4.245 -0.14,6.326 0.016,0.52 0.051,1.041 0.079,1.552 0.044,0.517 0.083,1.025 0.139,1.531 0.031,0.253 0.063,0.505 0.094,0.755 0.03,0.249 0.063,0.498 0.105,0.751 0.037,0.251 0.08,0.5 0.127,0.746 0.043,0.247 0.095,0.491 0.145,0.734 0.821,3.876 2.407,7.161 4.228,9.527 0.907,1.186 1.865,2.143 2.777,2.879 0.908,0.742 1.772,1.259 2.491,1.623 0.72,0.369 1.31,0.571 1.702,0.709 C -0.21,-0.062 0,0 0,0"
       style="fill:#ca0d4b;fill-opacity:1;fill-rule:nonzero;stroke:none"
       transform="matrix(1.3333333,0,0,-1.3333333,750.50375,163.79321)"
       clip-path="url(#clipPath1528)" />
    <path
       id="path1529"
       d="M 0,0 C -0.751,-0.403 -1.464,-0.879 -2.125,-1.419 -3.094,-2.202 -4,-3.142 -4.821,-4.216 c -1.923,-2.498 -3.391,-5.81 -4.136,-9.327 -0.05,-0.241 -0.1,-0.477 -0.141,-0.716 -0.048,-0.247 -0.089,-0.49 -0.126,-0.735 -0.042,-0.253 -0.073,-0.494 -0.103,-0.736 l -0.094,-0.757 c -0.043,-0.383 -0.075,-0.773 -0.108,-1.167 l -0.052,-0.742 c -0.021,-0.374 -0.043,-0.75 -0.053,-1.126 -0.062,-1.848 -0.016,-3.901 0.137,-6.28 0.092,-1.401 0.206,-2.76 0.316,-4.075 0.056,-0.673 0.111,-1.334 0.162,-1.984 0.178,-2.23 0.265,-3.975 0.271,-5.492 0.014,-3.386 -0.376,-6.553 -1.127,-9.16 -0.024,-0.11 -0.066,-0.238 -0.108,-0.364 l -0.231,-0.717 c -0.033,-0.104 -0.065,-0.208 -0.102,-0.308 l -0.322,-0.831 c -0.053,-0.147 -0.112,-0.296 -0.181,-0.436 l -0.824,-1.672 c -0.075,-0.142 -0.149,-0.281 -0.227,-0.411 l -0.285,-0.451 c -0.084,-0.133 -0.165,-0.263 -0.245,-0.386 0.147,0.114 0.303,0.242 0.467,0.376 l 0.324,0.263 c 0.107,0.093 0.222,0.204 0.342,0.32 l 0.755,0.751 0.6,0.679 c 0.102,0.112 0.187,0.223 0.273,0.339 l 0.601,0.797 c 0.06,0.081 0.117,0.17 0.175,0.259 l 0.458,0.704 c 0.068,0.105 0.137,0.212 0.197,0.324 1.576,2.651 2.717,6.068 3.223,9.642 0.56,3.92 0.395,8.149 0.132,12.135 l -0.107,1.627 c -0.102,1.505 -0.2,2.959 -0.263,4.36 -0.013,0.263 -0.021,0.524 -0.029,0.783 l -0.032,1.238 c -0.004,0.26 -0.009,0.517 -0.009,0.772 l 0.004,0.665 c 0,0.235 10e-4,0.461 0.009,0.68 0.004,0.211 0.012,0.43 0.023,0.647 0.006,0.175 0.017,0.356 0.028,0.536 l 0.006,0.105 c 0.207,3.272 0.89,6.358 1.976,8.928 C -2.192,-2.626 -0.834,-0.904 0,0 m -16.507,-55.553 2.218,2.612 c 0.094,0.108 0.2,0.228 0.308,0.369 l 0.6,0.813 c 0.118,0.171 0.245,0.373 0.378,0.586 l 0.284,0.45 c 0.06,0.1 0.125,0.223 0.192,0.35 l 0.805,1.634 c 0.061,0.123 0.105,0.24 0.149,0.359 l 0.322,0.835 c 0.029,0.077 0.056,0.163 0.083,0.249 l 0.235,0.733 c 0.033,0.098 0.067,0.197 0.091,0.302 0.731,2.541 1.108,5.612 1.094,8.904 -0.006,1.49 -0.091,3.211 -0.268,5.417 -0.05,0.649 -0.106,1.309 -0.162,1.98 -0.11,1.321 -0.224,2.686 -0.317,4.093 -0.155,2.412 -0.201,4.498 -0.139,6.376 0.011,0.383 0.033,0.769 0.055,1.152 l 0.053,0.768 c 0.034,0.404 0.068,0.804 0.112,1.201 l 0.095,0.762 c 0.03,0.254 0.064,0.51 0.108,0.771 0.037,0.249 0.081,0.504 0.129,0.757 0.042,0.243 0.094,0.491 0.145,0.736 0.776,3.668 2.311,7.123 4.323,9.737 0.868,1.136 1.83,2.133 2.859,2.964 0.796,0.65 1.664,1.215 2.579,1.679 0.71,0.365 1.306,0.574 1.699,0.713 L 4.667,2.682 2.075,0.604 C 1.781,0.35 1.377,0.002 0.936,-0.465 0.182,-1.244 -1.237,-2.933 -2.325,-5.546 c -1.043,-2.469 -1.7,-5.443 -1.9,-8.603 l -0.006,-0.105 c -0.011,-0.171 -0.021,-0.342 -0.027,-0.515 -0.011,-0.214 -0.018,-0.423 -0.022,-0.633 -0.008,-0.216 -0.009,-0.431 -0.009,-0.647 l -0.004,-0.674 c 0,-0.245 0.004,-0.497 0.009,-0.751 l 0.031,-1.224 c 0.008,-0.254 0.016,-0.51 0.029,-0.768 0.063,-1.396 0.16,-2.842 0.261,-4.34 l 0.109,-1.629 c 0.265,-4.039 0.432,-8.331 -0.141,-12.341 -0.524,-3.701 -1.711,-7.25 -3.342,-9.993 -0.062,-0.117 -0.146,-0.247 -0.229,-0.376 l -0.457,-0.703 c -0.068,-0.105 -0.136,-0.209 -0.209,-0.31 l -0.608,-0.805 c -0.103,-0.139 -0.21,-0.277 -0.328,-0.406 l -1.404,-1.48 c -0.134,-0.129 -0.264,-0.255 -0.397,-0.369 l -0.331,-0.269 c -0.269,-0.22 -0.517,-0.423 -0.759,-0.596 l -0.904,-0.602 c -0.2,-0.125 -0.377,-0.218 -0.532,-0.299 z"
       style="fill:#540e36;fill-opacity:1;fill-rule:nonzero;stroke:none"
       transform="matrix(1.3333333,0,0,-1.3333333,747.35588,165.76521)"
       clip-path="url(#clipPath1530)" />
    <path
       id="path1531"
       d="m 0,0 c 0,0 0.033,-0.066 0.098,-0.194 0.063,-0.129 0.147,-0.327 0.231,-0.602 0.077,-0.276 0.15,-0.63 0.165,-1.06 C 0.507,-2.285 0.47,-2.792 0.318,-3.344 0.172,-3.896 -0.079,-4.496 -0.47,-5.093 c -0.388,-0.598 -0.923,-1.192 -1.635,-1.698 -0.357,-0.251 -0.76,-0.478 -1.21,-0.657 -0.447,-0.177 -0.955,-0.315 -1.474,-0.36 -1.032,-0.116 -2.164,0.039 -3.239,0.47 -1.073,0.435 -2.082,1.141 -2.946,2.075 -0.416,0.479 -0.822,0.998 -1.138,1.598 -0.176,0.29 -0.302,0.613 -0.447,0.932 -0.061,0.164 -0.117,0.333 -0.174,0.502 l -0.083,0.256 -0.064,0.265 c -0.041,0.177 -0.087,0.358 -0.118,0.537 -0.025,0.178 -0.049,0.357 -0.074,0.537 -0.029,0.181 -0.03,0.362 -0.041,0.544 -0.008,0.183 -0.022,0.368 -0.011,0.55 0.007,0.184 0.014,0.369 0.021,0.554 0.017,0.183 0.04,0.367 0.061,0.552 0.019,0.186 0.057,0.367 0.093,0.55 0.038,0.182 0.067,0.37 0.121,0.548 0.373,1.452 1.071,2.842 2.057,4.059 0.126,0.15 0.245,0.308 0.381,0.451 0.136,0.144 0.272,0.288 0.409,0.433 0.289,0.276 0.58,0.555 0.902,0.804 0.638,0.511 1.343,0.964 2.09,1.319 0.369,0.194 0.76,0.334 1.148,0.492 0.396,0.126 0.794,0.269 1.203,0.358 0.204,0.047 0.409,0.107 0.616,0.138 0.208,0.035 0.417,0.07 0.625,0.105 0.209,0.032 0.42,0.047 0.632,0.069 l 0.318,0.029 0.32,0.011 c 0.853,0.041 1.718,-0.025 2.58,-0.17 C 1.316,10.621 2.174,10.37 3.01,10.03 3.217,9.94 3.429,9.862 3.632,9.757 3.835,9.653 4.039,9.549 4.243,9.445 4.444,9.334 4.639,9.21 4.837,9.09 5.037,8.973 5.224,8.836 5.412,8.7 5.796,8.435 6.143,8.128 6.494,7.824 6.658,7.662 6.823,7.499 6.988,7.336 7.156,7.176 7.298,6.995 7.453,6.823 8.054,6.121 8.58,5.368 8.997,4.567 9.109,4.371 9.203,4.166 9.297,3.962 9.391,3.758 9.49,3.557 9.566,3.346 9.647,3.137 9.728,2.929 9.804,2.72 9.87,2.507 9.935,2.293 10,2.081 c 0.236,-0.857 0.402,-1.731 0.45,-2.615 0.022,-0.218 0.013,-0.442 0.019,-0.662 l 0.003,-0.33 C 10.471,-1.636 10.461,-1.747 10.456,-1.857 10.44,-2.078 10.43,-2.297 10.407,-2.516 10.376,-2.734 10.346,-2.953 10.315,-3.17 10.035,-4.872 9.386,-6.452 8.543,-7.792 7.7,-9.136 6.684,-10.249 5.631,-11.186 c -1.056,-0.939 -2.157,-1.701 -3.247,-2.361 -1.092,-0.655 -2.178,-1.206 -3.239,-1.679 -0.531,-0.236 -1.055,-0.457 -1.572,-0.659 -0.511,-0.198 -1.008,-0.387 -1.492,-0.564 -0.962,-0.349 -1.886,-0.684 -2.768,-1.004 -1.743,-0.635 -3.286,-1.238 -4.594,-1.864 -1.306,-0.626 -2.39,-1.259 -3.224,-1.861 -0.219,-0.14 -0.4,-0.299 -0.584,-0.436 -0.18,-0.142 -0.36,-0.265 -0.504,-0.402 -0.151,-0.132 -0.29,-0.254 -0.417,-0.365 -0.129,-0.112 -0.246,-0.214 -0.34,-0.314 -0.393,-0.392 -0.599,-0.599 -0.599,-0.599 0,0 0.141,0.258 0.408,0.749 0.065,0.126 0.15,0.258 0.247,0.402 0.096,0.146 0.201,0.306 0.315,0.478 0.109,0.178 0.253,0.347 0.396,0.539 0.149,0.186 0.296,0.4 0.479,0.598 0.695,0.835 1.658,1.768 2.874,2.727 1.214,0.959 2.686,1.922 4.327,2.9 0.818,0.488 1.681,0.983 2.563,1.49 0.437,0.254 0.882,0.513 1.336,0.777 0.441,0.259 0.882,0.532 1.324,0.816 1.758,1.131 3.534,2.458 4.979,4.047 0.718,0.794 1.344,1.651 1.804,2.553 0.461,0.901 0.758,1.849 0.856,2.821 0.008,0.117 0.018,0.234 0.029,0.352 0.006,0.118 10e-4,0.238 0.004,0.357 0,0.06 0.005,0.119 0.001,0.18 L 4.98,-1.327 C 4.968,-1.207 4.975,-1.086 4.952,-0.964 4.906,-0.479 4.787,0.009 4.641,0.49 4.333,1.447 3.833,2.371 3.168,3.134 3.083,3.226 3.009,3.332 2.916,3.415 2.827,3.502 2.74,3.59 2.653,3.68 2.464,3.837 2.287,4.01 2.088,4.146 1.992,4.219 1.897,4.295 1.792,4.355 1.689,4.418 1.592,4.488 1.487,4.55 1.38,4.606 1.273,4.664 1.167,4.723 1.062,4.786 0.944,4.825 0.835,4.879 0.388,5.078 -0.083,5.243 -0.571,5.341 -1.056,5.446 -1.553,5.516 -2.048,5.52 L -2.234,5.527 -2.419,5.52 C -2.542,5.514 -2.666,5.517 -2.788,5.506 L -3.153,5.47 C -3.276,5.464 -3.393,5.432 -3.513,5.416 -3.756,5.387 -3.984,5.315 -4.22,5.268 -4.443,5.191 -4.678,5.139 -4.891,5.044 -5.334,4.883 -5.739,4.672 -6.12,4.428 -6.315,4.31 -6.494,4.166 -6.678,4.03 -6.765,3.955 -6.853,3.881 -6.939,3.807 -7.029,3.734 -7.104,3.648 -7.188,3.571 -7.844,2.932 -8.354,2.166 -8.68,1.377 -8.729,1.279 -8.753,1.178 -8.791,1.079 -8.826,0.979 -8.866,0.88 -8.887,0.78 -8.915,0.679 -8.942,0.579 -8.969,0.479 c -0.018,-0.1 -0.037,-0.201 -0.056,-0.3 -0.025,-0.101 -0.027,-0.2 -0.039,-0.3 -0.009,-0.1 -0.03,-0.201 -0.026,-0.299 -0.002,-0.1 -0.005,-0.199 -0.008,-0.298 0.001,-0.097 0.013,-0.187 0.017,-0.282 l 0.007,-0.141 0.023,-0.14 c 0.015,-0.095 0.03,-0.19 0.045,-0.283 0.056,-0.185 0.084,-0.379 0.161,-0.559 0.115,-0.375 0.307,-0.72 0.502,-1.06 0.422,-0.657 0.966,-1.223 1.572,-1.623 0.608,-0.394 1.267,-0.633 1.923,-0.703 0.638,-0.084 1.274,0.036 1.855,0.271 0.578,0.238 1.095,0.584 1.509,0.976 0.418,0.39 0.744,0.821 0.981,1.242 0.482,0.849 0.593,1.65 0.591,2.188 -0.004,0.27 -0.027,0.48 -0.051,0.619 C 0.013,-0.072 0,0 0,0"
       style="fill:#f8c995;fill-opacity:1;fill-rule:nonzero;stroke:none"
       transform="matrix(1.3333333,0,0,-1.3333333,757.09295,201.65974)"
       clip-path="url(#clipPath1532)" />
    <path
       id="path1533"
       d="M 0,0 0.227,-0.008 C 0.696,-0.011 1.212,-0.073 1.789,-0.197 2.268,-0.293 2.762,-0.455 3.292,-0.69 l 0.127,-0.058 c 0.088,-0.038 0.177,-0.077 0.259,-0.127 l 0.295,-0.159 c 0.087,-0.05 0.15,-0.091 0.212,-0.133 l 0.123,-0.078 c 0.095,-0.054 0.195,-0.13 0.296,-0.206 0.176,-0.123 0.321,-0.248 0.465,-0.375 l 0.452,-0.43 c 0.057,-0.049 0.125,-0.128 0.191,-0.207 l 0.076,-0.088 c 0.7,-0.803 1.243,-1.778 1.584,-2.833 0.183,-0.605 0.288,-1.098 0.332,-1.559 0.012,-0.056 0.018,-0.154 0.022,-0.252 L 7.746,-7.5 C 7.75,-7.556 7.749,-7.608 7.748,-7.66 L 7.745,-7.874 C 7.746,-7.948 7.746,-8.022 7.742,-8.095 L 7.713,-8.458 c -0.105,-1.028 -0.41,-2.037 -0.91,-3.014 -0.454,-0.89 -1.086,-1.785 -1.879,-2.661 -1.273,-1.401 -2.934,-2.752 -5.079,-4.133 -0.448,-0.287 -0.894,-0.563 -1.341,-0.826 l -1.576,-0.914 c -0.797,-0.459 -1.577,-0.908 -2.321,-1.351 -1.775,-1.059 -3.173,-1.995 -4.274,-2.863 -0.98,-0.775 -1.842,-1.572 -2.515,-2.326 0.808,0.548 1.799,1.107 2.939,1.652 1.165,0.558 2.596,1.139 4.639,1.884 l 2.769,1.004 c 0.48,0.176 0.973,0.363 1.482,0.561 0.508,0.198 1.025,0.416 1.548,0.649 1.132,0.504 2.174,1.044 3.187,1.65 1.223,0.743 2.261,1.498 3.171,2.307 1.158,1.031 2.082,2.107 2.821,3.286 0.862,1.37 1.45,2.905 1.702,4.437 l 0.091,0.643 c 0.014,0.139 0.023,0.295 0.033,0.452 l 0.01,0.17 c 0.011,0.164 0.016,0.231 0.016,0.298 l -0.005,0.539 c -10e-4,0.135 -10e-4,0.269 -0.014,0.402 -0.044,0.808 -0.186,1.629 -0.434,2.534 l -0.192,0.624 c -0.061,0.164 -0.133,0.352 -0.206,0.54 -0.079,0.215 -0.147,0.361 -0.215,0.507 l -0.063,0.135 c -0.103,0.221 -0.183,0.396 -0.279,0.563 -0.392,0.75 -0.89,1.478 -1.49,2.18 L 9.183,0.636 C 9.091,0.743 9,0.85 8.897,0.948 L 8.344,1.485 C 8.021,1.766 7.716,2.032 7.383,2.261 7.195,2.397 7.023,2.523 6.839,2.631 L 6.662,2.739 C 6.528,2.822 6.393,2.905 6.256,2.981 L 5.659,3.286 C 5.53,3.352 5.399,3.405 5.269,3.459 L 5.065,3.544 C 4.251,3.875 3.428,4.11 2.628,4.239 1.758,4.386 0.927,4.439 0.151,4.404 L -0.646,4.348 C -0.788,4.334 -0.928,4.321 -1.068,4.3 L -1.684,4.196 C -1.82,4.176 -1.945,4.144 -2.069,4.113 L -2.272,4.063 C -2.581,3.997 -2.878,3.898 -3.172,3.802 L -3.661,3.625 C -3.946,3.513 -4.23,3.401 -4.502,3.259 -5.209,2.922 -5.879,2.499 -6.512,1.993 -6.819,1.754 -7.09,1.495 -7.36,1.238 L -7.748,0.827 C -7.858,0.711 -7.935,0.616 -8.012,0.521 L -8.134,0.373 c -0.92,-1.137 -1.598,-2.475 -1.955,-3.862 -0.04,-0.134 -0.062,-0.252 -0.085,-0.369 l -0.032,-0.157 c -0.038,-0.194 -0.068,-0.343 -0.084,-0.497 l -0.015,-0.131 c -0.016,-0.14 -0.033,-0.279 -0.046,-0.419 l -0.018,-0.485 c -0.009,-0.177 -0.002,-0.304 0.004,-0.431 l 0.013,-0.264 c 0.005,-0.114 0.01,-0.228 0.028,-0.342 l 0.075,-0.546 c 0.019,-0.104 0.047,-0.225 0.076,-0.345 l 0.17,-0.628 c 0.069,-0.206 0.116,-0.345 0.167,-0.482 L -9.74,-8.8 c 0.096,-0.218 0.189,-0.434 0.309,-0.633 0.331,-0.625 0.755,-1.144 1.089,-1.529 0.792,-0.856 1.749,-1.531 2.756,-1.94 0.985,-0.394 2.02,-0.546 2.996,-0.436 0.44,0.039 0.901,0.151 1.345,0.328 0.385,0.153 0.757,0.355 1.106,0.601 0.604,0.429 1.111,0.955 1.504,1.561 0.249,0.38 0.448,0.777 0.594,1.186 -0.24,-0.358 -0.524,-0.691 -0.848,-0.992 -0.476,-0.451 -1.051,-0.823 -1.66,-1.073 -0.721,-0.292 -1.429,-0.396 -2.11,-0.305 -0.721,0.077 -1.462,0.347 -2.13,0.779 -0.662,0.438 -1.256,1.05 -1.721,1.774 -0.228,0.396 -0.431,0.768 -0.559,1.182 -0.041,0.09 -0.078,0.234 -0.114,0.379 -0.014,0.061 -0.028,0.121 -0.046,0.18 l -0.104,0.79 c -0.005,0.065 -0.01,0.131 -0.01,0.198 l 0.008,0.315 c -0.004,0.06 0.006,0.154 0.018,0.248 l 0.018,0.176 c 0.009,0.094 0.02,0.188 0.043,0.283 l 0.118,0.53 c 0.038,0.158 0.074,0.26 0.11,0.362 l 0.053,0.15 c 0.029,0.087 0.06,0.174 0.102,0.26 0.345,0.839 0.9,1.655 1.59,2.328 l 0.093,0.09 c 0.061,0.061 0.123,0.122 0.19,0.176 l 0.405,0.331 c 0.154,0.116 0.307,0.231 0.472,0.331 0.43,0.275 0.864,0.493 1.315,0.657 0.123,0.056 0.288,0.107 0.454,0.157 l 0.525,0.141 c 0.168,0.041 0.336,0.08 0.511,0.101 l 0.104,0.018 c 0.095,0.017 0.192,0.034 0.291,0.039 l 0.34,0.034 c 0.089,0.008 0.173,0.01 0.256,0.011 z m -16.809,-32.148 2.084,3.815 c 0.067,0.131 0.162,0.279 0.269,0.441 l 0.313,0.475 c 0.078,0.126 0.18,0.26 0.289,0.4 l 0.271,0.352 c 0.113,0.148 0.231,0.304 0.368,0.451 0.731,0.88 1.75,1.848 2.929,2.779 1.135,0.895 2.568,1.856 4.381,2.937 0.748,0.445 1.532,0.897 2.335,1.359 l 1.569,0.91 c 0.434,0.255 0.869,0.525 1.305,0.805 2.071,1.332 3.667,2.628 4.88,3.963 0.732,0.81 1.314,1.632 1.728,2.443 0.444,0.868 0.714,1.757 0.804,2.644 0.007,0.105 0.017,0.227 0.029,0.349 l 0.002,0.324 0.5,0.166 -0.498,-0.035 -0.022,0.336 c -0.002,0.05 -0.003,0.101 -0.012,0.152 -0.044,0.436 -0.137,0.868 -0.298,1.4 -0.296,0.918 -0.771,1.772 -1.371,2.46 -0.028,0.03 -0.066,0.074 -0.103,0.119 -0.033,0.04 -0.065,0.082 -0.104,0.116 L 4.41,-2.578 c -0.114,0.1 -0.226,0.201 -0.349,0.284 -0.13,0.098 -0.192,0.148 -0.261,0.187 l -0.312,0.199 c -0.09,0.046 -0.2,0.106 -0.31,0.168 -0.058,0.034 -0.107,0.053 -0.155,0.074 L 2.867,-1.595 C 2.424,-1.399 1.998,-1.259 1.584,-1.176 1.07,-1.065 0.62,-1.01 0.203,-1.007 l -0.204,0.008 -0.306,-0.012 C -0.369,-1.013 -0.431,-1.014 -0.492,-1.019 L -0.85,-1.054 C -0.928,-1.059 -0.979,-1.07 -1.031,-1.079 l -0.161,-0.027 c -0.143,-0.018 -0.273,-0.05 -0.403,-0.081 -0.09,-0.022 -0.18,-0.043 -0.272,-0.062 -0.024,-0.013 -0.112,-0.04 -0.202,-0.066 -0.124,-0.037 -0.248,-0.073 -0.365,-0.124 -0.412,-0.152 -0.782,-0.338 -1.161,-0.581 -0.147,-0.088 -0.272,-0.184 -0.397,-0.279 L -4.36,-2.601 c -0.051,-0.041 -0.087,-0.078 -0.123,-0.114 l -0.114,-0.11 c -0.581,-0.568 -1.058,-1.268 -1.366,-2.016 -0.036,-0.075 -0.049,-0.118 -0.063,-0.161 l -0.043,-0.123 c -0.04,-0.11 -0.062,-0.167 -0.075,-0.227 l -0.135,-0.589 c -0.017,-0.073 -0.02,-0.118 -0.024,-0.163 L -6.325,-6.312 C -6.33,-6.351 -6.337,-6.389 -6.336,-6.427 l -0.007,-0.33 0.085,-0.756 c 0.008,-0.01 0.028,-0.089 0.047,-0.169 0.023,-0.091 0.043,-0.184 0.08,-0.272 0.115,-0.365 0.283,-0.67 0.476,-1.007 0.377,-0.585 0.87,-1.096 1.413,-1.455 0.534,-0.345 1.123,-0.561 1.701,-0.623 0.517,-0.067 1.057,0.013 1.615,0.238 0.493,0.203 0.962,0.506 1.352,0.876 0.355,0.33 0.661,0.717 0.889,1.123 0.439,0.772 0.529,1.482 0.528,1.942 -0.004,0.231 -0.024,0.415 -0.045,0.538 l -0.623,3.55 1.624,-3.224 C 2.873,-6.146 2.967,-6.369 3.062,-6.678 3.174,-7.08 3.234,-7.465 3.248,-7.866 3.266,-8.422 3.201,-8.973 3.055,-9.503 2.881,-10.16 2.594,-10.797 2.203,-11.394 c -0.462,-0.711 -1.056,-1.328 -1.765,-1.831 -0.414,-0.292 -0.855,-0.532 -1.313,-0.714 -0.534,-0.212 -1.092,-0.348 -1.616,-0.394 -1.123,-0.127 -2.329,0.047 -3.469,0.503 -1.144,0.465 -2.225,1.226 -3.127,2.201 -0.379,0.437 -0.85,1.014 -1.213,1.704 -0.128,0.209 -0.242,0.465 -0.355,0.724 l -0.104,0.234 c -0.069,0.179 -0.119,0.329 -0.17,0.48 l -0.218,0.783 c -0.033,0.14 -0.065,0.28 -0.089,0.419 l -0.077,0.554 c -0.022,0.141 -0.031,0.291 -0.038,0.443 l -0.013,0.263 c -0.008,0.162 -0.014,0.325 -0.005,0.486 l 0.021,0.543 c 0.015,0.175 0.033,0.322 0.05,0.471 l 0.014,0.12 c 0.018,0.178 0.053,0.359 0.089,0.541 l 0.039,0.197 c 0.03,0.15 0.06,0.301 0.104,0.446 0.386,1.506 1.131,2.976 2.147,4.23 l 0.117,0.143 c 0.094,0.115 0.188,0.23 0.29,0.338 l 0.407,0.431 c 0.335,0.321 0.633,0.603 0.961,0.857 0.686,0.55 1.422,1.014 2.18,1.375 0.286,0.151 0.603,0.277 0.923,0.403 l 0.543,0.196 c 0.327,0.107 0.657,0.215 0.995,0.288 l 0.178,0.043 c 0.156,0.039 0.312,0.077 0.47,0.101 l 0.615,0.104 c 0.167,0.025 0.326,0.04 0.485,0.055 L 0.11,5.403 C 0.948,5.442 1.854,5.384 2.791,5.226 3.661,5.085 4.558,4.83 5.453,4.466 L 5.649,4.384 C 5.807,4.319 5.963,4.253 6.116,4.175 L 6.725,3.864 C 6.89,3.773 7.038,3.682 7.186,3.591 L 7.35,3.491 C 7.557,3.37 7.756,3.226 7.956,3.081 8.33,2.823 8.67,2.527 9,2.24 L 9.593,1.666 C 9.714,1.551 9.827,1.42 9.94,1.289 L 10.079,1.13 c 0.659,-0.769 1.199,-1.56 1.615,-2.359 0.101,-0.174 0.195,-0.374 0.288,-0.574 l 0.084,-0.182 c 0.08,-0.174 0.161,-0.347 0.225,-0.526 0.092,-0.237 0.167,-0.43 0.237,-0.625 l 0.205,-0.663 c 0.271,-0.989 0.424,-1.879 0.471,-2.735 0.014,-0.14 0.016,-0.308 0.017,-0.474 l 0.005,-0.542 c 0,-0.091 -0.006,-0.179 -0.012,-0.268 l -0.016,-0.264 c -0.01,-0.171 -0.021,-0.342 -0.039,-0.513 l -0.095,-0.672 c -0.274,-1.674 -0.912,-3.336 -1.843,-4.817 -0.79,-1.261 -1.773,-2.407 -3.003,-3.502 -0.956,-0.851 -2.042,-1.641 -3.32,-2.416 -1.05,-0.629 -2.127,-1.187 -3.295,-1.707 -0.538,-0.24 -1.069,-0.463 -1.593,-0.668 -0.516,-0.2 -1.015,-0.391 -1.503,-0.569 l -2.769,-1.004 c -2.011,-0.733 -3.415,-1.302 -4.549,-1.845 -1.251,-0.6 -2.31,-1.21 -3.147,-1.815 -0.151,-0.098 -0.265,-0.188 -0.375,-0.275 l -0.375,-0.289 c -0.103,-0.078 -0.203,-0.152 -0.288,-0.232 l -0.431,-0.379 c -0.116,-0.1 -0.22,-0.19 -0.303,-0.278 z"
       style="fill:#540e36;fill-opacity:1;fill-rule:nonzero;stroke:none"
       transform="matrix(1.3333333,0,0,-1.3333333,754.08708,193.62401)"
       clip-path="url(#clipPath1534)" />
  </g>
</svg>
