<svg version="1.2" xmlns="http://www.w3.org/2000/svg" viewBox="0 0 500 500" width="500" height="500">
	<title>4929251_2570546</title>
	<style>
		tspan { white-space:pre } 
		.s0 { fill: #5fb446 } 
		.s1 { fill: #487b39 } 
		.s2 { fill: #d42364 } 
		.s3 { fill: #af1e4b } 
		.s4 { fill: #fed215 } 
		.s5 { fill: #d28028 } 
		.s6 { fill: #ee3f78 } 
		.s7 { fill: #f287b7 } 
	</style>
	<g id="OBJECTS">
		<g id="&lt;Clip Group&gt;">
			<g id="&lt;Group&gt;">
				<g id="&lt;Group&gt;">
					<g id="&lt;Group&gt;">
						<g id="&lt;Group&gt;">
							<g id="&lt;Group&gt;">
								<g id="&lt;Group&gt;">
									<g id="&lt;Group&gt;">
										<path id="&lt;Path&gt;" fill-rule="evenodd" class="s0" d="m257.5 286.2l-6.3-5.4-10.6 9c-58.5 50.1-58.5 131.1 0 181.1l10.6 9.1 6.3-5.4c61-52 61-136.4 0-188.4z"/>
										<path id="&lt;Compound Path&gt;" fill-rule="evenodd" class="s1" d="m251.2 481.9c-0.4 0-0.9-0.1-1.2-0.4l-10.6-9.1c-28.8-24.5-44.6-57.2-44.6-92 0-34.8 15.8-67.5 44.6-92l10.6-9.1c0.7-0.6 1.8-0.6 2.5 0l6.3 5.4c29.9 25.5 46.4 59.5 46.4 95.7 0 36.2-16.5 70.2-46.4 95.7l-6.3 5.4c-0.4 0.3-0.8 0.4-1.3 0.4zm0-198.5l-9.3 7.9c-27.9 23.8-43.2 55.5-43.2 89.1 0 33.6 15.3 65.2 43.2 89l9.3 8 5-4.3c29.1-24.8 45.1-57.7 45.1-92.7 0-35-16-68-45.1-92.7z"/>
									</g>
									<path id="&lt;Path&gt;" fill-rule="evenodd" class="s1" d="m253.2 479.6c2-14.2 1.5-28.9 1.8-43.2 0.4-15.5 0.8-31.1 1.1-46.6q0.5-22.7 0.9-45.4c0.3-15.3 2-31.3 0.5-46.6-0.3-2.5-4.5-3.7-5-0.6-1.9 14.1-1 29.1-1.3 43.4q-0.4 23.3-0.9 46.6c-0.2 15.1-0.4 30.2-0.7 45.3-0.2 15.4-1.5 31.3 0 46.6 0.2 1.9 3.3 2.7 3.6 0.5z"/>
									<path id="&lt;Path&gt;" fill-rule="evenodd" class="s1" d="m227.5 447.5c4.4-5.6 8.4-11.6 12.6-17.3 4.6-6.3 9.8-12.4 13.9-19 1.1-1.9-1.5-3.9-3-2.3-9.8 10.6-18.6 24.5-25.2 37.3-0.6 1 0.8 2.3 1.7 1.3z"/>
									<path id="&lt;Path&gt;" fill-rule="evenodd" class="s1" d="m216.9 414.9c12.4-13.2 24.1-26.2 37.6-38.3 2.3-2.1-1-5.2-3.3-3.3-13.4 11.2-26.8 25.2-35.8 40.4-0.5 0.9 0.8 2 1.5 1.2z"/>
									<path id="&lt;Path&gt;" fill-rule="evenodd" class="s1" d="m207.9 376.8c13.7-17.1 29.9-31.7 47.8-44.3 2.3-1.6 0.2-5.3-2.2-3.8-18.8 12.4-34.5 28.4-47.2 46.9-0.6 0.9 0.8 2.1 1.6 1.2z"/>
									<path id="&lt;Path&gt;" fill-rule="evenodd" class="s1" d="m274.8 441.8c-5.3-10.6-12.8-20.4-20.1-29.6-1.3-1.7-4.1 0.5-2.9 2.2 7.1 9.4 13.8 19.5 21.6 28.5 0.7 0.9 1.9-0.2 1.4-1.1z"/>
									<path id="&lt;Path&gt;" fill-rule="evenodd" class="s1" d="m292.4 421.1c-5.3-18.3-21.7-32.6-35.6-44.5-1.8-1.5-4.5 1.1-2.6 2.7 6.8 6.2 13.7 12.2 20 18.9 6.7 7.3 11.7 15 16.4 23.6 0.6 1 2.1 0.3 1.8-0.7z"/>
									<path id="&lt;Path&gt;" fill-rule="evenodd" class="s1" d="m293.8 377c-5.3-8.1-10.9-15.9-17.1-23.3-6.6-7.9-14.4-14.7-21.3-22.3-2.2-2.4-5.7 1.6-2.8 3.7 15.4 10.8 28.4 27.8 39.1 43.1 0.9 1.2 2.9 0.1 2.1-1.2z"/>
								</g>
								<g id="&lt;Group&gt;">
									<g id="&lt;Group&gt;">
										<path id="&lt;Path&gt;" fill-rule="evenodd" class="s0" d="m177.9 277.8c0 0-43.3 2.9-95.2 50.5-51.9 47.5-62 36-80.7 30.2 0 0 12.9 56.3 122.5 44.7 109.6-11.5 111.1-125.4 111.1-125.4 0 0-17.3-8.7-57.7 0z"/>
										<path id="&lt;Compound Path&gt;" fill-rule="evenodd" class="s1" d="m96.9 406.7c-26.4 0-55.2-4.4-75.9-19.9-17.3-12.9-20.8-27.2-20.9-27.8-0.2-0.7 0-1.4 0.5-1.9 0.5-0.5 1.3-0.6 1.9-0.4 2.1 0.6 4 1.3 5.9 2 15.4 5.5 27.5 9.8 73-31.9 50.8-46.6 92.9-50.7 96.2-51 40.5-8.6 58.1-0.1 58.9 0.2 0.6 0.4 1 1.1 1 1.8 0 1.2-0.5 29.3-14.6 59.2-13 27.8-40.6 62.1-98.2 68.2-8.5 0.9-18 1.5-27.8 1.5zm-91.7-45c2.1 4.8 7.1 13.8 18.4 22.1 27.5 20.3 70 20.7 100.7 17.5 44.8-4.7 76.7-26.9 95.1-65.9 12-25.6 13.9-50.4 14.2-56.3-4.4-1.6-21.9-6.6-55.3 0.6q-0.1 0-0.3 0c-0.4 0.1-43.2 3.5-94 50-47.2 43.3-61 38.4-76.9 32.7q-1-0.4-1.9-0.7zm172.7-83.9z"/>
									</g>
									<path id="&lt;Path&gt;" fill-rule="evenodd" class="s1" d="m2.8 362.2c23.8 21.7 61.4 26.3 91.4 17.1 17.4-5.4 31.6-15.8 45.3-27.4 14.5-12.4 31.2-24.8 41.9-40.8 1.4-2.1-1.7-4.3-3.5-2.6-12.7 12.5-25 25-38.7 36.5-13.7 11.5-27.4 22.6-44.6 28.2-31.1 10.2-62.7 3.4-90.3-13-1.2-0.7-2.5 1-1.5 2z"/>
								</g>
								<g id="&lt;Group&gt;">
									<g id="&lt;Group&gt;">
										<path id="&lt;Path&gt;" fill-rule="evenodd" class="s0" d="m322.1 277.8c0 0 43.3 2.9 95.2 50.5 51.9 47.5 62 36 80.7 30.2 0 0-13 56.3-122.5 44.7-109.6-11.5-111.1-125.4-111.1-125.4 0 0 17.3-8.7 57.7 0z"/>
										<path id="&lt;Compound Path&gt;" fill-rule="evenodd" class="s1" d="m403.1 406.7c-9.8 0-19.3-0.6-27.9-1.5-57.5-6.1-85.1-40.4-98.1-68.2-14.1-29.9-14.6-58-14.6-59.2-0.1-0.7 0.4-1.4 1-1.8 0.8-0.3 18.4-8.8 58.9-0.2 3.3 0.3 45.4 4.4 96.2 51 45.5 41.7 57.6 37.4 73 31.9 1.9-0.7 3.8-1.4 5.8-2 0.7-0.2 1.5-0.1 2 0.4 0.5 0.5 0.7 1.2 0.5 1.9-0.1 0.6-3.6 14.9-20.9 27.8-20.8 15.5-49.5 19.9-75.9 19.9zm-136.7-127.6c0.3 5.9 2.2 30.8 14.3 56.4 18.3 38.9 50.3 61.1 95 65.8 30.7 3.2 73.2 2.8 100.7-17.5 11.2-8.2 16.3-17.3 18.4-22.1q-0.9 0.3-1.9 0.7c-15.9 5.7-29.7 10.6-77-32.7-50.7-46.5-93.5-49.9-93.9-50q-0.2 0-0.3 0c-33.4-7.2-50.9-2.2-55.3-0.6z"/>
									</g>
									<path id="&lt;Path&gt;" fill-rule="evenodd" class="s1" d="m497.9 359.1c-13.2 8.4-30 9-45.2 9.3-15.5 0.3-31-1.3-46.1-4.7-14.7-3.2-29.2-8-42.9-14.4-13.6-6.4-25.9-14.6-38.4-22.9-1.8-1.2-4 1.6-2.3 3.1 23.5 20.3 55.5 32.9 85.7 38.9 15.2 3 30.7 4.3 46.2 3.9 15.3-0.4 31.5-1.9 44.4-10.7 1.6-1 0.2-3.5-1.4-2.5z"/>
								</g>
								<g id="&lt;Group&gt;">
									<g id="&lt;Group&gt;">
										<path id="&lt;Path&gt;" fill-rule="evenodd" class="s2" d="m180 319.1c0 0-28.9-4.2-70.6 14.5-41.8 18.7-69-18.7-51.1-46 17.9-27.2 64.7-55.3 137-25.5 72.4 29.8-15.3 57-15.3 57z"/>
										<path id="&lt;Compound Path&gt;" fill-rule="evenodd" class="s3" d="m87.3 340.5c-10.3 0-20.6-3.4-28.4-12.5-9.9-11.7-10.8-28.4-2.3-41.4 10.7-16.3 28.6-29 49.2-35 26.9-7.8 57.2-4.9 90.3 8.7 20.5 8.4 30.2 17.3 29.8 27.2-0.4 8.4-8.2 16.6-23.3 24.4-11 5.6-21.6 9-22 9.1q-0.4 0.1-0.9 0.1c-0.3-0.1-28.9-4-69.5 14.3-6.9 3.1-14.9 5.1-22.9 5.1zm49.3-89.3q-15.5 0-29.7 4.2c-19.7 5.7-36.8 17.9-47 33.3-7.6 11.6-6.8 26.4 2 36.7 12.4 14.6 32.3 12.9 46.6 6.4 39.5-17.7 67.3-15.2 71.3-14.7 11.9-3.8 41.5-16 42.2-29.7 0.3-7.9-9.2-16-27.4-23.5-20.5-8.4-39.9-12.7-58-12.7z"/>
									</g>
									<g id="&lt;Group&gt;">
										<path id="&lt;Path&gt;" fill-rule="evenodd" class="s2" d="m253.2 274.9c0 0 2.5 37.4-47.7 83.4-50.2 45.9-93.6 0.8-46.8-40 46.8-40.9 94.5-43.4 94.5-43.4z"/>
										<path id="&lt;Compound Path&gt;" fill-rule="evenodd" class="s3" d="m164.4 379.6q-5.3 0-10.1-1.6c-9-2.9-15.2-9.7-17-18.6-2.8-13.5 4.6-29 20.1-42.6 24.5-21.3 49.1-32.1 65.5-37.4 17.8-5.8 29.7-6.5 30.2-6.5 1 0 2 0.8 2 1.8 0.2 1.6 2.1 39-48.2 85-14.1 12.9-29.3 19.9-42.5 19.9zm86.8-102.6c-9.6 1.1-50.9 7.6-91.2 42.7-20.5 18-20 33.2-18.9 38.9 1.6 7.5 6.8 13.2 14.4 15.7 13.7 4.4 31.9-2.1 48.7-17.5 25.5-23.3 37-44.4 42-57.9 4.1-10.6 4.9-18.4 5-21.9z"/>
									</g>
									<g id="&lt;Group&gt;">
										<path id="&lt;Path&gt;" fill-rule="evenodd" class="s2" d="m267 173.2c0 0-9.4-54.6-57.1-58.2-47.8-3.7-46.7 62.9 26.7 93.8 73.5 31 30.4-35.6 30.4-35.6z"/>
										<path id="&lt;Compound Path&gt;" fill-rule="evenodd" class="s3" d="m266.8 219c-7.4 0-17.7-2.8-30.9-8.4-27.3-11.4-41.9-26.5-49.4-37.1-9.4-13.3-13.2-27.7-10.3-39.4 3.5-14.6 16.2-22.5 33.8-21.1 46.5 3.6 57.9 54.3 58.9 59.4 2.8 4.4 19.1 31.1 9.8 42.2q-3.7 4.4-11.9 4.4zm-60.6-102.2c-13.7 0-23.4 6.6-26.2 18.2-5.1 21 13.3 53.4 57.4 72 25.9 11 35.1 8.8 38.3 5 6.5-7.8-5.2-29.9-10.3-37.8q-0.2-0.3-0.3-0.7c-0.1-0.5-9.8-53.1-55.4-56.6q-1.8-0.1-3.5-0.1z"/>
									</g>
									<g id="&lt;Group&gt;">
										<path id="&lt;Path&gt;" fill-rule="evenodd" class="s2" d="m326.8 319.1c0 0 28.9-4.2 70.6 14.5 41.7 18.7 69-18.7 51.1-46-17.9-27.2-64.7-55.3-137-25.5-72.4 29.8 15.3 57 15.3 57z"/>
										<path id="&lt;Compound Path&gt;" fill-rule="evenodd" class="s3" d="m419.5 340.5c-8 0-16-2-22.9-5.1-40.6-18.3-69.2-14.4-69.5-14.3q-0.5 0-0.9-0.1c-0.4-0.1-11.1-3.5-22-9.1-15.1-7.8-22.9-16-23.3-24.4-0.4-9.9 9.3-18.8 29.8-27.2 33.1-13.6 63.4-16.5 90.3-8.7 20.6 6 38.5 18.7 49.1 35 8.6 13 7.7 29.7-2.2 41.4-7.8 9.1-18.1 12.5-28.4 12.5zm-84.5-23.8c11.6 0 34.3 2.1 63.2 15.1 14.4 6.5 34.2 8.2 46.7-6.4 8.8-10.3 9.6-25.1 2-36.7-10.2-15.4-27.3-27.6-47-33.3-26-7.6-55.5-4.7-87.7 8.5-18.2 7.5-27.7 15.6-27.4 23.5 0.7 13.7 30.3 25.9 42.2 29.7 1-0.1 3.8-0.4 8-0.4z"/>
									</g>
									<g id="&lt;Group&gt;">
										<path id="&lt;Path&gt;" fill-rule="evenodd" class="s2" d="m253.6 274.9c0 0-2.6 37.4 47.7 83.4 50.2 45.9 93.6 0.8 46.8-40-46.8-40.9-94.5-43.4-94.5-43.4z"/>
										<path id="&lt;Compound Path&gt;" fill-rule="evenodd" class="s3" d="m342.3 379.6c-13.1 0-28.3-7-42.4-19.9-50.3-46-48.4-83.4-48.3-85 0.1-1 1-1.8 2.1-1.8 0.5 0 48.9 3.1 95.7 43.9 15.5 13.6 22.9 29.1 20.1 42.6-1.8 8.9-8 15.7-17 18.6-3.2 1.1-6.6 1.6-10.2 1.6zm-86.7-102.6c0.4 8.3 4.7 41.1 47 79.8 16.8 15.4 35 21.9 48.7 17.5 7.6-2.5 12.8-8.2 14.4-15.7 1.1-5.7 1.6-20.9-18.9-38.9-40.3-35.1-81.6-41.6-91.2-42.7z"/>
									</g>
									<g id="&lt;Group&gt;">
										<path id="&lt;Path&gt;" fill-rule="evenodd" class="s2" d="m239.7 173.2c0 0 9.5-54.6 57.2-58.2 47.8-3.7 46.7 62.9-26.7 93.8-73.5 31-30.5-35.6-30.5-35.6z"/>
										<path id="&lt;Compound Path&gt;" fill-rule="evenodd" class="s3" d="m240 219c-5.5 0-9.4-1.5-11.9-4.4-9.3-11.1 7-37.8 9.8-42.2 1-5.1 12.4-55.8 58.9-59.4 17.6-1.4 30.3 6.5 33.8 21.1 2.9 11.7-0.9 26.1-10.3 39.4-7.5 10.6-22.1 25.7-49.4 37.1-13.2 5.6-23.5 8.4-30.9 8.4zm60.5-102.2q-1.6 0-3.4 0.1c-45.6 3.5-55.3 56.1-55.4 56.6q-0.1 0.4-0.3 0.7c-5.1 7.9-16.8 30-10.3 37.8 3.2 3.8 12.4 6 38.3-5 32.9-13.8 64.2-43.8 57.4-72-2.8-11.6-12.5-18.2-26.3-18.2zm-60.8 56.4h0.1z"/>
									</g>
									<g id="&lt;Group&gt;">
										<g id="&lt;Group&gt;">
											<g id="&lt;Group&gt;">
												<path id="&lt;Compound Path&gt;" fill-rule="evenodd" class="s4" d="m304.8 185.2c-3.1-0.9-6.2-1.4-9.1-1.5 10.3-7.6 17.1-18.4 12.2-26.1-5.9-9.2-13.2-10.9-28.2-2.5-2.8 1.5-5.4 3.4-7.6 5.4 2-12.7-0.8-25.1-9.8-27.1-10.6-2.4-17 1.6-21.7 18.1-0.9 3.1-1.3 6.2-1.5 9.2-7.5-10.3-18.3-17.2-26.1-12.2-9.2 5.9-10.9 13.1-2.5 28.2 1.6 2.8 3.4 5.3 5.4 7.5-12.6-2-25.1 0.8-27.1 9.8-2.3 10.7 1.6 17 18.2 21.7 3.1 0.9 6.2 1.4 9.1 1.5-10.3 7.6-17.1 18.4-12.1 26.1 5.8 9.2 13.1 10.9 28.1 2.5 2.9-1.5 5.4-3.4 7.6-5.4-2 12.7 0.8 25.1 9.8 27.1 10.6 2.4 17-1.6 21.7-18.1 0.9-3.1 1.4-6.2 1.5-9.2 7.5 10.3 18.3 17.2 26.1 12.2 9.2-5.9 10.9-13.1 2.5-28.2-1.6-2.8-3.4-5.3-5.4-7.5 12.6 2 25.1-0.8 27.1-9.8 2.3-10.7-1.6-17-18.2-21.7z"/>
												<path id="&lt;Compound Path&gt;" fill-rule="evenodd" class="s5" d="m254.6 270.1q-2.6 0-5.5-0.7c-9.3-2-12.6-13.1-11.9-24.4q-2 1.4-4.1 2.6c-15.1 8.4-24 7.4-30.8-3.2-5.1-8.1 0.4-18.2 8.9-25.7q-2.4-0.4-4.7-1.1c-16.7-4.7-22.3-11.7-19.6-24 2.1-9.3 13.1-12.6 24.5-11.9q-1.4-1.9-2.6-4.1c-8.4-15.1-7.5-24 3.2-30.8 8-5.1 18.1 0.4 25.7 9q0.4-2.5 1-4.8c4.8-16.6 11.7-22.3 24-19.5 9.4 2 12.6 13.1 11.9 24.4q2-1.4 4.1-2.6c15.1-8.4 24-7.4 30.8 3.2 5.1 8.1-0.4 18.2-8.9 25.7q2.4 0.4 4.8 1.1 0 0 0 0c16.6 4.7 22.2 11.7 19.5 24-2.1 9.3-13.1 12.5-24.5 11.9q1.4 1.9 2.6 4.1c8.4 15.1 7.5 24-3.2 30.8-8 5.1-18.1-0.4-25.7-9q-0.3 2.5-1 4.8c-4 14-9.6 20.2-18.5 20.2zm-14.9-31.6q0.4 0 0.9 0.2c0.7 0.4 1.1 1.2 1 2-1.7 10.8 0.2 23.1 8.3 24.9 8.7 1.9 14.7-0.2 19.4-16.8 0.8-2.8 1.3-5.7 1.4-8.7 0.1-0.8 0.6-1.5 1.4-1.8 0.8-0.2 1.7 0.1 2.2 0.8 6.4 8.7 16.4 16.1 23.4 11.6 7.6-4.7 10.3-10.4 1.9-25.5-1.4-2.6-3.2-5-5.2-7.2-0.5-0.6-0.6-1.5-0.2-2.2 0.4-0.8 1.2-1.2 2-1 10.7 1.6 23-0.3 24.9-8.4 1.9-8.7-0.2-14.6-16.8-19.4-2.8-0.8-5.8-1.2-8.7-1.4-0.9 0-1.6-0.6-1.8-1.4-0.2-0.8 0-1.6 0.7-2.1 8.8-6.4 16.2-16.5 11.7-23.5-4.8-7.5-10.5-10.2-25.6-1.8-2.5 1.4-4.9 3.1-7.1 5.1-0.6 0.6-1.6 0.7-2.3 0.3-0.7-0.4-1.1-1.2-1-2 1.7-10.8-0.2-23.1-8.3-24.9-8.7-1.9-14.7 0.2-19.4 16.8-0.8 2.8-1.3 5.7-1.4 8.7-0.1 0.8-0.6 1.5-1.4 1.8-0.8 0.2-1.7-0.1-2.2-0.8-6.4-8.7-16.4-16.1-23.4-11.6-7.5 4.7-10.2 10.5-1.9 25.5 1.4 2.6 3.2 5 5.2 7.2 0.5 0.6 0.6 1.5 0.2 2.2-0.4 0.8-1.2 1.2-2 1-10.7-1.6-23 0.3-24.8 8.4-2 8.7 0.2 14.6 16.7 19.4 2.8 0.8 5.8 1.2 8.7 1.4 0.9 0 1.6 0.6 1.8 1.4 0.3 0.8 0 1.6-0.7 2.1-8.8 6.4-16.1 16.5-11.7 23.5 4.8 7.5 10.5 10.2 25.6 1.8 2.5-1.4 5-3.1 7.1-5.1 0.4-0.3 0.9-0.5 1.4-0.5z"/>
											</g>
											<path id="&lt;Path&gt;" fill-rule="evenodd" class="s5" d="m215.6 159.1c8 10.1 16.4 20.1 26 28.8 1.9 1.7 4.5-0.9 2.8-2.8-9-9.2-18.6-18-27.5-27.4-0.9-0.9-2.1 0.5-1.3 1.4z"/>
											<path id="&lt;Path&gt;" fill-rule="evenodd" class="s5" d="m198 201.4c13 0.1 25.7 3.8 38.7 3.1 2.8-0.1 2.8-4.4 0-4.2-12.9 0.9-26.1-3.8-39-0.7-1 0.2-0.7 1.8 0.3 1.8z"/>
											<path id="&lt;Path&gt;" fill-rule="evenodd" class="s5" d="m215.6 242.2c5-4.1 9-9.3 13.6-13.7 5.1-4.8 10.6-9.1 16.2-13.2 2.1-1.6 0.2-5.1-2.1-3.6-10.8 7-23.8 17.2-29.4 29.1-0.6 1.2 0.7 2.2 1.7 1.4z"/>
											<path id="&lt;Path&gt;" fill-rule="evenodd" class="s5" d="m255.1 259.1c3.2-13.5 3-28.6 2.5-42.3-0.2-3.1-4.9-3.1-4.8 0 0.6 14-0.6 28-0.1 41.9 0.1 1.4 2.1 1.8 2.4 0.4z"/>
											<path id="&lt;Path&gt;" fill-rule="evenodd" class="s5" d="m293.9 239.7c-6.2-10.6-13.8-20.8-21.2-30.6-1.5-2.1-5-0.2-3.5 2 7 10.2 14.6 20.8 23 29.9 0.9 0.9 2.4-0.3 1.7-1.3z"/>
											<path id="&lt;Path&gt;" fill-rule="evenodd" class="s5" d="m255.4 142.2c-1.2 6.1-1.6 12.4-2.2 18.5-0.5 6.4-2.3 13.7-0.9 20 0.2 1.3 2 1 2.4 0 2.3-6 1.9-13.6 2.4-20 0.5-6.1 1.4-12.4 0.5-18.5-0.1-1.1-2-1-2.2 0z"/>
											<path id="&lt;Path&gt;" fill-rule="evenodd" class="s5" d="m294.2 161.9q-7.3 6.1-14.7 12.2c-4.9 3.9-10.6 7.5-14.8 12.2-1.4 1.6 0.4 4.3 2.5 3.1 5.2-3 9.8-7.7 14.3-11.7q7.6-6.7 15-13.5c1.6-1.5-0.7-3.7-2.3-2.3z"/>
											<path id="&lt;Path&gt;" fill-rule="evenodd" class="s5" d="m307.1 202.7c-10.7-2.5-22.2-4.5-33.1-5.6-2.3-0.3-2.8 3.6-0.6 4 10.8 2.1 22.4 3.6 33.3 4.3 1.6 0.1 1.9-2.4 0.4-2.7z"/>
											<path id="&lt;Path&gt;" fill-rule="evenodd" class="s5" d="m215.3 218.9c8.6-1.6 16.9-3.9 25.1-6.6 2.4-0.8 1.4-4.5-1-3.8-8.4 2.3-16.6 4.9-24.7 8.1-1.3 0.6-0.8 2.5 0.6 2.3z"/>
											<path id="&lt;Path&gt;" fill-rule="evenodd" class="s5" d="m239.3 242.7c3-2.8 4.2-6.2 5.7-9.9q3-7.5 7-14.4c1.4-2.4-2.2-4.5-3.6-2.2-2.2 3.7-4.2 7.5-5.9 11.4-1.8 4.4-2.8 9.4-5.2 13.5-0.7 1.3 1 2.5 2 1.6z"/>
											<path id="&lt;Path&gt;" fill-rule="evenodd" class="s5" d="m275.4 242.1c-2.7-8-5.1-15.9-7.2-24.1-0.6-2.7-4.5-1.5-4.1 1.1 1.4 8.4 4.4 16.8 8.9 24 0.7 1.2 2.9 0.5 2.4-1z"/>
											<path id="&lt;Path&gt;" fill-rule="evenodd" class="s5" d="m216 185.3q0.2 0.1 0.3 0.3c0.2 0.2 0.5-0.1 0.3-0.4q-0.1-0.1-0.2-0.2c-0.2-0.2-0.6 0.1-0.4 0.3z"/>
											<path id="&lt;Path&gt;" fill-rule="evenodd" class="s5" d="m212.5 184.4c4.5 2.6 9.1 4.2 13.8 6.4 4 1.9 6.8 5.2 11.1 6.5 2.1 0.5 3.6-2.6 1.5-3.6-3.7-1.9-6.6-4.9-10.3-6.5-5-2.1-10-3.7-15.2-4.9-1.2-0.3-2.1 1.4-0.9 2.1z"/>
											<path id="&lt;Path&gt;" fill-rule="evenodd" class="s5" d="m246.8 184.7c-0.4-3.9-2-7.6-3.1-11.3-1.6-5.4-1.5-10.4-1.9-15.8-0.1-1.8-2.3-2-2.9-0.4-3.3 8 1 21.4 6.1 28 0.5 0.7 1.9 0.6 1.8-0.5z"/>
											<path id="&lt;Path&gt;" fill-rule="evenodd" class="s5" d="m266 182.9c5.6-7.3 10-18.2 8.9-27.5-0.2-1.7-2.6-2.3-3.1-0.4-1.3 4.5-1.5 9.3-2.7 13.9-1.1 4.6-2.5 9.1-3.8 13.6-0.1 0.3 0.4 0.7 0.7 0.4z"/>
											<path id="&lt;Path&gt;" fill-rule="evenodd" class="s5" d="m271.2 190.1c5.5-1.7 11.2-2.4 17-2.9 4.5-0.4 9.2 0 13.5-1.4 1.2-0.4 1.4-2.4 0-2.7-9.7-2.1-22.7 0.5-31.6 4.5-1.4 0.6-0.4 2.9 1.1 2.5z"/>
											<path id="&lt;Path&gt;" fill-rule="evenodd" class="s5" d="m271.7 207.1c9.4 7 23.2 13.2 35.2 11.3 1.7-0.3 1.5-2.8 0-3.3-5.4-1.5-11-1.7-16.5-3.4-5.9-1.9-11.6-4.4-17.1-7.3-1.8-1-3.2 1.5-1.6 2.7z"/>
										</g>
									</g>
									<g id="&lt;Group&gt;">
										<path id="&lt;Path&gt;" fill-rule="evenodd" class="s6" d="m132.7 251c62.5-14.9 178.2-14.9 240.8 0 0 0 32.8 63.9-25.1 88.5-58 24.7-51-32.3-90-32.3q-3 0-5.3-0.6-2.4 0.6-5.4 0.6c-38.9 0-32 57-90 32.3-57.9-24.6-25-88.5-25-88.5z"/>
										<path id="&lt;Compound Path&gt;" fill-rule="evenodd" class="s3" d="m322.9 347.7c-16.5 0-25.1-10-33.4-19.9-8.2-9.6-15.9-18.6-31.1-18.6q-2.8 0-5.3-0.6-2.5 0.6-5.4 0.6c-15.2 0-22.9 9-31 18.6-12 14.1-24.4 28.6-59.7 13.6-16.3-7-27.2-17.7-32.3-31.8-9.9-27.5 5.6-58.2 6.2-59.5 0.3-0.5 0.8-0.8 1.3-1 63.3-15.1 178.5-15.1 241.7 0 0.6 0.2 1 0.5 1.3 1 0.7 1.3 16.2 32 6.2 59.5-5.1 14.1-15.9 24.8-32.2 31.8-10.7 4.5-19.2 6.3-26.3 6.3zm-69.8-43.1q0.2 0 0.5 0.1 2.2 0.5 4.8 0.5c17 0 25.7 10.2 34.1 20.1 11.5 13.6 22.4 26.4 55.1 12.4 15.3-6.5 25.4-16.4 30.1-29.4 8.5-23.6-3.3-50.6-5.6-55.6-62.7-14.7-175.4-14.7-238.1 0-2.3 5-14.1 32-5.6 55.6 4.7 13 14.8 22.9 30.1 29.4 32.7 14 43.6 1.2 55.2-12.4 8.4-9.9 17-20.1 34-20.1q2.6 0 4.9-0.5 0.2-0.1 0.5-0.1z"/>
									</g>
									<g id="&lt;Group&gt;">
										<path id="&lt;Path&gt;" fill-rule="evenodd" class="s2" d="m355.7 252.7c0 0 10.2 37.5-26.3 50.2-36.6 12.8-73.9-40-73.9-40 0 0-0.2-21.2 29.6-25.5 29.8-4.2 70.6 15.3 70.6 15.3z"/>
										<path id="&lt;Compound Path&gt;" fill-rule="evenodd" class="s3" d="m317.7 306.9c-12.6 0-26.3-6-40.3-17.7-13.9-11.6-23.1-24.7-23.5-25.2q-0.4-0.5-0.4-1.1c0-0.2 0.2-23 31.3-27.4 12.7-1.8 28.6 0.2 47.4 6.1 13.9 4.4 24.3 9.3 24.4 9.4 0.5 0.2 0.9 0.7 1 1.2 0.1 0.4 10.3 39.4-27.6 52.6q-6 2.1-12.3 2.1zm-60.2-44.6c4 5.4 38.4 50.3 71.2 38.8 31.8-11.1 26.6-41.3 25.4-47-6-2.7-42.2-18.5-68.7-14.7-25.2 3.6-27.7 19.5-27.9 22.9z"/>
									</g>
									<g id="&lt;Group&gt;">
										<path id="&lt;Path&gt;" fill-rule="evenodd" class="s6" d="m256 237.7c0 0 90.2 1.6 115.4-25.2 25.2-26.7 10-55.1-18.9-54.5-28.8 0.5-99.6 55.6-96.5 79.7z"/>
										<path id="&lt;Compound Path&gt;" fill-rule="evenodd" class="s3" d="m258.7 239.7c-1.7 0-2.7-0.1-2.7-0.1-1 0-1.8-0.7-1.9-1.7-1.2-9 6.7-20.3 13.6-28.3 20.7-24 63.1-53.2 84.8-53.6 14.4-0.3 26.3 6.5 31.3 17.6 5.4 12.2 1.3 27.2-11 40.3-10.7 11.4-33.7 19.2-68.3 23.2-20.4 2.3-39.1 2.6-45.8 2.6zm-0.8-4q0.2 0 0.5 0c14.4 0 89.5-1.1 111.6-24.5 11.1-11.9 14.9-25.3 10.2-36-4.3-9.7-14.9-15.6-27.6-15.3-18.9 0.4-59.5 26.2-81.9 52.2-8.2 9.5-12.6 17.8-12.8 23.6z"/>
									</g>
									<g id="&lt;Group&gt;">
										<path id="&lt;Path&gt;" fill-rule="evenodd" class="s6" d="m256.1 233.5c0 0-10.1-29.7 43.1-60.2 53.1-30.5 7-62.6-15.7-56.3 0 0 36-13.3 69.6 15.6 33.7 29-9.4 60.3-38.3 69.6-28.9 9.4-53.2 14.9-58.7 31.3z"/>
										<path id="&lt;Compound Path&gt;" fill-rule="evenodd" class="s3" d="m256.1 235.5c-0.8 0-1.6-0.5-1.8-1.3-0.5-1.3-10.1-31.6 43.9-62.6 19.2-11 27.1-23.5 22.2-35.1-5.5-13.1-24.9-20.8-36.4-17.6-1 0.2-2-0.3-2.4-1.3-0.3-1 0.2-2.1 1.2-2.5 0.4-0.1 37.5-13.3 71.6 16 10.4 8.9 14.6 18.8 12.5 29.2-2.4 11.6-12.1 21.1-19.8 27.1-9.2 7.1-20.7 13.2-31.7 16.7q-5.5 1.8-10.7 3.4c-23.6 7.4-42.2 13.3-46.7 26.7-0.3 0.8-1 1.3-1.9 1.3q0 0 0 0zm44.8-119.5c9.8 3.1 19.3 9.8 23.2 19 3.3 7.9 4.5 23.7-24 40-26.7 15.3-36.7 30.3-40.4 40.2-1.8 4.7-2.3 8.6-2.4 11.7 7.8-11.1 25.1-16.5 46.2-23.1q5.2-1.7 10.7-3.4c21-6.9 45.3-23.5 48.8-40.9 1.8-8.9-1.9-17.5-11.2-25.4-18.4-15.8-37.7-18.6-50.9-18.1z"/>
									</g>
									<g id="&lt;Group&gt;">
										<path id="&lt;Path&gt;" fill-rule="evenodd" class="s6" d="m255.5 262.9c0 0-10-24.2 14.7-32 24.6-7.9 84.9-1.6 102.2-29.9 17.4-28.4-6.8-39.9-6.8-39.9 0 0 35.9-8.7 54.6 34.1 12.6 28.9-21.6 72.1-67.2 67.1-38.8-4.2-88.6-36.7-97.5 0.6z"/>
										<path id="&lt;Compound Path&gt;" fill-rule="evenodd" class="s3" d="m255.5 264.8c-0.8 0-1.5-0.4-1.8-1.2-0.2-0.5-4.8-11.7 0-21.9 2.7-5.9 8.1-10.2 15.9-12.7 7.9-2.5 19.4-3.6 31.5-4.8 26-2.5 58.3-5.6 69.7-24.3 5.4-8.9 7.2-16.9 5.1-23.8-2.7-9.1-11-13.2-11.1-13.2-0.8-0.4-1.2-1.2-1.1-2 0.1-0.8 0.7-1.5 1.5-1.7 0.3-0.1 37.7-8.6 56.8 35.2 5.5 12.8 2.7 28.8-7.7 42.9-11 15.1-33 30.1-61.5 27-11.9-1.3-24.8-5.2-37.3-9-19.7-6-38.4-11.7-49.2-5.5-4.4 2.6-7.3 7-8.9 13.5-0.2 0.8-0.9 1.5-1.8 1.5q0 0-0.1 0zm22.7-21.6c11 0 24.5 4.1 38.5 8.4 12.3 3.7 25 7.5 36.6 8.8 26.8 2.9 47.5-11.2 57.9-25.4 9.5-13 12.2-27.5 7.2-39-13.7-31.4-37.1-34-47.3-33.6 3.1 2.5 6.8 6.6 8.6 12.6 2.3 8 0.5 17.1-5.6 27-12.4 20.3-45.8 23.5-72.6 26.1-12 1.2-23.2 2.2-30.7 4.6-6.7 2.2-11.3 5.8-13.6 10.7-2 4.4-2 9-1.4 12.6q3-6.4 8.5-9.6c4-2.2 8.7-3.2 13.9-3.2z"/>
									</g>
									<g id="&lt;Group&gt;">
										<path id="&lt;Path&gt;" fill-rule="evenodd" class="s2" d="m151.1 252.7c0 0-10.3 37.5 26.3 50.2 36.6 12.8 73.9-40 73.9-40 0 0 0.2-21.2-29.6-25.5-29.8-4.2-70.6 15.3-70.6 15.3z"/>
										<path id="&lt;Compound Path&gt;" fill-rule="evenodd" class="s3" d="m189.1 306.9q-6.4 0-12.3-2.1c-37.9-13.2-27.7-52.2-27.6-52.6 0.1-0.5 0.5-1 1-1.2 0.1-0.1 10.5-5 24.4-9.4 18.8-5.9 34.7-7.9 47.4-6.1 31.1 4.4 31.3 27.2 31.3 27.4q0 0.6-0.4 1.1c-0.4 0.5-9.6 13.6-23.5 25.2-14 11.7-27.7 17.7-40.3 17.7zm-36.4-52.8c-1.2 5.7-6.4 35.9 25.4 47 3.7 1.3 7.4 1.9 11.1 1.9 29.1 0 56.6-35.9 60.1-40.7-0.2-3.4-2.7-19.3-27.9-22.9-26.5-3.8-62.7 12-68.7 14.7z"/>
									</g>
									<g id="&lt;Group&gt;">
										<path id="&lt;Path&gt;" fill-rule="evenodd" class="s6" d="m250.8 237.7c0 0-90.2 1.6-115.4-25.2-25.2-26.7-10-55.1 18.9-54.5 28.8 0.5 99.6 55.6 96.5 79.7z"/>
										<path id="&lt;Compound Path&gt;" fill-rule="evenodd" class="s3" d="m248.1 239.7c-6.7 0-25.4-0.3-45.8-2.6-34.6-4-57.6-11.8-68.3-23.2-12.3-13.1-16.4-28.1-11-40.3 5-11.1 16.9-17.9 31.3-17.6 21.7 0.4 64.1 29.6 84.8 53.6 6.9 8 14.8 19.3 13.6 28.3-0.1 1-0.9 1.7-1.9 1.7 0 0-1 0.1-2.7 0.1zm2.7-2zm-97.3-77.8c-12.4 0-22.7 5.8-26.9 15.3-4.7 10.7-0.9 24.1 10.2 36 22.4 23.7 99.3 24.5 112.1 24.5-0.1-5.8-4.6-14.1-12.8-23.6-22.4-26-63-51.8-81.8-52.2q-0.4 0-0.8 0z"/>
									</g>
									<g id="&lt;Group&gt;">
										<path id="&lt;Path&gt;" fill-rule="evenodd" class="s6" d="m250.7 233.5c0 0 10.1-29.7-43.1-60.2-53.2-30.5-7-62.6 15.7-56.3 0 0-36-13.3-69.6 15.6-33.7 29 9.3 60.3 38.3 69.6 28.9 9.4 53.2 14.9 58.7 31.3z"/>
										<path id="&lt;Compound Path&gt;" fill-rule="evenodd" class="s3" d="m250.7 235.5q0 0 0 0c-0.9 0-1.6-0.5-1.9-1.3-4.5-13.4-23.1-19.3-46.7-26.7q-5.2-1.6-10.7-3.4c-11-3.5-22.5-9.6-31.7-16.7-7.7-6-17.4-15.5-19.8-27.1-2.1-10.4 2.1-20.3 12.5-29.2 34.1-29.3 71.2-16.1 71.6-16 0.9 0.4 1.5 1.5 1.2 2.5-0.4 1-1.4 1.5-2.4 1.3-11.5-3.2-31 4.5-36.4 17.6-4.9 11.6 3 24.1 22.2 35.1 54 31 44.4 61.3 43.9 62.6-0.3 0.8-1 1.3-1.8 1.3zm-47.9-119.5c-13 0-30.8 3.4-47.9 18.1-9.2 7.9-12.9 16.5-11.1 25.4 3.5 17.4 27.7 34 48.8 40.9q5.5 1.7 10.7 3.4c21.1 6.6 38.3 12 46.1 23-0.3-10-5.9-30.7-42.7-51.8-28.5-16.3-27.3-32.1-24-40 3.9-9.2 13.4-15.9 23.2-19q-1.5 0-3.1 0z"/>
									</g>
									<g id="&lt;Group&gt;">
										<path id="&lt;Path&gt;" fill-rule="evenodd" class="s6" d="m251.3 262.9c0 0 10-24.2-14.7-32-24.6-7.9-84.9-1.6-102.3-29.9-17.3-28.4 6.9-39.9 6.9-39.9 0 0-35.9-8.7-54.6 34.1-12.6 28.9 21.6 72.1 67.1 67.1 38.9-4.2 88.7-36.7 97.6 0.6z"/>
										<path id="&lt;Compound Path&gt;" fill-rule="evenodd" class="s3" d="m251.3 264.8q-0.1 0-0.1 0c-0.9 0-1.6-0.7-1.8-1.5-1.6-6.5-4.5-10.9-8.9-13.5-10.8-6.2-29.5-0.5-49.3 5.5-12.4 3.8-25.3 7.7-37.2 9-28.5 3.1-50.5-11.9-61.5-27-10.4-14.1-13.3-30.1-7.7-42.9 19.1-43.8 56.4-35.3 56.8-35.2 0.8 0.2 1.4 0.9 1.5 1.7 0.1 0.8-0.3 1.6-1.1 2-0.1 0-8.5 4.2-11.1 13.2-2.1 6.9-0.3 14.9 5.1 23.8 11.4 18.7 43.7 21.8 69.7 24.3 12.1 1.2 23.6 2.3 31.5 4.8 7.8 2.5 13.1 6.8 15.9 12.7 4.8 10.2 0.2 21.4 0 21.9-0.3 0.8-1 1.2-1.8 1.2zm-118.1-102.5c-11.1 0-32 4.3-44.8 33.7-5 11.5-2.3 26 7.2 39 10.4 14.2 31.1 28.3 57.9 25.4 11.6-1.3 24.3-5.1 36.6-8.8 20.6-6.3 40.1-12.2 52.4-5.2q5.5 3.2 8.5 9.6c0.6-3.6 0.6-8.3-1.4-12.6-2.3-4.9-6.9-8.5-13.6-10.7-7.5-2.4-18.8-3.4-30.7-4.6-26.8-2.6-60.2-5.8-72.6-26.1-6.1-9.9-8-19-5.6-27 1.8-6 5.6-10.1 8.6-12.6q-1.1-0.1-2.5-0.1z"/>
									</g>
									<path id="&lt;Path&gt;" fill-rule="evenodd" class="s7" d="m176.8 234.4c0 0-35.3 5.6-49.2-21.3-13.9-26.9-8.4-41.8-14.9-37.1-6.5 4.6-27.8 25.9-6.5 57.5 21.4 31.5 54.8 18.6 68.7 15.8 13.9-2.8 26.9-13 1.9-14.9z"/>
									<path id="&lt;Path&gt;" fill-rule="evenodd" class="s7" d="m345.6 228.9c-18.5 0-34.3 11.1-5.5 20.4 28.7 9.2 54.7-3.7 65.8-21.4 11.2-17.6 2.8-40.8-8.3-49.2-11.1-8.3-4.6 32.5-24.1 41.8-19.5 9.3-27.9 8.4-27.9 8.4z"/>
									<path id="&lt;Path&gt;" fill-rule="evenodd" class="s7" d="m194.4 316.1c0 0-31.6 3.7-41.8-15.8-10.2-19.5-18.5-0.9-11.1 13 7.4 13.9 19.5 25 39 22.3 19.4-2.8 26.9-21.4 13.9-19.5z"/>
									<path id="&lt;Path&gt;" fill-rule="evenodd" class="s7" d="m298.3 317c0 0 25.1 9.3 41.8-0.9 16.7-10.2 25-37.1 28.7-32.5 3.7 4.6-0.9 44.5-32.4 49.2-31.6 4.6-45.5-15.8-38.1-15.8z"/>
									<path id="&lt;Path&gt;" fill-rule="evenodd" class="s3" d="m77.2 312.5c14.1-12.3 27.7-24.4 46-30 3.9-1.1 2.2-6.7-1.7-6-19.8 3.7-34.4 18.9-46.9 33.4-1.6 1.8 0.8 4.2 2.6 2.6z"/>
									<path id="&lt;Path&gt;" fill-rule="evenodd" class="s3" d="m435.2 313.9c-7.7-19.6-32.3-27.2-49.5-35.7-3.5-1.7-6.5 3.7-3 5.2 18.1 7.8 38.5 14.4 50.2 31.4 0.7 1.1 2.8 0.5 2.3-0.9z"/>
									<path id="&lt;Path&gt;" fill-rule="evenodd" class="s3" d="m161.6 364.8c2.2-2.6 4.4-5.1 6.6-7.7 2.1-2.5 4.2-6.5 7-8.2 3.9-2.4-2.1-7.2-3.6-2.8-1.1 3.1-4.4 6.1-6.3 8.8-1.9 2.7-3.8 5.6-5.6 8.4-0.8 1.2 1 2.6 1.9 1.5z"/>
									<path id="&lt;Path&gt;" fill-rule="evenodd" class="s3" d="m351 365.6c-1.2-3.7-3.2-7.1-4.7-10.7-1.8-3.9-3.4-8-5.1-11.9-1.2-2.9-5.5-0.4-4.2 2.4 3.3 7.2 6.8 15.3 11.6 21.6 0.9 1.1 2.7-0.1 2.4-1.4z"/>
									<path id="&lt;Path&gt;" fill-rule="evenodd" class="s3" d="m181 280.1c6.3-9.9 15.5-17.7 25.9-23 5-2.5 10.3-4.5 15.8-5.7 5.3-1.1 10.9-0.7 16.2-1.9 1.7-0.3 1.5-2.8 0-3.2-10.5-3.3-25.1 2-34.2 7-11 6-19.5 14.8-25.5 25.7-0.7 1.2 1.1 2.2 1.8 1.1z"/>
									<path id="&lt;Path&gt;" fill-rule="evenodd" class="s3" d="m329.5 279.9c-6.3-13.1-20-26.4-33.9-30.9-12.1-3.9-33.2-5-42.5 5.5-1.4 1.6 0.4 4 2.3 3 11.9-6.3 27-7.8 40-3.8 7.2 2.2 12.7 6.7 18.1 11.8 5.1 4.8 10.3 9.5 13.9 15.6 0.8 1.4 2.7 0.2 2.1-1.2z"/>
									<path id="&lt;Path&gt;" fill-rule="evenodd" class="s3" d="m254.3 238.4c-0.6-2.4-0.4-4.9 0.8-7.1q-2.2-0.6-4.4-1.2c-0.1 3.5-0.7 6.4-1.8 9.7q2.2-0.5 4.3-1.1c-1.5-1.9-3.7-1-4.3 1.1-0.7 2.8 3.5 4.7 4.7 2 1.7-3.6 2.3-7.8 1.8-11.7-0.3-2.6-3.7-3.3-4.6-0.7-1.3 3.5-1 7 0.5 10.3 0.7 1.8 3.5 0.5 3-1.3z"/>
									<path id="&lt;Path&gt;" fill-rule="evenodd" class="s3" d="m169 147.6c-6.6 5.8-12.6 17.1-8.5 25.9 0.4 0.8 2 0.6 2.1-0.3 0.7-3.9 0.3-7.8 1.3-11.7 1.2-4.6 3.5-8.9 6.6-12.5 0.8-1-0.5-2.3-1.5-1.4z"/>
									<path id="&lt;Path&gt;" fill-rule="evenodd" class="s3" d="m178.2 158.9c-4 5.6-6.5 13.8-3.5 20.4 0.7 1.4 3 0.7 2.9-0.8-0.1-6.7-0.5-12.1 3-18.2 1-1.6-1.4-2.9-2.4-1.4z"/>
									<path id="&lt;Path&gt;" fill-rule="evenodd" class="s3" d="m318.6 165.4c1.4 2.7 3.7 4.9 5.2 7.5 1.6 2.7 2.6 5.7 4.2 8.3 0.8 1.2 2.5 0.4 2.3-0.9-0.7-3.3-2.7-6.4-4.6-9-1.7-2.4-3.8-5.2-6.4-6.7-0.4-0.2-1 0.3-0.7 0.8z"/>
									<path id="&lt;Path&gt;" fill-rule="evenodd" class="s3" d="m328.1 156.4c2.8 3.3 5.1 6.7 7 10.4 1.7 3.1 2.5 6.8 4.7 9.5 0.8 1 2.3 0.1 2.3-0.9 0.1-3.8-2.4-7.8-4.3-10.9-2.2-3.6-4.9-6.8-7.9-9.8-1.1-1.2-2.8 0.5-1.8 1.7z"/>
								</g>
							</g>
						</g>
					</g>
				</g>
			</g>
		</g>
	</g>
</svg>