<?xml version="1.0" encoding="UTF-8" standalone="no"?>
<!-- Created with Inkscape (http://www.inkscape.org/) -->

<svg
   version="1.1"
   id="svg1"
   width="24.017899"
   height="24.017906"
   viewBox="0 0 24.017899 24.017906"
   sodipodi:docname="5534258.ai"
   xmlns:inkscape="http://www.inkscape.org/namespaces/inkscape"
   xmlns:sodipodi="http://sodipodi.sourceforge.net/DTD/sodipodi-0.dtd"
   xmlns="http://www.w3.org/2000/svg"
   xmlns:svg="http://www.w3.org/2000/svg">
  <defs
     id="defs1">
    <clipPath
       clipPathUnits="userSpaceOnUse"
       id="clipPath1540">
      <path
         d="M 0,500 H 500 V 0 H 0 Z"
         transform="translate(-56.053402,-410.43671)"
         id="path1540" />
    </clipPath>
    <clipPath
       clipPathUnits="userSpaceOnUse"
       id="clipPath1542">
      <path
         d="M 0,500 H 500 V 0 H 0 Z"
         transform="translate(-50.989402,-404.12811)"
         id="path1542" />
    </clipPath>
  </defs>
  <sodipodi:namedview
     id="namedview1"
     pagecolor="#ffffff"
     bordercolor="#000000"
     borderopacity="0.25"
     inkscape:showpageshadow="2"
     inkscape:pageopacity="0.0"
     inkscape:pagecheckerboard="0"
     inkscape:deskcolor="#d1d1d1" />
  <g
     id="layer-MC1"
     inkscape:groupmode="layer"
     inkscape:label="OBJECTS"
     style="display:inline"
     transform="translate(-64.672531,-116.66787)">
    <path
       id="path1539"
       d="M 0,0 V -0.002 C 0.001,0.004 -0.001,-0.004 0,0 M 5.911,-6.337 C 5.372,-6.682 4.997,-6.727 4.64,-6.811 4.333,-6.883 3.654,-7.124 3.347,-7.199 2.734,-7.348 2.387,-7.493 1.766,-7.604 1.765,-7.604 1.635,-7.627 1.635,-7.627 1.433,-7.661 1.228,-7.694 1.028,-7.737 L 0.948,-7.989 C 0.912,-8.143 0.914,-8.309 0.862,-8.458 0.802,-8.638 0.669,-8.782 0.622,-8.968 0.579,-9.134 0.558,-9.306 0.515,-9.472 0.504,-9.511 0.339,-10.011 0.252,-10.212 0.153,-10.534 0.107,-10.87 0.041,-11.2 c -0.084,-0.42 -0.096,-1.899 -0.592,-2.051 -0.166,-0.056 -0.797,2.42 -0.825,2.531 -0.105,0.411 -0.259,0.828 -0.341,1.256 l -0.033,0.152 c -0.076,0.351 -0.146,0.702 -0.23,1.05 -0.152,0.635 -0.248,0.727 -0.831,0.973 -0.445,0.188 -0.972,0.222 -1.444,0.315 -0.547,0.107 -1.094,0.216 -1.643,0.311 -0.019,0.003 -0.045,0.009 -0.045,0.009 -0.036,0.015 -0.97,0.097 -1.049,0.231 -0.041,0.069 0.771,0.24 1.21,0.375 0.233,0.071 0.555,0.216 0.599,0.228 0.393,0.108 0.597,0.136 0.991,0.237 0.395,0.101 0.808,0.132 1.207,0.215 0.275,0.058 0.897,0.203 1.119,0.388 0.108,0.345 0.194,0.815 0.258,1.176 0.123,0.694 0.016,0.61 0.152,1.301 0.067,0.345 0.375,1.465 0.444,1.811 0.054,0.275 0.049,0.602 0.159,0.859 0.078,0.182 0.28,0.776 0.366,0.949 0.194,-0.259 0.518,-1.133 0.564,-1.421 0.071,-0.435 0.123,-0.897 0.248,-1.32 0.084,-0.285 0.203,-0.562 0.228,-0.858 0.077,-0.937 0.08,-1.915 0.64,-2.518 0.629,-0.308 1.888,-0.517 2.538,-0.673 0.375,-0.09 0.354,-0.13 0.736,-0.189 0.21,-0.033 0.56,-0.216 0.929,-0.308 0.03,-0.008 0.504,-0.132 0.515,-0.166"
       style="fill:#f8c995;fill-opacity:1;fill-rule:nonzero;stroke:none"
       transform="matrix(1.3333333,0,0,-1.3333333,74.737867,119.41773)"
       clip-path="url(#clipPath1540)" />
    <path
       id="path1541"
       d="M 0,0 C 0.257,-0.047 0.522,-0.1 0.787,-0.151 L 0.905,-0.175 C 1.034,-0.2 1.168,-0.221 1.303,-0.242 1.682,-0.301 2.074,-0.362 2.448,-0.52 3.194,-0.835 3.383,-1.056 3.57,-1.837 3.631,-2.092 3.686,-2.35 3.741,-2.607 l 0.094,-0.445 c 0.05,-0.255 0.123,-0.497 0.195,-0.738 0.051,-0.167 0.1,-0.333 0.142,-0.498 0.12,-0.469 0.241,-0.913 0.349,-1.287 0.015,0.126 0.026,0.238 0.034,0.317 0.02,0.195 0.039,0.36 0.06,0.465 l 0.051,0.27 c 0.047,0.258 0.095,0.516 0.172,0.766 0.096,0.231 0.24,0.665 0.26,0.73 0.016,0.064 0.03,0.139 0.044,0.214 0.018,0.093 0.036,0.186 0.059,0.277 0.043,0.167 0.118,0.298 0.178,0.402 0.027,0.047 0.056,0.092 0.074,0.144 0.013,0.041 0.022,0.106 0.031,0.175 0.011,0.085 0.022,0.169 0.042,0.25 L 5.703,-1 5.987,-0.939 c 0.176,0.038 0.357,0.068 0.536,0.098 l 0.219,0.038 c 0.359,0.064 0.621,0.141 0.904,0.222 0.195,0.058 0.4,0.117 0.646,0.177 0.142,0.034 0.367,0.106 0.594,0.179 0.205,0.065 0.412,0.131 0.573,0.176 -10e-4,0 -0.002,0 -0.004,0 C 9.188,-0.008 9.086,0.026 8.958,0.068 8.892,0.091 8.815,0.116 8.678,0.148 8.523,0.186 8.332,0.226 8.123,0.271 7.43,0.417 6.567,0.599 6.038,0.858 L 5.891,0.967 C 5.277,1.628 5.209,2.558 5.144,3.458 L 5.119,3.784 C 5.105,3.939 5.049,4.111 4.988,4.293 L 4.909,4.543 C 4.803,4.904 4.747,5.275 4.692,5.634 L 4.647,5.923 C 4.642,5.957 4.631,6.003 4.616,6.057 4.606,5.993 4.598,5.926 4.591,5.859 4.577,5.742 4.563,5.627 4.542,5.52 4.507,5.344 4.414,4.977 4.319,4.606 4.226,4.245 4.132,3.88 4.099,3.71 4.037,3.395 4.031,3.262 4.026,3.124 4.02,2.96 4.014,2.79 3.948,2.417 3.875,2.007 3.788,1.539 3.675,1.179 L 3.631,1.039 3.518,0.944 C 3.433,0.874 3.176,0.66 2.181,0.452 2,0.414 1.817,0.386 1.633,0.358 1.419,0.326 1.205,0.294 0.996,0.241 0.813,0.194 0.671,0.163 0.532,0.132 0.374,0.097 0.221,0.063 0.014,0.006 Z M 4.458,-7.483 4.255,-7.379 C 4.053,-7.269 3.877,-7.173 3.205,-4.54 3.165,-4.383 3.119,-4.23 3.073,-4.077 2.991,-3.805 2.91,-3.53 2.856,-3.251 L 2.763,-2.815 C 2.71,-2.566 2.657,-2.317 2.598,-2.07 2.491,-1.623 2.491,-1.623 2.059,-1.441 1.798,-1.331 1.483,-1.282 1.149,-1.23 1.001,-1.207 0.854,-1.184 0.712,-1.156 l -0.118,0.023 c -0.504,0.099 -1.008,0.198 -1.513,0.286 l -0.147,0.038 -0.01,-0.013 c -0.821,0.103 -1.122,0.182 -1.282,0.451 l -0.127,0.215 0.093,0.241 c 0.115,0.279 0.326,0.334 1.025,0.516 0.179,0.046 0.361,0.094 0.502,0.137 0.14,0.043 0.315,0.116 0.429,0.163 0.096,0.039 0.166,0.064 0.188,0.07 0.224,0.062 0.39,0.099 0.563,0.137 0.13,0.029 0.263,0.059 0.433,0.102 0.242,0.061 0.489,0.1 0.736,0.137 0.165,0.025 0.33,0.049 0.492,0.083 0.392,0.083 0.655,0.167 0.796,0.227 0.081,0.311 0.148,0.691 0.191,0.935 0.054,0.3 0.059,0.437 0.064,0.569 0.006,0.175 0.012,0.343 0.09,0.741 0.035,0.181 0.134,0.569 0.233,0.953 0.089,0.349 0.179,0.694 0.212,0.859 0.016,0.081 0.025,0.169 0.035,0.259 0.025,0.217 0.053,0.464 0.154,0.7 0.03,0.07 0.08,0.205 0.133,0.35 0.09,0.245 0.191,0.515 0.246,0.625 L 4.492,8.371 4.977,7.725 C 5.125,7.527 5.306,7.121 5.441,6.747 L 5.626,6.711 5.574,6.34 C 5.603,6.239 5.624,6.15 5.635,6.083 L 5.681,5.784 C 5.73,5.458 5.781,5.121 5.869,4.825 L 5.938,4.607 C 6.01,4.388 6.092,4.141 6.115,3.867 L 6.141,3.531 C 6.193,2.811 6.243,2.129 6.565,1.716 7.004,1.529 7.764,1.368 8.329,1.249 8.548,1.203 8.749,1.16 8.911,1.121 9.086,1.079 9.185,1.047 9.271,1.019 9.358,0.99 9.427,0.967 9.608,0.939 9.765,0.916 9.926,0.854 10.112,0.782 c 0.143,-0.055 0.305,-0.118 0.47,-0.159 0.533,-0.14 0.774,-0.204 0.869,-0.499 l 0.117,-0.366 -0.324,-0.207 C 10.705,-0.794 10.292,-0.885 9.961,-0.957 L 9.818,-0.989 C 9.669,-1.024 9.428,-1.102 9.189,-1.178 8.937,-1.259 8.687,-1.337 8.529,-1.376 8.299,-1.432 8.107,-1.488 7.923,-1.541 7.61,-1.632 7.317,-1.716 6.918,-1.787 v 0 C 6.886,-1.793 6.845,-1.8 6.786,-1.811 6.669,-1.83 6.572,-1.847 6.485,-1.862 6.483,-1.883 6.479,-1.913 6.476,-1.942 6.462,-2.047 6.445,-2.177 6.399,-2.312 6.362,-2.423 6.306,-2.527 6.247,-2.63 6.213,-2.689 6.179,-2.749 6.17,-2.784 6.152,-2.854 6.139,-2.926 6.125,-2.999 6.106,-3.096 6.087,-3.194 6.062,-3.29 6.051,-3.333 5.87,-3.881 5.775,-4.102 5.729,-4.264 5.689,-4.483 5.649,-4.703 L 5.595,-4.99 C 5.579,-5.073 5.566,-5.206 5.55,-5.361 5.465,-6.183 5.36,-7.205 4.66,-7.421 Z"
       style="fill:#540e36;fill-opacity:1;fill-rule:nonzero;stroke:none"
       transform="matrix(1.3333333,0,0,-1.3333333,67.985867,127.8292)"
       clip-path="url(#clipPath1542)" />
  </g>
</svg>
