<?xml version="1.0" encoding="UTF-8" standalone="no"?>
<!-- Created with Inkscape (http://www.inkscape.org/) -->

<svg
   version="1.1"
   id="svg1"
   width="504.25897"
   height="256.99066"
   viewBox="0 0 504.25897 256.99066"
   sodipodi:docname="5534258.ai"
   xmlns:inkscape="http://www.inkscape.org/namespaces/inkscape"
   xmlns:sodipodi="http://sodipodi.sourceforge.net/DTD/sodipodi-0.dtd"
   xmlns="http://www.w3.org/2000/svg"
   xmlns:svg="http://www.w3.org/2000/svg">
  <defs
     id="defs1">
    <clipPath
       clipPathUnits="userSpaceOnUse"
       id="clipPath868">
      <path
         d="M 0,500 H 500 V 0 H 0 Z"
         transform="translate(-435.47811,-319.03631)"
         id="path868" />
    </clipPath>
  </defs>
  <sodipodi:namedview
     id="namedview1"
     pagecolor="#ffffff"
     bordercolor="#000000"
     borderopacity="0.25"
     inkscape:showpageshadow="2"
     inkscape:pageopacity="0.0"
     inkscape:pagecheckerboard="0"
     inkscape:deskcolor="#d1d1d1" />
  <g
     id="layer-MC1"
     inkscape:groupmode="layer"
     inkscape:label="OBJECTS"
     style="display:inline"
     transform="translate(-976.64642,-123.94183)">
    <path
       id="path867"
       d="m 0,0 -14.431,14.431 c -1.349,1.349 -2.936,2.306 -4.624,2.9 v 23.017 c 0,8.659 -7.019,15.679 -15.678,15.679 h -96.01 -109.479 -96.01 c -8.659,0 -15.679,-7.02 -15.679,-15.679 V 17.331 c -1.687,-0.594 -3.274,-1.551 -4.624,-2.9 L -370.965,0 c -4.82,-4.82 -4.82,-12.634 0,-17.453 l 14.43,-14.431 c 1.35,-1.349 2.937,-2.306 4.624,-2.9 v -35.374 c 0,-8.659 7.02,-15.677 15.679,-15.677 h 96.149 c 1.988,-28.431 25.665,-50.881 54.601,-50.881 28.935,0 52.612,22.45 54.6,50.881 h 96.149 c 8.659,0 15.678,7.018 15.678,15.677 v 35.374 c 1.688,0.594 3.275,1.551 4.624,2.9 L 0,-17.453 C 4.819,-12.634 4.819,-4.82 0,0"
       style="fill:#f7e8d7;fill-opacity:1;fill-rule:nonzero;stroke:none"
       transform="matrix(1.3333333,0,0,-1.3333333,1476.0864,198.6445)"
       clip-path="url(#clipPath868)" />
  </g>
</svg>
