<?xml version="1.0" encoding="UTF-8" standalone="no"?>
<!-- Created with Inkscape (http://www.inkscape.org/) -->

<svg
   version="1.1"
   id="svg1"
   width="72.596954"
   height="48.942596"
   viewBox="0 0 72.596955 48.942597"
   sodipodi:docname="5534258.ai"
   xmlns:inkscape="http://www.inkscape.org/namespaces/inkscape"
   xmlns:sodipodi="http://sodipodi.sourceforge.net/DTD/sodipodi-0.dtd"
   xmlns="http://www.w3.org/2000/svg"
   xmlns:svg="http://www.w3.org/2000/svg">
  <defs
     id="defs1">
    <clipPath
       clipPathUnits="userSpaceOnUse"
       id="clipPath1844">
      <path
         d="M 0,500 H 500 V 0 H 0 Z"
         transform="translate(-343.70281,-360.99871)"
         id="path1844" />
    </clipPath>
    <clipPath
       clipPathUnits="userSpaceOnUse"
       id="clipPath1846">
      <path
         d="M 0,500 H 500 V 0 H 0 Z"
         transform="translate(-341.60411,-371.51681)"
         id="path1846" />
    </clipPath>
  </defs>
  <sodipodi:namedview
     id="namedview1"
     pagecolor="#ffffff"
     bordercolor="#000000"
     borderopacity="0.25"
     inkscape:showpageshadow="2"
     inkscape:pageopacity="0.0"
     inkscape:pagecheckerboard="0"
     inkscape:deskcolor="#d1d1d1" />
  <g
     id="layer-MC1"
     inkscape:groupmode="layer"
     inkscape:label="OBJECTS"
     style="display:inline"
     transform="translate(-433.72052,-169.97633)">
    <path
       id="path1843"
       d="M 0,0 C 0,0 -0.115,0.026 -0.341,0.077 -0.455,0.11 -0.6,0.126 -0.775,0.126 -0.863,0.129 -0.96,0.136 -1.063,0.134 -1.167,0.121 -1.276,0.106 -1.393,0.091 -2.316,-0.03 -3.751,-0.767 -4.617,-2.522 -4.712,-2.745 -4.829,-2.97 -4.895,-3.224 -4.932,-3.351 -4.97,-3.479 -5.008,-3.608 -5.031,-3.743 -5.056,-3.88 -5.08,-4.019 c -0.057,-0.277 -0.045,-0.577 -0.052,-0.882 0.033,-0.307 0.049,-0.629 0.152,-0.949 0.318,-1.274 1.228,-2.473 2.489,-3.298 1.266,-0.81 2.853,-1.284 4.605,-1.202 0.221,0.021 0.442,0.042 0.664,0.063 0.225,0.041 0.45,0.083 0.676,0.125 0.227,0.064 0.453,0.129 0.683,0.195 0.216,0.086 0.433,0.173 0.653,0.26 0.858,0.384 1.706,0.905 2.419,1.588 0.72,0.674 1.359,1.465 1.867,2.354 0.501,0.891 0.891,1.871 1.138,2.921 0.253,1.049 0.336,2.176 0.232,3.341 C 10.348,1.654 10.012,2.89 9.492,3.979 8.45,6.203 6.633,8.043 4.448,9.28 c -2.181,1.234 -4.826,1.919 -7.599,1.696 -2.713,-0.211 -5.341,-1.237 -7.561,-2.811 -2.224,-1.582 -4.102,-3.693 -5.382,-6.297 -1.309,-2.582 -1.882,-5.493 -1.812,-8.359 0.077,-2.868 0.728,-5.743 2.074,-8.375 1.33,-2.629 3.263,-4.995 5.713,-6.732 2.473,-1.733 5.361,-2.711 8.138,-2.989 2.792,-0.292 5.505,0.072 7.973,0.911 2.47,0.835 4.717,2.137 6.585,3.819 0.233,0.212 0.47,0.413 0.691,0.635 0.211,0.232 0.423,0.463 0.634,0.693 0.205,0.236 0.426,0.451 0.61,0.704 0.184,0.25 0.368,0.501 0.551,0.75 0.38,0.485 0.678,1.029 0.979,1.56 0.322,0.533 0.541,1.058 0.775,1.58 0.873,2.091 1.303,4.031 1.702,5.785 0.748,3.49 1.381,6.308 2.876,8.126 1.39,1.849 3.701,2.765 5.735,2.812 2.053,0.07 3.842,-0.746 5.085,-1.71 1.257,-0.971 1.99,-2.057 2.411,-2.82 0.209,-0.385 0.352,-0.695 0.433,-0.908 0.086,-0.213 0.13,-0.322 0.13,-0.322 0,0 -0.011,0.118 -0.035,0.347 -0.019,0.23 -0.073,0.571 -0.176,1.017 -0.216,0.881 -0.662,2.215 -1.795,3.65 C 32.619,2.758 31.875,3.48 30.917,4.119 29.965,4.759 28.761,5.283 27.399,5.542 26.037,5.81 24.509,5.807 22.927,5.445 22.138,5.258 21.336,4.979 20.549,4.585 19.763,4.196 18.98,3.67 18.294,3.061 16.88,1.853 15.746,0.247 14.907,-1.41 c -0.856,-1.661 -1.496,-3.386 -2.121,-5.037 -0.623,-1.64 -1.243,-3.237 -2.015,-4.556 -0.199,-0.317 -0.386,-0.656 -0.609,-0.915 -0.213,-0.278 -0.404,-0.569 -0.669,-0.817 l -0.362,-0.392 c -0.116,-0.135 -0.273,-0.24 -0.404,-0.363 l -0.409,-0.361 c -0.142,-0.115 -0.302,-0.214 -0.451,-0.324 -1.202,-0.864 -2.633,-1.52 -4.16,-1.897 -1.523,-0.385 -3.147,-0.466 -4.666,-0.205 -1.526,0.254 -2.916,0.82 -4.103,1.695 -1.182,0.903 -2.198,2.163 -2.949,3.635 -0.766,1.468 -1.154,3.137 -1.251,4.739 -0.091,1.609 0.153,3.173 0.741,4.505 0.541,1.343 1.49,2.598 2.595,3.531 1.11,0.942 2.376,1.569 3.632,1.817 1.196,0.251 2.523,0.108 3.708,-0.36 C 2.595,2.819 3.604,2.056 4.23,1.137 4.554,0.664 4.767,0.219 4.916,-0.317 5.061,-0.844 5.132,-1.42 5.095,-1.994 5.063,-2.567 4.952,-3.136 4.775,-3.671 4.592,-4.204 4.33,-4.687 4.027,-5.118 3.728,-5.561 3.349,-5.896 2.951,-6.195 L 2.645,-6.405 2.335,-6.572 2.003,-6.711 c -0.116,-0.037 -0.232,-0.074 -0.348,-0.11 -0.95,-0.258 -1.988,-0.193 -2.84,0.113 -0.429,0.151 -0.802,0.376 -1.124,0.639 -0.17,0.126 -0.296,0.281 -0.44,0.427 -0.113,0.163 -0.251,0.323 -0.323,0.483 -0.38,0.638 -0.398,1.464 -0.259,2.172 0.142,0.721 0.479,1.332 0.851,1.79 0.373,0.468 0.812,0.751 1.192,0.927 C -0.505,0.065 0.009,-0.028 0,0"
       style="fill:#e89a00;fill-opacity:1;fill-rule:nonzero;stroke:none"
       transform="matrix(1.3333333,0,0,-1.3333333,458.2704,185.33507)"
       clip-path="url(#clipPath1844)" />
    <path
       id="path1845"
       d="m 0,0 c -0.337,0 -0.675,-0.013 -1.013,-0.041 -2.554,-0.198 -5.082,-1.139 -7.311,-2.72 -2.266,-1.613 -4.024,-3.668 -5.222,-6.109 -1.224,-2.413 -1.832,-5.221 -1.762,-8.127 0.079,-2.946 0.759,-5.692 2.02,-8.16 1.349,-2.665 3.269,-4.93 5.558,-6.551 2.262,-1.586 5.068,-2.616 7.897,-2.899 2.617,-0.273 5.228,0.024 7.763,0.886 2.39,0.808 4.607,2.094 6.412,3.717 l 0.213,0.192 c 0.155,0.139 0.309,0.277 0.457,0.425 l 0.823,0.903 c 0.129,0.14 0.258,0.279 0.371,0.435 l 0.554,0.753 c 0.335,0.427 0.608,0.912 0.873,1.38 l 0.072,0.13 c 0.268,0.441 0.455,0.863 0.653,1.31 l 0.102,0.228 c 0.828,1.984 1.259,3.88 1.639,5.552 l 0.031,0.138 c 0.701,3.274 1.365,6.372 2.977,8.333 1.341,1.785 3.688,2.939 6.11,2.995 2.543,0.083 4.48,-1.1 5.403,-1.815 0.402,-0.311 0.776,-0.651 1.122,-1.018 -0.243,0.439 -0.527,0.864 -0.853,1.277 -0.589,0.749 -1.313,1.411 -2.151,1.971 -0.968,0.651 -2.121,1.117 -3.334,1.348 -1.36,0.268 -2.835,0.235 -4.267,-0.093 -0.788,-0.187 -1.552,-0.463 -2.266,-0.82 -0.757,-0.375 -1.499,-0.876 -2.146,-1.451 -1.252,-1.07 -2.382,-2.563 -3.273,-4.323 -0.8,-1.55 -1.409,-3.163 -2,-4.723 l -0.099,-0.266 c -0.667,-1.755 -1.282,-3.315 -2.051,-4.631 l -0.141,-0.228 c -0.159,-0.26 -0.323,-0.529 -0.521,-0.76 l -0.12,-0.162 c -0.171,-0.232 -0.349,-0.472 -0.586,-0.694 l -0.337,-0.367 c -0.079,-0.092 -0.187,-0.183 -0.296,-0.273 -0.046,-0.038 -0.092,-0.075 -0.135,-0.116 l -0.418,-0.369 c -0.112,-0.091 -0.214,-0.163 -0.316,-0.233 l -0.168,-0.119 c -1.266,-0.909 -2.764,-1.592 -4.338,-1.98 -1.618,-0.409 -3.303,-0.483 -4.871,-0.213 -1.621,0.27 -3.075,0.871 -4.315,1.786 -1.238,0.945 -2.307,2.261 -3.097,3.81 -0.745,1.423 -1.197,3.132 -1.305,4.936 -0.098,1.72 0.173,3.358 0.782,4.737 0.551,1.368 1.523,2.691 2.731,3.711 1.168,0.993 2.503,1.659 3.857,1.926 1.268,0.266 2.686,0.128 3.988,-0.386 1.284,-0.507 2.366,-1.335 3.046,-2.332 0.36,-0.525 0.592,-1.019 0.754,-1.601 0.167,-0.609 0.235,-1.246 0.196,-1.843 -0.033,-0.603 -0.148,-1.211 -0.343,-1.802 -0.189,-0.547 -0.461,-1.075 -0.814,-1.577 -0.365,-0.54 -0.826,-0.92 -1.185,-1.19 L 4.671,-17.53 3.905,-17.816 c -1.03,-0.28 -2.176,-0.236 -3.16,0.119 -0.451,0.159 -0.88,0.403 -1.271,0.722 -0.131,0.097 -0.255,0.225 -0.377,0.355 l -0.249,0.3 c -0.096,0.128 -0.204,0.274 -0.279,0.439 -0.506,0.842 -0.402,1.913 -0.292,2.472 0.11,0.561 0.32,1.037 0.543,1.417 -0.328,-0.334 -0.635,-0.753 -0.89,-1.269 l -0.066,-0.15 c -0.064,-0.145 -0.134,-0.293 -0.176,-0.456 l -0.177,-0.757 c -0.041,-0.201 -0.039,-0.401 -0.041,-0.606 l -0.003,-0.201 0.014,-0.107 c 0.024,-0.24 0.045,-0.466 0.114,-0.677 0.295,-1.179 1.126,-2.273 2.287,-3.033 1.258,-0.805 2.748,-1.194 4.307,-1.12 l 1.274,0.18 1.241,0.427 c 0.876,0.392 1.642,0.895 2.258,1.485 0.713,0.668 1.31,1.421 1.778,2.241 0.49,0.871 0.856,1.81 1.086,2.787 0.244,1.015 0.319,2.084 0.221,3.183 -0.095,1.107 -0.417,2.281 -0.907,3.311 -0.965,2.057 -2.683,3.86 -4.839,5.081 C 4.352,-0.571 2.192,0 0,0 m 2.048,-35.706 c -0.66,0 -1.321,0.035 -1.983,0.104 -2.995,0.299 -5.968,1.392 -8.372,3.076 -2.422,1.717 -4.452,4.108 -5.873,6.916 -1.328,2.6 -2.044,5.49 -2.128,8.588 -0.074,3.071 0.572,6.044 1.867,8.598 1.27,2.586 3.134,4.768 5.538,6.478 2.378,1.686 5.078,2.69 7.811,2.903 2.74,0.22 5.463,-0.389 7.885,-1.76 2.336,-1.322 4.2,-3.283 5.251,-5.524 0.539,-1.132 0.894,-2.43 0.999,-3.652 0.107,-1.205 0.025,-2.383 -0.244,-3.5 -0.251,-1.067 -0.652,-2.093 -1.189,-3.049 -0.519,-0.909 -1.178,-1.741 -1.961,-2.474 -0.695,-0.666 -1.556,-1.232 -2.556,-1.68 l -1.404,-0.479 -1.43,-0.205 c -1.774,-0.086 -3.482,0.358 -4.921,1.278 -1.373,0.9 -2.358,2.21 -2.705,3.599 -0.091,0.281 -0.121,0.586 -0.147,0.855 l -0.016,0.413 c 0.002,0.255 0.005,0.519 0.058,0.784 l 0.197,0.835 c 0.051,0.204 0.139,0.406 0.227,0.601 l 0.069,0.157 c 0.953,1.931 2.543,2.772 3.62,2.913 l 0.331,0.043 c 0.139,0.006 0.215,0.003 0.286,-10e-4 0.295,-0.003 0.483,-0.026 0.641,-0.073 l 1.05,-0.238 -0.595,-0.819 -0.323,-0.006 c -0.139,0 -0.51,-0.002 -1.024,-0.223 -0.393,-0.182 -0.734,-0.447 -0.998,-0.778 -0.267,-0.331 -0.613,-0.869 -0.751,-1.575 -0.139,-0.712 -0.068,-1.376 0.198,-1.82 0.056,-0.116 0.126,-0.21 0.193,-0.302 l 0.178,-0.213 c 0.081,-0.087 0.161,-0.176 0.261,-0.25 0.32,-0.261 0.648,-0.447 0.993,-0.569 0.798,-0.287 1.725,-0.323 2.542,-0.102 l 0.617,0.228 0.528,0.329 c 0.423,0.319 0.72,0.613 0.944,0.944 0.304,0.433 0.533,0.877 0.689,1.33 0.165,0.5 0.265,1.021 0.293,1.542 0.032,0.492 -0.024,1.015 -0.162,1.517 -0.133,0.476 -0.316,0.866 -0.616,1.303 -0.568,0.833 -1.487,1.532 -2.587,1.966 -1.123,0.444 -2.339,0.564 -3.422,0.336 -1.193,-0.236 -2.371,-0.826 -3.411,-1.709 -1.086,-0.918 -1.958,-2.102 -2.455,-3.337 -0.552,-1.25 -0.793,-2.728 -0.705,-4.29 0.101,-1.662 0.514,-3.231 1.195,-4.535 0.725,-1.421 1.696,-2.619 2.81,-3.469 1.105,-0.816 2.414,-1.356 3.881,-1.6 1.435,-0.246 2.976,-0.178 4.462,0.197 1.455,0.358 2.834,0.987 3.99,1.818 l 0.19,0.134 c 0.081,0.056 0.163,0.112 0.239,0.173 l 0.391,0.347 c 0.048,0.045 0.11,0.095 0.171,0.146 0.065,0.054 0.133,0.107 0.187,0.17 l 0.373,0.403 c 0.196,0.186 0.339,0.379 0.491,0.584 l 0.147,0.198 c 0.163,0.191 0.3,0.414 0.445,0.651 l 0.139,0.226 c 0.722,1.235 1.32,2.755 1.97,4.467 l 0.101,0.265 c 0.599,1.586 1.219,3.227 2.044,4.824 0.948,1.873 2.161,3.473 3.505,4.622 0.707,0.627 1.525,1.18 2.359,1.592 0.781,0.391 1.618,0.693 2.484,0.899 1.572,0.359 3.191,0.394 4.685,0.101 1.341,-0.255 2.621,-0.774 3.7,-1.499 0.924,-0.617 1.725,-1.352 2.379,-2.182 0.924,-1.169 1.541,-2.426 1.888,-3.841 0.1,-0.431 0.165,-0.807 0.189,-1.095 l 0.383,-3.834 -1.44,3.579 c -0.052,0.138 -0.169,0.416 -0.409,0.858 -0.576,1.045 -1.344,1.942 -2.277,2.663 -0.817,0.633 -2.523,1.673 -4.762,1.606 -1.67,-0.038 -3.948,-0.745 -5.353,-2.613 -1.471,-1.79 -2.11,-4.772 -2.787,-7.93 l -0.033,-0.144 c -0.388,-1.712 -0.829,-3.653 -1.696,-5.729 l -0.105,-0.236 c -0.202,-0.455 -0.412,-0.927 -0.704,-1.41 l -0.065,-0.115 c -0.282,-0.501 -0.574,-1.019 -0.947,-1.494 l -0.543,-0.739 c -0.133,-0.183 -0.286,-0.352 -0.441,-0.52 l -0.837,-0.918 c -0.174,-0.176 -0.343,-0.327 -0.514,-0.479 l -0.208,-0.188 c -1.908,-1.716 -4.244,-3.072 -6.762,-3.923 -2.031,-0.69 -4.111,-1.038 -6.203,-1.038"
       style="fill:#540e36;fill-opacity:1;fill-rule:nonzero;stroke:none"
       transform="matrix(1.3333333,0,0,-1.3333333,455.47213,171.31093)"
       clip-path="url(#clipPath1846)" />
  </g>
</svg>
